<svg width="180" height="59" viewBox="0 0 180 59" fill="none" xmlns="http://www.w3.org/2000/svg">
<path d="M126.433 6.16364C126.433 6.16364 123.08 7.51643 119.18 11.8725C115.281 16.2285 113.009 21.1268 114.69 22.4295C115.336 22.9246 116.825 23.0189 119.526 20.5433C122.02 18.3494 123.977 15.5992 125.244 12.5091C126.988 8.19724 126.433 6.21669 126.433 6.16953M147.775 14.0004C143.442 11.7487 140.276 8.99005 136.981 7.28359C133.837 5.64787 131.804 4.96411 129.263 5.30894C128.908 5.37299 128.558 5.46162 128.216 5.57419C128.216 5.57419 129.524 10.1041 124.316 17.7139C119.041 25.4298 114.254 25.3767 112.893 23.2577C111.468 21.0207 113.309 16.4613 116.383 12.403C119.602 8.15893 125.255 4.63991 125.255 4.63991C125.255 4.63991 123.452 3.52291 119.026 6.06638C114.708 8.53617 107.275 14.4307 100.377 24.3717C93.4786 34.3128 92.1118 39.7829 91.1231 44.0888C90.1343 48.3947 91.0329 53.0072 95.744 53.0072C100.455 53.0072 105.94 45.7245 107.487 43.1928C110.363 38.4772 112.239 31.2447 108.324 32.2379C106.396 32.7272 104.835 34.8904 103.849 36.9741C103.226 38.3125 102.751 39.7159 102.43 41.1592C101.062 41.7306 99.7773 42.4881 98.6114 43.4109C97.3143 44.3846 96.1021 45.4693 94.9879 46.6529C94.9879 46.6529 95.0054 43.2105 97.7128 37.6402C100.42 32.0699 105.39 29.5265 108.205 29.2877C110.741 29.0814 114.042 31.2624 111.244 39.3084C108.447 47.3543 100.193 57.1363 91.5244 57.2571C83.5242 57.3691 78.2897 47.0213 89.4248 28.9635C101.749 9.01362 116.205 2.8922 120.899 2.21138C125.593 1.53057 127.119 3.62901 127.119 3.62901C129.945 2.45425 132.996 1.94436 136.044 2.1377C141.776 2.52969 146.208 6.64109 152.059 9.52939C150.538 11.003 149.087 12.5503 147.778 14.0004M173.527 7.28359C169.554 9.86538 164.058 12.2055 158.777 11.7045C157.439 13.1044 156.008 14.7254 154.575 16.4937C163.732 18.3299 171.756 12.5798 176.022 7.68442C177.577 5.92435 178.913 3.97737 180 1.88719C178.058 3.93743 175.884 5.74871 173.524 7.28359M161.33 33.4316C161.399 33.3092 161.456 33.1798 161.499 33.0455C161.472 32.8329 161.373 32.6363 161.22 32.4882C161.067 32.3402 160.869 32.2498 160.658 32.232C159.786 32.1908 158.596 32.3588 155.476 35.8601C152.888 38.7515 150.66 41.9547 148.843 45.3974C147.057 48.7042 146.333 51.1681 147.36 51.8047C147.693 51.9798 148.08 52.0198 148.441 51.9167C149.136 51.7487 149.925 51.0885 151.123 49.6827C151.684 49.0225 152.306 48.0882 153.051 47.0537C155.116 44.2067 160.304 35.2441 161.33 33.4316ZM128.917 37.2394C129.437 35.8601 130.1 33.1516 128.722 32.0876C127.242 30.9588 123.467 33.6084 123.446 36.3258C123.42 39.108 126.104 40.3664 126.747 40.5433C127.114 40.6435 127.241 40.6287 127.419 40.3311C127.988 39.3369 128.489 38.3039 128.917 37.2394ZM126.061 42.2998C125.125 41.8621 124.253 41.298 123.467 40.6228C122.679 39.9528 122.02 39.1403 121.524 38.2267C121.472 38.1383 121.42 38.2061 121.361 38.2857C121.303 38.3652 121.071 38.5804 119.058 41.5689C117.046 44.5574 113.954 50.7496 116.752 51.8047C118.543 52.4796 121.524 49.2995 123.15 47.1923C124.257 45.7214 125.261 44.1732 126.154 42.5592C126.238 42.3794 126.154 42.3381 126.064 42.2998M157.797 49.4528C157.038 50.6847 156.171 53.0484 158.669 51.5778C161.726 49.7888 166.079 43.0956 166.079 43.0956H168.054C166.257 45.8954 164.256 48.5553 162.069 51.0531C158.972 54.5309 155.194 57.6903 152.533 57.3779C149.424 57.0095 150.399 52.8745 150.399 52.8745C150.399 52.8745 145.952 57.6727 142.875 57.3278C138.72 56.8622 139.988 51.6573 139.988 51.6573C139.988 51.6573 135.288 57.5017 132.086 57.3219C127.067 57.0272 128.329 50.838 129.725 46.479C130.472 44.1477 131.165 42.3175 131.165 42.3175C131.165 42.3175 130.667 42.4501 129.597 42.6122C129.039 42.6918 128.021 42.7508 128.021 42.7508C128.021 42.7508 125.93 46.4879 124.258 48.7337C122.586 50.9795 115.478 58.7219 111.296 57.1716C107.429 55.7393 108.708 49.7387 110.959 44.97C114.245 38.0175 123.487 28.0293 128.818 29.3496C134.343 30.7083 128.943 40.9264 128.943 40.9264C128.943 40.9264 128.943 40.9647 129.001 40.9912C129.111 41.0325 129.399 41.0649 130.065 40.9323C130.755 40.7896 131.432 40.5855 132.086 40.3222C132.086 40.3222 137.641 28.5332 143.777 20.8203C149.913 13.1074 162.153 -0.175886 166.957 3.03661C168.12 3.82647 167.597 6.54678 166.015 9.8477C165.302 10.0823 164.578 10.279 163.846 10.4371C164.904 8.48902 165.605 6.8474 165.814 5.70092C166.538 1.71625 157.358 10.1218 150.797 19.1522C146.845 24.5962 143.334 30.3552 140.299 36.3729C141.484 35.6404 142.615 34.8218 143.684 33.9237C146.61 31.4646 149.391 28.8331 152.013 26.0428C154.537 23.4239 156.904 20.6544 159.102 17.7493C159.801 17.715 160.497 17.6422 161.188 17.5312C158.791 20.828 156.177 23.9572 153.365 26.8975C150.748 29.5795 147.915 32.4649 145.455 34.5604C143.257 36.4543 140.939 38.1998 138.516 39.7858C138.516 39.7858 132.778 51.5129 135.899 52.2645C137.734 52.7124 141.357 47.0567 141.357 47.0567C141.357 47.0567 146.086 39.7446 148.936 36.4466C152.824 31.9668 156.171 29.3732 159.515 29.326C161.464 29.2907 162.613 31.3891 162.613 31.3891L163.529 29.9509H169.17C169.17 29.9509 158.634 48.0705 157.791 49.4351M173.524 7.28359C169.551 9.86538 164.055 12.2055 158.774 11.7045C157.436 13.1044 156.005 14.7254 154.572 16.4937C163.729 18.3299 171.753 12.5798 176.019 7.68442C177.575 5.92452 178.912 3.97752 180 1.88719C178.058 3.93743 175.884 5.74871 173.524 7.28359ZM94.2929 16.1725H88.9275L85.8943 21.1386H91.2598L94.2929 16.1725ZM68.8879 33.3697C71.1707 30.1984 77.4696 19.0844 77.4696 19.0844C77.443 18.8721 77.3454 18.6755 77.1929 18.5274C77.0405 18.3793 76.8425 18.2888 76.6321 18.2709C75.7597 18.2297 74.3056 18.5273 71.4179 22.1908C68.5302 25.8542 66.288 28.769 64.6537 31.8017C62.8623 35.1115 62.08 37.4457 63.1095 38.0794C63.4436 38.249 63.8273 38.2888 64.1884 38.1914C64.8572 38.0204 65.7326 37.3396 66.9336 35.9397C67.4978 35.2854 68.1376 34.4041 68.8879 33.3697ZM40.0978 18.3387C38.6147 17.204 34.8429 19.8595 34.8225 22.571C34.7993 25.3561 38.2163 26.2079 38.6583 26.2285C38.7883 26.2394 38.9187 26.2118 39.0334 26.1489C39.1123 26.1023 39.1752 26.0324 39.2137 25.9485C39.6155 25.1484 39.9766 24.328 40.2955 23.4905C40.8161 22.1112 41.4762 19.4027 40.0978 18.3387ZM37.8615 27.9261C36.8388 27.6023 35.8614 27.1467 34.9534 26.5704C34.0734 25.989 33.3579 25.1856 32.877 24.2391C32.8247 24.1507 32.7665 24.2185 32.7142 24.298C32.6618 24.3776 32.3594 24.7608 30.3412 27.7611C28.323 30.7614 25.3334 36.8975 28.1339 37.9526C29.9195 38.6393 32.9352 35.4327 34.5724 33.3343C35.7976 31.6852 36.9297 29.9672 37.9633 28.1884C38.0302 28.0086 37.9633 27.9674 37.8644 27.9349M81.6834 29.774H83.6493C83.6493 29.774 73.7996 44.2155 68.2364 43.5436C65.1306 43.1752 66.0525 39.2907 66.0525 39.2907C66.0525 39.2907 61.6903 44.466 57.683 43.4168C54.0479 42.4708 56.3947 36.3434 56.3947 36.3434C55.9818 36.5114 48.1154 45.4976 42.5871 43.3432C36.8029 41.0797 39.807 33.5553 40.9062 31.2919C41.8397 29.385 42.8721 27.5282 42.8721 27.5282C42.8721 27.5282 41.9851 27.7817 41.4181 27.9114C40.851 28.041 40.0309 28.2061 40.0309 28.2061C40.0309 28.2061 37.2944 32.7124 35.6223 34.9612C33.9501 37.2099 26.8427 44.9376 22.6551 43.3991C18.4675 41.8607 19.5056 35.922 21.8583 31.2064C25.6737 23.5583 34.7266 14.1595 40.1792 15.586C45.6871 17.0095 41.1273 26.0634 41.1273 26.0634C41.1273 26.0634 42.2236 26.2079 44.8496 24.3924C48.6301 21.7781 53.6204 14.746 59.0236 15.5712C61.5711 15.9603 63.9441 18.5981 60.6987 23.6084C59.6634 25.2176 57.9273 26.6558 56.5983 25.2323C55.7695 24.3481 56.4936 22.736 57.3631 21.6337C57.7015 21.1844 58.1438 20.8263 58.6509 20.5909C59.158 20.3555 59.7144 20.2501 60.2712 20.2839C60.2712 20.2839 61.164 18.2208 58.8928 18.2503C57.0549 18.2857 52.4019 22.627 49.7759 27.0125C47.368 31.0384 43.7184 37.8966 47.3826 39.3909C50.7414 40.7643 57.1334 33.0749 60.0938 29.0461C63.0542 25.0172 69.801 15.8866 75.4601 15.5211C77.4085 15.3915 78.5689 17.1922 78.5689 17.1922L79.2232 16.143H84.8823C84.8823 16.143 74.2242 34.1684 73.3925 35.5329C72.7382 36.5998 71.8686 38.9989 74.2649 37.655C76.6612 36.311 81.6834 29.774 81.6834 29.774ZM78.6038 58.657C74.4369 55.7338 69.4474 54.2581 64.3832 54.4513C63.0125 54.4892 61.67 54.854 60.4644 55.5161C59.2588 56.1782 58.2242 57.119 57.4445 58.2621C55.2867 54.4454 51.0206 52.1024 44.425 52.1554C33.7669 52.2792 23.196 57.26 14.8207 57.2542C6.7944 57.2542 0.940424 52.1407 1.12945 43.0602C1.48133 27.1245 14.7684 12.7743 24.6849 6.3169C30.4022 2.60631 35.1831 1.50404 38.3093 1.86066C40.5893 2.11707 43.3316 4.78728 41.6013 8.72185C39.0596 14.4719 35.5496 14.0004 35.6804 11.2506C35.7531 9.46161 36.928 8.33576 37.812 7.71389C38.3733 7.32191 39.365 7.20991 39.8826 7.19812C40.3857 6.76783 40.755 3.62017 36.6837 4.65465C32.6124 5.68913 27.6686 9.75633 22.975 15.0113C18.2813 20.2662 10.9733 30.1984 9.1674 40.6287C8.32405 45.4652 8.87659 54.2863 20.192 54.1861C29.7886 54.1065 43.9336 47.7021 56.9327 47.8348C61.9782 47.8849 66.3694 49.2642 69.7923 51.4039C73.154 53.5023 77.1846 56.5674 78.6154 58.66" fill="#E61D2B"/>
</svg>
