<svg width="145" height="51" viewBox="0 0 145 51" fill="none" xmlns="http://www.w3.org/2000/svg">
<g clip-path="url(#clip0_89_3141)">
<path d="M4.62387 41.0149L4.61582 41.9015H1.82054L1.8286 46.6567H0.797485V41.0149H4.62387ZM5.50999 46.6567V41.0149H6.5411V46.6567H5.50999ZM8.1361 41.0149H13.1225V46.6567H12.0914V41.9015H9.16721V46.6567H8.1361V41.0149ZM15.7567 45.7782H18.9386V46.6567H14.7094V41.0149H18.8258V41.8934H15.7567V43.3603H18.4794V44.2227H15.7567V45.7782ZM22.4267 41.0149C23.9089 41.0149 24.8272 41.7725 24.8272 43.0218C24.8272 44.263 23.9089 45.0287 22.4267 45.0287H21.1539V46.6567H20.1066V41.0149H22.4267ZM22.3783 44.1421C23.2966 44.1421 23.7719 43.731 23.7719 43.0218C23.7719 42.3125 23.2966 41.9015 22.3783 41.9015H21.1539V44.1421H22.3783ZM31.9967 46.6567H30.9978L30.9897 42.917L29.1369 46.0119H28.6697L26.8169 42.9654V46.6567H25.8261V41.0149H26.688L28.9194 44.7466L31.1266 41.0149H31.9805L31.9967 46.6567ZM37.8772 46.6567L37.3133 45.351H34.4939L33.938 46.6567H32.8586L35.3961 41.0149H36.4272L38.9728 46.6567H37.8772ZM34.8483 44.529H36.9669L35.9036 42.0627L34.8483 44.529ZM42.1547 41.0149C43.6369 41.0149 44.5553 41.7725 44.5553 43.0218C44.5553 44.263 43.6369 45.0287 42.1547 45.0287H40.8819V46.6567H39.8347V41.0149H42.1547ZM42.1064 44.1421C43.0247 44.1421 43.5 43.731 43.5 43.0218C43.5 42.3125 43.0247 41.9015 42.1064 41.9015H40.8819V44.1421H42.1064ZM49.2758 46.6567L47.6244 44.2791H46.5772V46.6567H45.5461V41.0149H46.5772V43.3764H47.6566L49.2758 41.0149H50.3875L48.4622 43.7472L50.46 46.6567H49.2758ZM52.2241 45.7782H55.4061V46.6567H51.1769V41.0149H55.2933V41.8934H52.2241V43.3603H54.9469V44.2227H52.2241V45.7782ZM60.6664 41.0149V41.9015H58.7975V46.6567H57.7583V41.9015H55.8975V41.0149H60.6664ZM68.5689 45.7701H69.3825V47.8576H68.4158V46.6567H64.09V47.8576H63.1153L63.1233 45.7701H63.365C64.1303 45.7379 64.3155 44.4564 64.3719 42.8042L64.4364 41.0149H68.5689V45.7701ZM65.2903 42.9009C65.2419 44.1824 65.113 45.3188 64.678 45.7701H67.5378V41.9015H65.3305L65.2903 42.9009ZM70.3733 46.6567V41.0149H71.4044V45.0206L74.4333 41.0149H75.408V46.6567H74.3769V42.6591L71.348 46.6567H70.3733ZM81.0791 41.0149V41.9015H79.2103V46.6567H78.1711V41.9015H76.3103V41.0149H81.0791ZM83.7053 41.0149H86.0494V46.6567H85.0183V45.0851H83.5119L82.4647 46.6567H81.3611L82.5694 44.9158C81.788 44.6257 81.345 43.989 81.345 43.0863C81.345 41.7806 82.2714 41.0149 83.7053 41.0149ZM83.7375 41.9015C82.8836 41.9015 82.4083 42.2964 82.4083 43.0701C82.4083 43.8116 82.8514 44.2307 83.6972 44.2307H85.0183V41.9015H83.7375ZM90.8344 41.0149H91.8736V46.6567H90.8344V44.529C90.2947 44.7304 89.7872 44.8272 89.32 44.8272C87.878 44.8272 87.0725 44.1098 87.0725 42.8122V41.0149H88.1116V42.6994C88.1116 43.4973 88.5869 43.9245 89.4489 43.9245C89.9161 43.9245 90.3914 43.8278 90.8344 43.6263V41.0149ZM93.4605 46.6567V41.0149H94.4916V45.0206L97.5205 41.0149H98.4953V46.6567H97.4641V42.6591L94.4352 46.6567H93.4605ZM99.5183 41.0149H100.727L102.056 42.9009L103.385 41.0149H104.609L102.716 43.723L104.762 46.6567H103.522L102.056 44.6015L100.598 46.6567H99.3894L101.427 43.7633L99.5183 41.0149ZM111.964 41.0149V41.9015H110.095V46.6567H109.056V41.9015H107.195V41.0149H111.964ZM115.396 46.7373C113.648 46.7373 112.359 45.5042 112.359 43.8358C112.359 42.1675 113.648 40.9343 115.396 40.9343C117.144 40.9343 118.433 42.1594 118.433 43.8358C118.433 45.5122 117.144 46.7373 115.396 46.7373ZM115.396 45.8185C116.532 45.8185 117.377 44.9884 117.377 43.8358C117.377 42.6833 116.532 41.8531 115.396 41.8531C114.26 41.8531 113.414 42.6833 113.414 43.8358C113.414 44.9884 114.26 45.8185 115.396 45.8185ZM123.306 43.723C124.015 43.9164 124.41 44.3839 124.41 45.0931C124.41 46.0684 123.677 46.6567 122.275 46.6567H119.601V41.0149H122.122C123.379 41.0149 124.136 41.5307 124.136 42.4657C124.136 43.0701 123.83 43.4973 123.306 43.723ZM120.632 41.8209V43.4248H122.034C122.71 43.4248 123.073 43.1507 123.073 42.6269C123.073 42.0949 122.71 41.8209 122.034 41.8209H120.632ZM122.243 45.8507C122.968 45.8507 123.355 45.5767 123.355 45.0125C123.355 44.4484 122.968 44.1904 122.243 44.1904H120.632V45.8507H122.243ZM129.904 46.6567L129.34 45.351H126.521L125.965 46.6567H124.885L127.423 41.0149H128.454L130.999 46.6567H129.904ZM126.875 44.529H128.994L127.93 42.0627L126.875 44.529ZM134.181 41.0149C135.664 41.0149 136.582 41.7725 136.582 43.0218C136.582 44.263 135.664 45.0287 134.181 45.0287H132.909V46.6567H131.861V41.0149H134.181ZM134.133 44.1421C135.051 44.1421 135.527 43.731 135.527 43.0218C135.527 42.3125 135.051 41.9015 134.133 41.9015H132.909V44.1421H134.133ZM137.581 46.6567V41.0149H138.612V46.6567H137.581ZM143.912 43.723C144.621 43.9164 145.016 44.3839 145.016 45.0931C145.016 46.0684 144.283 46.6567 142.881 46.6567H140.207V41.0149H142.728C143.985 41.0149 144.742 41.5307 144.742 42.4657C144.742 43.0701 144.436 43.4973 143.912 43.723ZM141.238 41.8209V43.4248H142.64C143.316 43.4248 143.679 43.1507 143.679 42.6269C143.679 42.0949 143.316 41.8209 142.64 41.8209H141.238ZM142.849 45.8507C143.574 45.8507 143.961 45.5767 143.961 45.0125C143.961 44.4484 143.574 44.1904 142.849 44.1904H141.238V45.8507H142.849Z" fill="#2B299B"/>
<path fill-rule="evenodd" clip-rule="evenodd" d="M22.6825 30.5804C22.6825 30.5817 22.6812 30.583 22.6799 30.583H21.7173C21.716 30.583 21.7147 30.5817 21.7147 30.5804V28.8694C21.7147 28.3739 21.9753 28.1979 22.1986 28.1979C22.4219 28.1979 22.6825 28.3739 22.6825 28.8694V30.5804ZM21.1057 30.5804C21.1057 30.5817 21.1047 30.583 21.1031 30.583H20.1405C20.1392 30.583 20.1378 30.5817 20.1378 30.5804V28.8694C20.1378 28.3739 20.3985 28.1979 20.6218 28.1979C20.8451 28.1979 21.1057 28.3739 21.1057 28.8694V30.5804ZM20.8517 21.2924C20.8517 20.9731 21.0546 20.7585 21.3571 20.7585C21.6593 20.7585 21.8628 20.9731 21.8628 21.2924V22.5744C21.8628 22.5761 21.8615 22.5771 21.8601 22.5771H20.8543C20.8527 22.5771 20.8517 22.5761 20.8517 22.5744V21.2924ZM20.886 17.5975C20.886 17.331 21.0754 17.1521 21.3571 17.1521C21.6395 17.1521 21.8288 17.331 21.8288 17.5975V18.6055C21.8288 18.6068 21.8275 18.6081 21.8262 18.6081H20.8887C20.887 18.6081 20.886 18.6068 20.886 18.6055V17.5975ZM19.4019 24.7136H18.9701V23.2387H19.554L19.4019 24.7136ZM13.3443 18.3826C13.3443 18.3843 13.3433 18.3853 13.3423 18.3853H12.4513C12.45 18.3853 12.4493 18.3843 12.4493 18.3826V15.6349C12.4493 14.7273 12.7624 14.6293 12.897 14.6293C13.0312 14.6293 13.3443 14.7273 13.3443 15.6349V18.3826ZM11.7939 18.3826C11.7939 18.3843 11.7925 18.3853 11.7916 18.3853H10.8969C10.8963 18.3853 10.8953 18.3843 10.8953 18.3826V15.6349C10.8953 14.7273 11.2093 14.6293 11.3446 14.6293C11.4795 14.6293 11.7939 14.7273 11.7939 15.6349V18.3826ZM10.1385 23.6835H9.50351C9.50219 23.6835 9.50087 23.6822 9.50087 23.6812V19.036C9.50087 19.0344 9.50219 19.0334 9.50351 19.0334H10.1408V23.6812C10.1408 23.6822 10.1398 23.6835 10.1385 23.6835ZM8.6831 22.2624C8.6831 22.2641 8.68211 22.2651 8.68046 22.2651H7.85774C7.85642 22.2651 7.8551 22.2641 7.8551 22.2624V20.9804C7.8551 20.6611 8.02169 20.4465 8.2691 20.4465C8.51684 20.4465 8.6831 20.6611 8.6831 20.9804V22.2624ZM7.11782 22.2624C7.11782 22.2641 7.1165 22.2651 7.11551 22.2651H6.29246C6.29147 22.2651 6.29015 22.2641 6.29015 22.2624V20.9804C6.29015 20.6611 6.45641 20.4465 6.70382 20.4465C6.95123 20.4465 7.11782 20.6611 7.11782 20.9804V22.2624ZM5.25532 28.6023H5.82634V26.2852H5.25532V28.6023ZM4.05884 24.5393C4.05884 24.5406 4.05785 24.5416 4.0562 24.5416H2.78781C2.7865 24.5416 2.78551 24.5406 2.78551 24.5393V23.5474C2.78551 23.3345 2.95243 23.107 3.42217 23.107C3.89159 23.107 4.05884 23.3345 4.05884 23.5474V24.5393ZM4.02849 30.5748C4.02849 30.5764 4.0275 30.5774 4.02585 30.5774H3.06359C3.06227 30.5774 3.06129 30.5764 3.06129 30.5748V28.8642C3.06129 28.3682 3.32189 28.1923 3.54489 28.1923C3.76822 28.1923 4.02849 28.3682 4.02849 28.8642V30.5748ZM2.452 30.5748C2.452 30.5764 2.45068 30.5774 2.44936 30.5774H1.48677C1.48545 30.5774 1.48413 30.5764 1.48413 30.5748V28.8642C1.48413 28.3682 1.74473 28.1923 1.96806 28.1923C2.19139 28.1923 2.452 28.3682 2.452 28.8642V30.5748ZM24.164 24.7136H23.3047C23.3034 24.7136 23.3024 24.7129 23.3021 24.7113L22.7324 19.0905C22.7314 19.0822 22.7277 19.075 22.7254 19.0671V16.6776C22.7254 16.6773 22.7258 16.6773 22.7258 16.677L22.8732 16.2141C22.8943 16.2012 22.9128 16.1847 22.927 16.1639C22.9603 16.1153 22.9669 16.0536 22.9458 15.9991L21.5293 12.3957C21.5293 12.3953 21.5289 12.395 21.5289 12.3947V11.7066C21.5289 11.7053 21.5306 11.704 21.5322 11.7043C21.6114 11.7231 21.7077 11.7353 21.8262 11.7353C21.9331 11.7353 22.0571 11.7261 22.2022 11.7036C22.4338 11.668 22.5773 11.5782 22.7033 11.4992C22.7861 11.4471 22.8643 11.3982 22.9682 11.3635C23.4258 11.211 23.7652 11.1595 23.7685 11.1588C23.8506 11.1466 23.9133 11.0789 23.9189 10.9961C23.9252 10.9132 23.8721 10.8369 23.7923 10.8135C23.7781 10.8095 23.4403 10.7111 23.017 10.7111H23.0032C22.8653 10.7118 22.7126 10.7428 22.5776 10.7699C22.4754 10.7904 22.3599 10.8135 22.3058 10.8099C21.8357 10.7742 21.4676 10.4787 21.4646 10.4761C21.4115 10.4325 21.3386 10.4236 21.2763 10.4526C21.2146 10.482 21.175 10.5444 21.175 10.6127V10.623V12.4217C21.175 12.4221 21.175 12.4224 21.1747 12.4227L19.769 15.9991C19.7476 16.0536 19.7545 16.1153 19.7875 16.1639C19.7948 16.1748 19.8037 16.1843 19.8132 16.1929L19.9887 16.6839V16.6849V19.0667C19.9868 19.075 19.9828 19.0819 19.9818 19.0902L19.7163 21.6648C19.7163 21.6661 19.7149 21.6671 19.7136 21.6671H19.3267C19.3254 21.6671 19.324 21.6658 19.324 21.6648V21.2927C19.3244 21.2924 19.3244 21.2921 19.3244 21.2917L19.6272 20.6565C19.6288 20.6532 19.6292 20.6499 19.6305 20.6469C19.6335 20.6396 19.6361 20.6324 19.6381 20.6248C19.6394 20.6179 19.641 20.6113 19.642 20.6043C19.643 20.5967 19.6434 20.5895 19.6437 20.5819C19.6437 20.5746 19.6434 20.5677 19.6427 20.5604C19.6417 20.5531 19.6404 20.5459 19.6384 20.5386C19.6371 20.5317 19.6351 20.5247 19.6325 20.5178C19.6311 20.5148 19.6308 20.5115 19.6295 20.5086L17.4724 15.6112C17.4444 15.5471 17.3814 15.5055 17.3114 15.5052C17.2415 15.5052 17.1778 15.5461 17.1491 15.6095L14.9432 20.5072C14.9416 20.5106 14.9412 20.5145 14.9399 20.5181C14.9373 20.5247 14.9356 20.5314 14.934 20.5383C14.932 20.5459 14.9307 20.5531 14.9297 20.5607C14.929 20.568 14.9287 20.5749 14.9287 20.5822C14.9287 20.5898 14.9294 20.5971 14.9304 20.6046C14.9314 20.6116 14.933 20.6188 14.935 20.6258C14.937 20.633 14.9389 20.64 14.9419 20.6469C14.9436 20.6505 14.9442 20.6548 14.9459 20.6585L15.248 21.2719V21.2729V21.6648C15.248 21.6658 15.247 21.6671 15.2454 21.6671H14.676C14.6744 21.6671 14.6734 21.6685 14.6734 21.6698V23.2361C14.6734 23.2374 14.6744 23.2387 14.676 23.2387H15.6013C15.6023 23.2397 15.6027 23.2401 15.6036 23.241L15.6076 23.9347C15.4694 24.0741 15.3909 24.1526 15.253 24.292H14.9835C14.9818 24.292 14.9808 24.2907 14.9808 24.2893V23.6861C14.9808 23.6848 14.9795 23.6835 14.9785 23.6835H14.134C14.1327 23.6835 14.1314 23.6825 14.1314 23.6812L14.0994 13.5463H14.2571C14.3115 13.5463 14.363 13.5212 14.3969 13.4783C14.4303 13.435 14.4425 13.3789 14.4289 13.3261L12.3721 5.06326V4.26591C12.3721 4.26426 12.3735 4.26293 12.3751 4.26326C12.4652 4.28506 12.576 4.29991 12.7182 4.29991C12.8356 4.29991 12.9732 4.29034 13.1338 4.26822C13.3845 4.23322 13.5409 4.14539 13.6788 4.06747C13.7722 4.01465 13.8606 3.96512 13.979 3.92913C14.49 3.77561 14.8697 3.7241 14.8736 3.72344C14.9574 3.71221 15.0214 3.64354 15.027 3.55901C15.0326 3.47449 14.9775 3.39822 14.8961 3.37643C14.8799 3.37247 14.5045 3.27837 14.0288 3.2754C13.8794 3.27606 13.7121 3.30676 13.5637 3.33351C13.4419 3.3553 13.3159 3.3794 13.2519 3.37379C12.7188 3.33747 12.3045 3.03735 12.3006 3.03471C12.2468 2.99509 12.1752 2.98881 12.1155 3.01886C12.0558 3.0489 12.0182 3.10998 12.0182 3.17701V3.18691V5.06921C12.0182 5.06954 12.0182 5.06954 12.0179 5.06987L9.83075 13.3234C9.8169 13.3769 9.82811 13.4334 9.86176 13.477C9.89508 13.5209 9.9472 13.5463 10.002 13.5463H10.1405L10.1408 17.4007H9.50351C9.50219 17.4007 9.50087 17.3994 9.50087 17.398V16.4564H9.53188C9.62985 16.4564 9.70902 16.3772 9.70902 16.2794V15.8202H9.85285C9.91091 15.8202 9.96501 15.7918 9.99833 15.7442C10.031 15.6967 10.0392 15.6359 10.0191 15.5815L7.65255 9.15472C7.64991 9.14679 7.64431 9.14019 7.64035 9.13293V8.43C7.64035 8.42835 7.64167 8.42703 7.64332 8.42736C7.72249 8.44618 7.81881 8.45839 7.93757 8.45839C8.04445 8.45839 8.16849 8.44882 8.3133 8.42637C8.54521 8.39071 8.68838 8.3009 8.81472 8.22199C8.89752 8.17015 8.97537 8.12096 9.07994 8.08629C9.53683 7.93408 9.8766 7.88225 9.87957 7.88192C9.96171 7.8697 10.0247 7.80202 10.03 7.71881C10.0363 7.63594 9.98381 7.56 9.90398 7.53656C9.8898 7.53227 9.552 7.43421 9.1291 7.43421H9.11425C8.97669 7.43487 8.82363 7.46557 8.68904 7.49265C8.58677 7.51312 8.47066 7.5359 8.41721 7.5326C7.94681 7.49694 7.57899 7.20144 7.57569 7.19913C7.52291 7.15521 7.44968 7.14663 7.38766 7.17569C7.32564 7.20474 7.28639 7.26747 7.28639 7.33582V7.34572V8.12096V9.24684C7.28606 9.24717 7.28606 9.2475 7.28606 9.24783L4.95414 15.5815C4.93368 15.6359 4.94193 15.6967 4.97459 15.7442C5.00824 15.7918 5.06234 15.8202 5.12007 15.8202H5.26422V16.2794C5.26422 16.3772 5.34339 16.4564 5.44137 16.4564H5.47238V17.398C5.47238 17.3994 5.47106 17.4007 5.46974 17.4007H5.1933C5.09565 17.4007 5.01648 17.4799 5.01648 17.578V17.6467V18.7947V18.8561C5.01648 18.9541 5.09565 19.0334 5.1933 19.0334H5.46974C5.47106 19.0334 5.47238 19.0344 5.47238 19.036V24.7113C5.47238 24.7126 5.47106 24.7136 5.46974 24.7136H4.91323C4.91158 24.7136 4.91059 24.7126 4.91059 24.7113L4.9482 22.8442L5.11413 22.3205C5.11446 22.3195 5.11512 22.3192 5.11611 22.3192C5.17219 22.3169 5.22398 22.2888 5.25565 22.2423C5.2883 22.1941 5.29556 22.1323 5.27412 22.0779L3.5726 17.75C3.54588 17.6823 3.48089 17.6378 3.40799 17.6378C3.33542 17.6378 3.26977 17.6823 3.24305 17.75L1.54219 22.0779C1.52075 22.1323 1.52767 22.1941 1.56066 22.2423C1.58903 22.2842 1.63357 22.31 1.68305 22.3169C1.68404 22.3169 1.6847 22.3176 1.68503 22.3186L1.86745 22.8462V24.7113C1.86745 24.7126 1.86613 24.7136 1.86514 24.7136H1.54021C1.53889 24.7136 1.53757 24.7149 1.53757 24.7162V25.3195C1.53757 25.3208 1.53658 25.3221 1.53526 25.3221H1.20175C1.2001 25.3221 1.19911 25.3208 1.19911 25.3195V24.7162C1.19911 24.7149 1.19779 24.7136 1.19647 24.7136H0.00263904C0.00098964 24.7136 0 24.7149 0 24.7162V26.2826C0 26.2839 0.00098964 26.2852 0.00263904 26.2852H0.432143C0.433792 26.2852 0.435112 26.2862 0.435112 26.2878V34.5645C0.435112 34.5658 0.436101 34.5672 0.437421 34.5672H5.07817C5.08015 34.5672 5.0818 34.5658 5.08345 34.5658C5.0851 34.5658 5.08675 34.5672 5.08873 34.5672H9.83339V31.2701C9.83339 30.4741 10.7686 29.8286 11.9225 29.8286C13.0764 29.8286 14.012 30.4741 14.012 31.2701V34.5672H19.0865H19.101H23.7316C23.7329 34.5672 23.7342 34.5658 23.7342 34.5645V26.2878C23.7342 26.2862 23.7352 26.2852 23.7365 26.2852H24.164C24.1653 26.2852 24.1667 26.2839 24.1667 26.2826V24.7162C24.1667 24.7149 24.1653 24.7136 24.164 24.7136Z" fill="#2B299B"/>
<path fill-rule="evenodd" clip-rule="evenodd" d="M35.6636 31.0494H34.2517V34.5672H32.2222V25.8358H34.2517V29.3655H35.7142L38.034 25.8358H40.1897L37.3029 30.0514L40.2778 34.5672H37.9586L35.6636 31.0494Z" fill="#2B299B"/>
<path fill-rule="evenodd" clip-rule="evenodd" d="M47.5511 29.2566C47.5511 28.1573 46.8475 27.5152 45.6611 27.5152C44.4228 27.5152 43.706 28.2189 43.706 29.4417V30.4052C44.2272 30.7507 44.918 30.9606 45.6223 30.9606C46.8475 30.9606 47.5511 30.3435 47.5511 29.2566ZM49.6759 29.2196C49.6759 31.2448 48.3202 32.4675 45.987 32.4675C45.2314 32.4675 44.5534 32.3317 43.706 31.9859V34.5672H41.6204V29.4541C41.6204 27.1324 43.0148 25.8358 45.6092 25.8358C48.1641 25.8358 49.6759 27.0832 49.6759 29.2196Z" fill="#2B299B"/>
<path fill-rule="evenodd" clip-rule="evenodd" d="M57.0413 30.9126V29.6864C57.0413 28.227 56.2383 27.5282 55.0336 27.5282C53.8162 27.5282 53.0259 28.227 53.0259 29.6864V30.9126H57.0413ZM59.074 29.8702V34.5672H57.0413V32.507H53.0259V34.5672H51.0185V29.8702C51.0185 27.2581 52.6369 25.8358 55.0463 25.8358C57.4553 25.8358 59.074 27.2581 59.074 29.8702Z" fill="#2B299B"/>
<path fill-rule="evenodd" clip-rule="evenodd" d="M62.8077 24.0248C62.8077 23.5048 63.1725 23.1492 63.6201 23.1492C64.0791 23.1492 64.4445 23.5048 64.4445 24.0248C64.4445 24.5451 64.0791 24.9003 63.6201 24.9003C63.1725 24.9003 62.8077 24.5451 62.8077 24.0248ZM61.4769 34.5671H63.3846V25.6869H61.4769V34.5671ZM60.4167 24.0248C60.4167 23.5048 60.7818 23.1492 61.2413 23.1492C61.7006 23.1492 62.0541 23.5048 62.0541 24.0248C62.0541 24.5451 61.7006 24.9003 61.2413 24.9003C60.7818 24.9003 60.4167 24.5451 60.4167 24.0248Z" fill="#2B299B"/>
<path fill-rule="evenodd" clip-rule="evenodd" d="M73.8426 25.8358V34.5672H71.8099V30.9871H67.8198V34.5672H65.787V25.8358H67.8198V29.2783H71.8099V25.8358H73.8426Z" fill="#2B299B"/>
<path fill-rule="evenodd" clip-rule="evenodd" d="M82.5504 30.9126V29.6864C82.5504 28.227 81.7475 27.5282 80.5429 27.5282C79.3256 27.5282 78.5353 28.227 78.5353 29.6864V30.9126H82.5504ZM84.5833 29.8702V34.5672H82.5504V32.507H78.5353V34.5672H76.5278V29.8702C76.5278 27.2581 78.146 25.8358 80.5552 25.8358C82.9641 25.8358 84.5833 27.2581 84.5833 29.8702Z" fill="#2B299B"/>
<path fill-rule="evenodd" clip-rule="evenodd" d="M94.7376 31.0494H93.3257V34.5672H91.2963V25.8358H93.3257V29.3655H94.7882L97.1077 25.8358H99.2637L96.3766 30.0514L99.3518 34.5672H97.032L94.7376 31.0494Z" fill="#2B299B"/>
<path fill-rule="evenodd" clip-rule="evenodd" d="M106.717 30.9126V29.6864C106.717 28.227 105.914 27.5282 104.71 27.5282C103.492 27.5282 102.702 28.227 102.702 29.6864V30.9126H106.717ZM108.75 29.8702V34.5672H106.717V32.507H102.702V34.5672H100.694V29.8702C100.694 27.2581 102.313 25.8358 104.722 25.8358C107.131 25.8358 108.75 27.2581 108.75 29.8702Z" fill="#2B299B"/>
<path fill-rule="evenodd" clip-rule="evenodd" d="M118.148 32.5484C118.148 34.2561 116.349 35.2388 114.25 35.2388C113.088 35.2388 111.851 34.9416 110.764 34.2949L111.389 32.7944C112.188 33.2988 113.163 33.5314 114.012 33.5314C115.162 33.5314 116.099 33.092 116.099 32.2512C116.099 31.5657 115.499 31.2293 114.587 31.2293H112.451V29.6512H114.437C115.262 29.6512 115.736 29.2763 115.736 28.6812C115.736 27.9442 114.962 27.5562 113.975 27.5562C113.238 27.5562 112.375 27.7631 111.626 28.2025L111.014 26.5728C111.963 26.0688 113.013 25.8358 114.012 25.8358C116.036 25.8358 117.786 26.7931 117.786 28.4355C117.786 29.3151 117.298 30.0137 116.524 30.3628C117.536 30.7249 118.148 31.5269 118.148 32.5484Z" fill="#2B299B"/>
<path fill-rule="evenodd" clip-rule="evenodd" d="M126.876 30.2016C126.876 28.5978 125.723 27.5002 124.19 27.5002C122.656 27.5002 121.503 28.5978 121.503 30.2016C121.503 31.8058 122.656 32.9031 124.19 32.9031C125.723 32.9031 126.876 31.8058 126.876 30.2016ZM119.491 30.2016C119.491 27.6931 121.478 25.8358 124.19 25.8358C126.889 25.8358 128.889 27.6809 128.889 30.2016C128.889 32.7221 126.889 34.5672 124.19 34.5672C121.478 34.5672 119.491 32.7102 119.491 30.2016Z" fill="#2B299B"/>
<mask id="mask0_89_3141" style="mask-type:luminance" maskUnits="userSpaceOnUse" x="131" y="25" width="8" height="10">
<path d="M131.018 25.9003H138.769V34.4214H131.018V25.9003Z" fill="white"/>
</mask>
<g mask="url(#mask0_89_3141)">
<path fill-rule="evenodd" clip-rule="evenodd" d="M134.329 30.9884H132.97V34.4214H131.018V25.9003H132.97V29.3449H134.377L136.609 25.9003H138.683L135.906 30.0143L138.769 34.4214H136.537L134.329 30.9884Z" fill="#2B299B"/>
</g>
</g>
<defs>
<clipPath id="clip0_89_3141">
<rect width="145" height="45" fill="white" transform="translate(0 3)"/>
</clipPath>
</defs>
</svg>
