<svg width="121" height="51" viewBox="0 0 121 51" fill="none" xmlns="http://www.w3.org/2000/svg">
<path d="M36.3173 6H7.74227C5.12319 6 3 8.11647 3 10.7273V39.2119C3 41.8227 5.12319 43.9392 7.74227 43.9392H36.3173C38.9364 43.9392 41.0596 41.8227 41.0596 39.2119V10.7273C41.0596 8.11647 38.9364 6 36.3173 6Z" fill="#0E8AF2"/>
<path d="M53.1144 31.0867C52.0648 31.0867 51.0721 30.9543 50.1362 30.6896C49.2132 30.4249 48.4417 30.0656 47.822 29.6118L48.6756 27.3049C49.2701 27.7209 49.9466 28.0486 50.7053 28.2881C51.4768 28.5277 52.2798 28.6474 53.1144 28.6474C54.0249 28.6474 54.6763 28.5088 55.0682 28.2314C55.473 27.9415 55.6752 27.5822 55.6752 27.1536C55.6752 26.7881 55.5361 26.498 55.2579 26.2838C54.9798 26.0695 54.4929 25.8867 53.7973 25.7354L51.6538 25.2816C49.2637 24.7773 48.0686 23.542 48.0686 21.5754C48.0686 20.7308 48.2962 19.9933 48.7515 19.363C49.2068 18.7201 49.8391 18.2222 50.6484 17.8692C51.4705 17.5163 52.4189 17.3398 53.4938 17.3398C54.417 17.3398 55.2833 17.4721 56.0925 17.7369C56.9019 18.0016 57.5721 18.3735 58.1033 18.8525L57.2497 21.0081C56.2128 20.1888 54.9544 19.779 53.4748 19.779C52.6781 19.779 52.0585 19.9366 51.6158 20.2518C51.186 20.5543 50.9709 20.9514 50.9709 21.443C50.9709 21.8086 51.1037 22.1049 51.3692 22.3318C51.6348 22.5587 52.0965 22.7415 52.754 22.8801L54.8975 23.334C57.3509 23.8634 58.5775 25.0609 58.5775 26.9267C58.5775 27.7587 58.3499 28.4899 57.8946 29.1201C57.452 29.7379 56.8198 30.2231 55.9977 30.5761C55.1884 30.9165 54.2273 31.0867 53.1144 31.0867ZM67.1634 31.0867C65.2665 31.0867 63.8185 30.6013 62.8194 29.6307C61.8331 28.6601 61.3399 27.2166 61.3399 25.3005V17.5478H64.2801V25.3194C64.2801 26.4035 64.5267 27.223 65.0199 27.7776C65.5131 28.3197 66.2276 28.5907 67.1634 28.5907C69.073 28.5907 70.0277 27.5002 70.0277 25.3194V17.5478H72.93V25.3005C72.93 27.2166 72.4432 28.6601 71.4693 29.6307C70.4956 30.6013 69.0603 31.0867 67.1634 31.0867ZM76.4803 30.8787V17.5478H82.6073C84.0364 17.5478 85.1366 17.8566 85.9079 18.4743C86.692 19.0921 87.084 19.9366 87.084 21.0081C87.084 21.714 86.907 22.3255 86.5528 22.8423C86.1988 23.3466 85.7056 23.7248 85.0732 23.9769C85.832 24.1911 86.4138 24.5693 86.8184 25.1114C87.2357 25.6535 87.4444 26.3216 87.4444 27.1158C87.4444 28.3008 87.0271 29.2273 86.1924 29.8954C85.3705 30.551 84.245 30.8787 82.8159 30.8787H76.4803ZM79.2877 23.0314H82.0951C83.5368 23.0314 84.2576 22.4768 84.2576 21.3674C84.2576 20.2707 83.5368 19.7223 82.0951 19.7223H79.2877V23.0314ZM79.2877 28.7041H82.4176C83.1763 28.7041 83.7328 28.5591 84.0869 28.2692C84.441 27.9793 84.618 27.538 84.618 26.9456C84.618 26.3657 84.441 25.9308 84.0869 25.6409C83.7328 25.351 83.1763 25.206 82.4176 25.206H79.2877V28.7041ZM90.6181 30.8787V17.5478H93.5584V30.8787H90.6181ZM101.523 30.8787L95.5103 17.5478H98.6591L102.794 27.1158L106.93 17.5478H109.946L103.933 30.8787H101.523ZM111.91 30.8787V17.5478H114.85V30.8787H111.91Z" fill="#010605"/>
<path d="M17.2268 13.0909H27.3041V16.6364H18.4124C17.8196 16.6364 17.2268 17.2273 17.2268 17.8182V22.5455C17.2268 23.1364 17.8196 23.7273 18.4124 23.7273H26.7113C29.0825 23.7273 30.268 26.0909 30.268 27.8636V33.7727C30.268 35.5455 28.4897 37.3182 26.7113 37.3182H13.6701V34.3636H25.5258C26.1186 34.3636 26.7113 33.7727 26.7113 33.1818V28.4545C26.7113 27.8636 26.1186 27.2727 25.5258 27.2727H17.2268C15.4485 27.2727 13.6701 25.5 13.6701 23.7273V16.6364C13.6701 14.8636 15.4485 13.0909 17.2268 13.0909Z" fill="white"/>
</svg>
