<svg width="129" height="51" viewBox="0 0 129 51" fill="none" xmlns="http://www.w3.org/2000/svg">
<g clip-path="url(#clip0_89_3139)">
<path d="M24.3012 19.4378V17.687C24.3012 14.6879 21.9079 12.257 18.9553 12.257H10.329C7.37637 12.257 4.98306 14.6879 4.98306 17.687V27.4765C4.98306 30.4755 7.37637 32.9065 10.329 32.9065H18.9553C21.9079 32.9065 24.3012 30.4755 24.3012 27.4765V25.7257C24.3012 25.332 24.6148 25.0135 25.0024 25.0135H27.5832C27.9708 25.0135 28.2843 25.332 28.2843 25.7257V28.8848C28.2843 33.457 24.6353 37.1635 20.1322 37.1635H9.15047C4.64904 37.1635 1 33.457 1 28.8848V16.2787C1 11.7064 4.64904 8 9.15047 8H20.1322C24.6353 8 28.2843 11.7064 28.2843 16.2787V19.4378C28.2843 19.8315 27.9708 20.15 27.5832 20.15H25.0024C24.6148 20.15 24.3012 19.8315 24.3012 19.4378Z" fill="#91C03E"/>
<path d="M22.5461 18.9081V26.2554C22.5461 28.8928 20.4411 31.0309 17.8445 31.0309H8.08856C7.54498 31.0309 7.10382 30.5828 7.10382 30.0306V27.7533C7.10382 27.2012 7.54498 26.7531 8.08856 26.7531H16.3919C17.3719 26.7531 18.1675 25.9449 18.1675 24.9495V20.2108C18.1675 19.2154 17.3719 18.4072 16.3919 18.4072H8.08856C7.54498 18.4072 7.10382 17.9591 7.10382 17.4069V15.1296C7.10382 14.5775 7.54498 14.1294 8.08856 14.1294H17.8445C20.4411 14.1294 22.5461 16.2675 22.5461 18.9049V18.9081Z" fill="#9A9A9A"/>
<path d="M55.0959 18.9001V25.8056C55.0959 29.128 52.4442 31.823 49.1717 31.823H34.4999V23.3907H38.6831V28.227H47.1613C49.2332 28.227 50.9127 26.521 50.9127 24.4165V20.2908C50.9127 18.1863 49.2332 16.4803 47.1613 16.4803H38.6831V21.3166H34.4999V12.8827H49.1717C52.4426 12.8827 55.0959 15.5761 55.0959 18.9001Z" fill="#010605"/>
<path d="M79.634 18.3063V31.8214H75.4508V25.5144H64.5494V21.2638H75.4508V19.0729C75.4508 18.0007 74.5953 17.1317 73.5396 17.1317H64.6707C63.6151 17.1317 62.7595 18.0007 62.7595 19.0729V31.8214H58.5748V18.3063C58.5748 15.3104 60.9649 12.8827 63.9144 12.8827H74.2943C77.2438 12.8827 79.634 15.3104 79.634 18.3063Z" fill="#010605"/>
<path d="M129 31.8214H122.967L115.056 24.7702L113.729 23.5875H111.856V31.8214H107.673V12.8827H111.856V20.238H114.106L115.056 19.3914L122.359 12.8827H128.393L118.073 22.0816L129 31.8214Z" fill="#010605"/>
<path d="M10.6473 20.15H8.34853C7.66109 20.15 7.10382 20.716 7.10382 21.4143V23.7492C7.10382 24.4474 7.66109 25.0135 8.34853 25.0135H10.6473C11.3347 25.0135 11.892 24.4474 11.892 23.7492V21.4143C11.892 20.716 11.3347 20.15 10.6473 20.15Z" fill="#91C03E"/>
<path d="M104.676 25.508V27.0204C104.676 29.6722 102.56 31.8215 99.9495 31.8215H88.1027C85.492 31.8215 83.376 29.6722 83.376 27.0204V23.4852H87.66V25.6569C87.66 26.958 88.6983 28.0126 89.9792 28.0126H98.0745C99.3555 28.0126 100.394 26.958 100.394 25.6569V25.508H104.678H104.676Z" fill="#010605"/>
<path d="M104.676 17.6838V19.5626H100.392V19.0473C100.392 17.7462 99.3539 16.6916 98.073 16.6916H89.9776C88.6967 16.6916 87.6584 17.7462 87.6584 19.0473V21.5855H83.3744V17.6838C83.3744 15.032 85.4904 12.8827 88.1011 12.8827H99.9479C102.559 12.8827 104.675 15.032 104.675 17.6838H104.676Z" fill="#010605"/>
<path d="M54.6138 38.2245V39.5512H58.3952V40.6122H54.6138V41.9389H58.3952V43H53.5676V37.1635H58.3952V38.2245H54.6138Z" fill="#0D0F0F"/>
<path d="M41.6799 41.9389V43H34.4999V37.1635H35.5445V41.9389H39.2015V37.1635H40.2461V41.9389H41.6799Z" fill="#0D0F0F"/>
<path d="M77.1808 37.1635V43H76.1346V40.6122H72.3532V43H71.3086V37.1635H72.3532V39.5512H76.1346V37.1635H77.1808Z" fill="#0D0F0F"/>
<path d="M111.842 37.1635H107.673V43H108.718V40.5866H111.842C112.466 40.5866 112.973 40.0713 112.973 39.4376V38.3125C112.973 37.6772 112.466 37.1635 111.842 37.1635ZM112.023 39.2039C112.023 39.476 111.806 39.6968 111.538 39.6968H108.718V38.0517H111.538C111.806 38.0517 112.023 38.2725 112.023 38.5446V39.2039Z" fill="#0D0F0F"/>
<path d="M94.6792 37.1635V38.2245H92.7885V43H91.7439V38.2245H89.8532V37.1635H94.6792Z" fill="#0D0F0F"/>
</g>
<defs>
<clipPath id="clip0_89_3139">
<rect width="128" height="35" fill="white" transform="translate(1 8)"/>
</clipPath>
</defs>
</svg>
