<svg width="100" height="51" viewBox="0 0 100 51" fill="none" xmlns="http://www.w3.org/2000/svg">
<g clip-path="url(#clip0_89_3154)">
<path d="M12.1822 3.89987V15.3864H28.5677V19.1337H12.1822V34.3662H7.64056V0.152588H30.4334V3.89987H12.1822Z" fill="#252528"/>
<path d="M64.4186 0.152588V5.77077C64.3666 7.11792 64.2763 8.43758 64.1408 9.72425C63.9354 11.6914 63.6261 13.5843 63.199 15.3864C62.8897 16.6855 62.5201 17.9364 62.0821 19.1337C61.5894 20.4809 61.0117 21.7606 60.3397 22.9621C56.4209 29.9714 49.3087 34.3662 37.3279 34.3662H32.7849V0.152588H37.3279V33.6843C46.8039 33.0451 53.1112 28.5816 55.5654 22.9621C56.102 21.7332 56.4537 20.4465 56.6139 19.1337C56.7658 17.902 56.7466 16.6442 56.5537 15.3864C56.2594 13.4743 55.5613 11.5594 54.4362 9.72425C53.1605 7.64166 51.3373 5.6608 48.9364 3.89987C47.0119 2.48949 44.7151 1.21931 42.0323 0.152588H49.3115C51.1538 1.3554 52.8032 2.60221 54.2322 3.89987C56.2539 5.73503 57.8335 7.67053 58.8874 9.72425C59.6526 11.2144 60.1412 12.7663 60.3233 14.3884C60.4793 12.8818 60.2972 11.3065 59.7976 9.72425C59.1749 7.75301 58.0566 5.77077 56.4784 3.89987C55.3683 2.58159 54.0296 1.31966 52.4747 0.152588H57.4338C58.3372 1.0791 59.4021 1.78567 60.289 3.89987C60.5395 4.50059 60.7777 5.21541 60.9926 6.08006C61.15 5.55082 61.1404 4.75078 61.0049 3.89987C60.7736 2.44137 60.1672 0.828914 59.3802 0.152588H64.4186Z" fill="#B8252F"/>
<path d="M64.4652 3.89987H64.4186" stroke="#B8252F" stroke-miterlimit="10"/>
<path d="M92.484 24.4192C92.484 29.992 86.5462 34.5105 79.2219 34.5105C71.8976 34.5105 65.9599 29.992 65.9599 24.4192C65.9599 23.9243 66.0064 23.4377 66.0981 22.9621H70.9559C70.9559 23.4762 70.9614 24.0371 70.9614 24.5993C70.9614 27.8105 74.3915 30.3948 79.0399 30.3948C83.6882 30.3948 87.4551 27.7926 87.4551 24.5814C87.4551 21.3702 83.8032 18.8478 79.2575 18.768H79.2274C79.1644 18.768 79.1029 18.768 79.0399 18.7667C76.0313 18.7309 73.2924 17.8347 71.2064 16.3775C68.7454 14.6606 67.1973 12.1629 67.1973 9.38471C67.1973 4.20229 72.5834 0 79.2274 0C85.8714 0 91.2576 4.20229 91.2576 9.38471C91.2576 9.4988 91.2548 9.61153 91.2493 9.72425H86.9158C86.9158 9.33935 86.9186 9.10016 86.9227 8.92833C86.9925 6.04982 83.5733 3.89987 79.3848 3.89987C75.1964 3.89987 71.8005 6.23402 71.8005 9.1139C71.8005 11.9938 75.091 14.2551 79.1891 14.3266H79.2219C79.2781 14.3266 79.3342 14.3266 79.3889 14.3279C82.3386 14.3554 85.057 15.1156 87.2429 16.3817C90.4281 18.2251 92.484 21.1393 92.484 24.4192Z" fill="#252528"/>
<path d="M26.1327 40.1768H23.4677L20.0909 50H22.307L23.0324 47.7593H26.5639L27.2879 50H29.504L26.1327 40.1768ZM23.558 46.1386L24.7626 42.4216H24.8378L26.0396 46.1386H23.558Z" fill="#252528"/>
<path d="M39.4112 46.184C39.4426 46.1702 39.4714 46.1565 39.5015 46.1427C40.0326 45.8939 40.4377 45.5351 40.717 45.0664C40.9976 44.5976 41.1372 44.0381 41.1372 43.3852C41.1372 42.7322 41.0003 42.1714 40.7252 41.6889C40.4487 41.2077 40.049 40.8352 39.5261 40.5713C39.0019 40.3087 38.3709 40.1768 37.6318 40.1768H33.7732V50H35.8414V46.518H37.3512L39.2031 50H41.4862L39.4112 46.184ZM37.2458 44.8478H35.8414V41.8744H37.2362C37.6331 41.8744 37.9644 41.9322 38.2272 42.049C38.49 42.1659 38.6857 42.3363 38.8144 42.5604C38.943 42.7845 39.0074 43.0594 39.0074 43.3852C39.0074 43.711 38.943 43.9777 38.8144 44.1962C38.6857 44.4134 38.49 44.577 38.2285 44.6856C37.9685 44.7942 37.64 44.8478 37.2458 44.8478Z" fill="#252528"/>
<path d="M49.1595 50H45.6924V40.1768H49.1883C50.1724 40.1768 51.0183 40.372 51.7287 40.7637C52.4391 41.1555 52.9853 41.7177 53.3699 42.4504C53.7545 43.1831 53.9461 44.0588 53.9461 45.0787C53.9461 46.0987 53.7545 46.9813 53.3699 47.7167C52.9853 48.4521 52.4364 49.0171 51.7219 49.4103C51.0074 49.8034 50.1533 50 49.1595 50ZM47.7607 48.2198H49.0747C49.6865 48.2198 50.2012 48.1098 50.62 47.8913C51.0389 47.6727 51.3537 47.3318 51.5658 46.8699C51.778 46.408 51.8834 45.8101 51.8834 45.0787C51.8834 44.3474 51.778 43.7591 51.5658 43.2986C51.3537 42.8381 51.0389 42.4985 50.6228 42.2813C50.2053 42.0641 49.692 41.9556 49.0802 41.9556H47.762V48.2198H47.7607Z" fill="#252528"/>
<path d="M57.9936 40.1768H60.3096L62.5407 44.4079H62.6365L64.8676 40.1768H67.1835L63.6151 46.5276V50H61.562V46.5276L57.9936 40.1768Z" fill="#252528"/>
<path d="M79.586 40.1768V50H77.7998L73.5442 43.8168H73.4731V50H71.4048V40.1768H73.2198L77.4425 46.3544H77.5287V40.1768H79.5874H79.586Z" fill="#252528"/>
<path d="M83.8114 40.1768H86.1274L88.3585 44.4079H88.4543L90.6854 40.1768H93.0013L89.433 46.5276V50H87.3798V46.5276L83.8114 40.1768Z" fill="#252528"/>
<path d="M16.7812 45.0719C16.7826 45.5338 16.721 45.9819 16.6047 46.408C16.0407 48.4439 14.2011 49.9546 11.9905 49.9986C9.28994 50.0536 7.05748 47.8995 6.99999 45.1887C6.94524 42.4766 9.0901 40.2318 11.7907 40.1768C13.9657 40.1328 15.8382 41.5225 16.513 43.4814L14.2203 43.513C13.7056 42.7446 12.8241 42.247 11.8331 42.2662C10.2823 42.2992 9.04904 43.5873 9.08189 45.1447C9.11337 46.7036 10.3959 47.9408 11.9481 47.9078C12.9897 47.8872 13.889 47.2961 14.3558 46.4383L11.5019 46.4781L11.469 44.8849H11.495L14.687 44.8396L16.7717 44.8107C16.7758 44.8698 16.7771 44.9275 16.7785 44.9867C16.7799 45.0155 16.7799 45.043 16.7799 45.0719H16.7812Z" fill="#252528"/>
</g>
<defs>
<clipPath id="clip0_89_3154">
<rect width="86" height="50" fill="white" transform="translate(7)"/>
</clipPath>
</defs>
</svg>
