<svg width="100" height="51" viewBox="0 0 100 51" fill="none" xmlns="http://www.w3.org/2000/svg">
<path fill-rule="evenodd" clip-rule="evenodd" d="M17.5 48C27.165 48 35 38.1503 35 26C35 13.8497 27.165 4 17.5 4C7.83511 4 0 13.8497 0 26C0 38.1503 7.83511 48 17.5 48ZM9.69835 34.835C5.00148 34.835 1.0494 29.454 1.0494 24.0806C1.0494 18.7072 5.04806 13.326 9.74484 13.326H11.6582C11.6935 7.23432 14.3011 4.70968 17.5127 4.70968C20.7244 4.70968 23.332 7.23432 23.3673 13.326H25.2806C29.9773 13.326 33.976 18.7072 33.976 24.0806C33.976 29.454 29.9651 34.8423 25.2682 34.8423L25.8025 34.8352C25.8025 41.5614 22.091 47.288 17.5127 47.288C12.9345 47.288 9.2231 41.5615 9.2231 34.8351L9.69835 34.835Z" fill="black"/>
<path d="M9.00299 39.314L8.64762 40.2831L8.00024 40.0185L8 39.2993L9.00299 39.314ZM14.2562 40.7216C12.92 41.1455 11.4947 41.0107 10.4697 40.8069C10.0341 40.7201 9.60342 40.6084 9.1797 40.4723C9.05278 40.4316 8.9266 40.3881 8.8013 40.3421C8.75062 40.3234 8.70017 40.304 8.64998 40.2841L8.64867 40.2836C8.64851 40.2835 8.64827 40.2834 8.6481 40.2833C8.64786 40.2831 8.64762 40.283 9.00299 39.314C9.35837 38.345 9.35812 38.345 9.35796 38.3449L9.35763 38.3447L9.35707 38.3445L9.35666 38.3444L9.35886 38.3451L9.37431 38.3513C9.38953 38.3572 9.41426 38.3666 9.44778 38.3791C9.51506 38.4039 9.61717 38.4401 9.74799 38.4823C10.0106 38.5668 10.3837 38.6735 10.8189 38.76C11.7126 38.9376 12.7612 39.0078 13.645 38.7275L14.2562 40.7216ZM8 39.2993L8.00008 35.0727L10.0061 35.1022L10.0061 39.3288L8 39.2993ZM25 13.1661C24.8966 14.8086 24.569 18.1811 23.9848 21.8486C23.4033 25.4992 22.5546 29.5282 21.3862 32.4357L19.5334 31.6091C20.6093 28.9313 21.4292 25.0983 22.0056 21.4793C22.5794 17.8774 22.8992 14.5727 22.9982 13L25 13.1661ZM21.3862 32.4357C19.2738 37.693 16.855 39.8971 14.2562 40.7216L13.645 38.7275C15.4861 38.1433 17.5539 36.5357 19.5334 31.6091L21.3862 32.4357Z" fill="black"/>
<path d="M26.6909 38.9702L27.0631 39.9331L27.7413 39.6703L27.7417 38.9556L26.6909 38.9702ZM21.1861 40.3689C22.5863 40.7902 24.0797 40.656 25.1539 40.4536C25.7033 40.35 26.1722 40.2228 26.5056 40.121C26.6387 40.0806 26.7709 40.0374 26.9023 39.9917C26.9542 39.9735 27.0058 39.9548 27.0573 39.9353L27.0608 39.934L27.0631 39.9331C27.0631 39.9331 27.0631 39.9332 26.6909 38.9702C26.3187 38.0073 26.3193 38.0071 26.3193 38.0071C26.3164 38.0081 26.3102 38.0106 26.3023 38.0135C26.2766 38.0229 26.2509 38.0321 26.2251 38.0411C26.1546 38.0658 26.0476 38.1018 25.9104 38.1436C25.5418 38.2559 25.1671 38.348 24.7882 38.4197C23.8514 38.5962 22.7525 38.6661 21.8262 38.3875L21.1861 40.3689ZM27.7417 38.9556L27.7434 34.7558L25.642 34.785L25.6404 38.9849L27.7417 38.9556ZM10 13.1651C10.1081 14.7937 10.4328 18.0997 11.0271 21.7013C11.6186 25.2858 12.4897 29.2458 13.7144 32.1359L15.6553 31.3144C14.5282 28.6547 13.6873 24.8908 13.1014 21.3401C12.5183 17.8066 12.2009 14.5662 12.0969 13L10 13.1651ZM13.7144 32.1359C15.9281 37.3599 18.463 39.5498 21.1861 40.3689L21.8262 38.3875C19.8966 37.807 17.7298 36.2095 15.6553 31.3144L13.7144 32.1359ZM41.8375 30.4664C41.4184 30.4664 40.9943 30.4174 40.5652 30.3193C40.1361 30.2113 39.7769 30.0346 39.4875 29.7893L40.161 28.2732C40.3406 28.4792 40.5403 28.6363 40.7598 28.7442C40.9893 28.8423 41.2687 28.8914 41.598 28.8914C41.9074 28.8914 42.1568 28.8374 42.3464 28.7295C42.536 28.6215 42.6757 28.4253 42.7655 28.1407C42.8654 27.8561 42.9152 27.4488 42.9152 26.9189V19.5H44.5767V27.3311C44.5767 28.4301 44.3222 29.23 43.8133 29.7304C43.3144 30.2211 42.6558 30.4664 41.8375 30.4664ZM52.931 19.4999L58.2298 30.3339H56.2989L55.3559 28.2143H50.3115L49.3686 30.3339H47.4975L52.7664 19.4999H52.931ZM52.1826 24.1074L50.9851 26.7276H54.6972L53.5148 24.122L52.8711 22.6353H52.8412L52.1826 24.1074ZM62.61 20.9424H59.796V19.4999H67.1154V20.9424H64.2715V30.3193H62.61V20.9424ZM74.4786 30.4664C73.1016 30.4664 72.1037 30.0592 71.485 29.2447C70.8664 28.4302 70.557 27.2476 70.557 25.6972V19.4999H72.2334V25.7265C72.2334 26.8746 72.4081 27.699 72.7573 28.1995C73.1066 28.6901 73.6804 28.9355 74.4786 28.9355C75.277 28.9355 75.8458 28.695 76.1851 28.2143C76.5343 27.7235 76.7089 26.8943 76.7089 25.7265V19.4999H78.4003V25.6971C78.4003 27.2377 78.071 28.4203 77.4125 29.2446C76.7639 30.0591 75.7859 30.4664 74.4786 30.4664ZM86.6705 19.4999L91.9693 30.3339H90.0384L89.0954 28.2143H84.0511L83.108 30.3339H81.237L86.5059 19.4999H86.6705ZM85.9221 24.1074L84.7247 26.7276H88.4368L87.2543 24.1221L86.6106 22.6353H86.5807L85.9221 24.1074ZM97.65 30.4664C98.0691 30.4664 98.4932 30.4174 98.9223 30.3193C99.3514 30.2113 99.7106 30.0346 100 29.7893L99.3264 28.2732C99.1468 28.4792 98.9473 28.6363 98.7277 28.7442C98.4983 28.8423 98.2188 28.8914 97.8895 28.8914C97.5802 28.8914 97.3307 28.8374 97.1411 28.7295C96.9514 28.6215 96.8118 28.4253 96.7219 28.1407C96.6222 27.8561 96.5723 27.4488 96.5723 26.9189V19.5H94.9108V27.3311C94.9108 28.4301 95.1652 29.23 95.6742 29.7304C96.1731 30.2211 96.8317 30.4664 97.65 30.4664ZM59.9319 33.7347H60.7183C61.1617 33.7347 61.4854 33.8285 61.6893 34.0163C61.8964 34.2009 61.9999 34.4555 61.9999 34.7802C61.9999 35.1557 61.8883 35.4438 61.665 35.6443C61.4417 35.8448 61.11 35.945 60.6697 35.945H60.4804V37.2436H59.9319V33.7347ZM60.6843 35.4724C60.9692 35.4724 61.1682 35.4104 61.2814 35.2862C61.3947 35.1621 61.4514 35.0125 61.4514 34.8375C61.4514 34.6497 61.3963 34.4969 61.2863 34.3792C61.1763 34.2614 60.9918 34.2025 60.7329 34.2025H60.4804V35.4724H60.6843ZM65.4883 33.7299L67.2069 37.2436H66.5806L66.2748 36.5561H64.6388L64.333 37.2436H63.7261L65.435 33.7299H65.4883ZM65.2456 35.2242L64.8573 36.0739H66.0612L65.6777 35.229L65.469 34.7468H65.4593L65.2456 35.2242ZM71.2294 37.2436L70.5109 35.9164C70.362 35.9227 70.2293 35.9259 70.1128 35.9259H69.9768V37.2436H69.4476V33.7347H70.2584C70.6694 33.7347 71.0076 33.819 71.273 33.9877C71.5384 34.1532 71.6711 34.4238 71.6711 34.7993C71.6711 35.0348 71.6144 35.2385 71.5011 35.4104C71.3911 35.579 71.2261 35.7096 71.006 35.8018L71.8555 37.2436H71.2294ZM70.3215 35.4915C70.6386 35.4915 70.8555 35.4247 70.972 35.291C71.0918 35.1542 71.1516 34.9918 71.1516 34.804C71.1516 34.3871 70.8685 34.1786 70.3021 34.1786H69.9768V35.4915H70.3215ZM74.4156 33.7347H74.9592V37.2436H74.4156V33.7347ZM78.5417 37.2914C78.3475 37.2914 78.155 37.2579 77.964 37.1911C77.7731 37.1243 77.6355 37.0494 77.5514 36.9667L77.8087 36.5132C77.8766 36.5736 77.9818 36.6373 78.1242 36.7042C78.2699 36.7678 78.409 36.7996 78.5417 36.7996C78.7132 36.7996 78.8524 36.7598 78.9592 36.6803C79.0692 36.6007 79.1243 36.4909 79.1243 36.3509C79.1243 36.2426 79.0951 36.1488 79.0368 36.0691C78.9786 35.9896 78.9074 35.9243 78.8232 35.8735C78.7391 35.8193 78.6194 35.7541 78.464 35.6777C78.2796 35.5886 78.1534 35.5218 78.0853 35.4772C77.7714 35.2703 77.6144 34.9839 77.6144 34.6178C77.6144 34.3155 77.7164 34.0848 77.9203 33.9257C78.1242 33.7633 78.3815 33.6821 78.6922 33.6821C79.0255 33.6821 79.3087 33.776 79.5417 33.9638L79.2844 34.3983C79.223 34.3346 79.1355 34.2805 79.0223 34.236C78.9122 34.1882 78.7941 34.1643 78.6679 34.1643C78.5061 34.1643 78.3783 34.2009 78.2844 34.2741C78.1937 34.3441 78.1485 34.4491 78.1485 34.5893C78.1485 34.6879 78.1776 34.777 78.2359 34.8566C78.2941 34.9329 78.3669 34.9998 78.4543 35.0571C78.5449 35.1143 78.6663 35.1844 78.8184 35.2671C78.964 35.3467 79.0757 35.4104 79.1533 35.4581C79.2311 35.5027 79.3039 35.5568 79.3718 35.6204C79.4657 35.7032 79.5417 35.8018 79.6 35.9164C79.6582 36.031 79.6874 36.1567 79.6874 36.2936C79.6874 36.5068 79.6372 36.6883 79.5369 36.8378C79.4398 36.9874 79.3039 37.1004 79.1291 37.1768C78.9576 37.2531 78.7618 37.2914 78.5417 37.2914Z" fill="black"/>
</svg>
