<svg width="151" height="51" viewBox="0 0 151 51" fill="none" xmlns="http://www.w3.org/2000/svg">
<g clip-path="url(#clip0_89_3146)">
<path d="M18.9032 13H0.0501099V47.2726H18.9032V13Z" fill="#DB2C27"/>
<mask id="mask0_89_3146" style="mask-type:luminance" maskUnits="userSpaceOnUse" x="0" y="13" width="19" height="35">
<path d="M18.9032 13H0.0501099V47.2726H18.9032V13Z" fill="white"/>
</mask>
<g mask="url(#mask0_89_3146)">
<path d="M19.2416 28.7704C19.2416 28.7704 19.0599 29.6288 18.0574 29.5912C16.5348 29.5285 14.1163 30.0486 13.377 30.1363C12.1991 30.2804 11.9422 27.8494 12.7379 27.6301C13.5399 27.4108 13.7592 26.8093 13.7404 25.1489C13.7279 24.3219 13.9409 23.8707 14.1539 23.6327C14.4296 23.3194 14.6301 22.956 14.6614 22.5424C14.7742 21.1327 14.8494 18.3946 13.7404 18.2317C13.7404 15.9824 12.8695 16.3145 11.9108 15.5313C11.7605 13.6704 10.382 13 8.70288 13C7.02371 13 6.60392 13.9398 5.93977 15.8007C4.59267 15.9511 5.19417 18.4448 5.21923 19.8545C3.6591 19.8232 3.45234 20.0926 3.33329 21.9785C1.95487 21.8282 2.61276 25.7629 2.61276 25.7629C4.05383 33.3756 1.67919 37.1663 -2.78816 38.8705C-2.78816 38.8705 -4.55504 40.0108 -0.0877004 39.591C3.64657 39.2339 4.8057 32.11 5.08765 29.7854C5.13778 29.3656 5.47612 29.0398 5.90217 29.0085C6.40969 28.9772 6.84201 29.3782 6.84201 29.8857C6.88587 34.6287 5.93977 41.2263 5.93977 41.2263C5.93977 41.2263 5.66408 40.2677 4.74305 40.2677C3.82201 40.2677 3.13906 40.5497 3.13906 41.9845C2.58143 42.1474 2.46238 42.5045 2.45612 43.9456C2.44359 45.3867 4.34205 47.2726 6.62271 47.2726C8.90338 47.2726 8.65902 45.6248 8.65902 45.6248C8.65902 45.6248 13.0762 46.1448 15.2065 45.9631C15.8456 45.9067 16.3657 45.4243 16.5223 44.7977C18.2203 37.749 14.6614 33.6262 14.6426 32.4483C14.6238 31.615 17.0925 30.8756 18.3769 31.0385C18.4646 31.0511 18.5586 31.0573 18.6463 31.0573C19.2165 31.0573 19.7679 30.8193 20.1626 30.3995L19.2416 28.7704ZM12.6878 42.8554H9.12267C9.12267 42.8554 11.372 39.3467 11.253 37.9056C11.253 37.9056 13.3206 41.0572 12.6878 42.8554Z" fill="white"/>
</g>
<path d="M49.8551 22.7931H45.8138V37.0284H49.8551V22.7931Z" fill="black"/>
<path d="M71.0891 34.3718V37.0284H56.8537V22.7931H60.8887V34.3718H71.0891Z" fill="black"/>
<path d="M132.999 22.7931V37.0284H128.958L119.679 28.7516V37.0284H115.643V22.7931H119.679L128.958 31.0699V22.7931H132.999Z" fill="black"/>
<path d="M89.8857 34.3718V37.0284H75.6504V22.7931H79.6854V34.3718H89.8857Z" fill="black"/>
<path d="M98.645 25.4497V28.5825H105.161V31.2391H98.645V34.3718H109.66V37.0284H94.6038V22.7931H109.66V25.4497H98.645Z" fill="black"/>
<path d="M41.572 37.0284H35.7701L28.5835 31.9659L28.0196 31.5711V37.0284H23.9783V22.7931H28.0196V28.2379L28.5459 27.8557L35.4568 22.7931H41.1146L31.4281 29.8857L41.572 37.0284Z" fill="black"/>
<path d="M146.758 23.1377H150.793V18.8207C150.135 18.7079 149.465 18.6516 148.776 18.6516C148.087 18.6516 147.416 18.7079 146.758 18.8207C142.059 19.5851 138.243 22.9873 136.89 27.4672C136.545 28.6075 136.357 29.8168 136.357 31.0699C136.357 31.214 136.357 31.3644 136.37 31.5085C136.47 34.5097 137.642 37.2415 139.503 39.3342L142.692 36.5335C141.476 35.1864 140.706 33.4383 140.605 31.5085H146.758V36.9658H150.793V24.1903H146.758V27.4672H141.433C142.473 25.3369 144.415 23.7329 146.758 23.1377Z" fill="black"/>
</g>
<defs>
<clipPath id="clip0_89_3146">
<rect width="151" height="34.4606" fill="white" transform="translate(0 13)"/>
</clipPath>
</defs>
</svg>
