<svg width="180" height="51" viewBox="0 0 180 51" fill="none" xmlns="http://www.w3.org/2000/svg">
<path d="M0 17.1232C0 11.9911 4.16206 7.83066 9.29622 7.83066H25.5646C30.6988 7.83066 34.8608 11.9911 34.8608 17.1232V33.385C34.8608 38.5171 30.6988 42.6775 25.5646 42.6775H9.29622C4.16206 42.6775 0 38.5171 0 33.385V17.1232Z" fill="#FFF622"/>
<path fill-rule="evenodd" clip-rule="evenodd" d="M17.0373 32.9551C14.4227 33.1523 12.1363 32.7034 10.5228 30.939C10.3889 30.9772 10.2549 31.0155 10.1195 31.0537C11.3664 33.2701 13.8603 33.9396 17.2685 33.4746C17.1905 33.301 17.114 33.1287 17.0373 32.9551ZM5.55412 28.9773L6.25484 29.1451C6.10915 28.9066 5.84269 28.683 5.79846 28.4328C5.75282 28.1871 5.98549 27.9192 6.19455 27.8221C6.40799 27.722 6.60967 27.8103 6.82172 27.9751L7.23535 27.641L5.95898 27.0112L4.9682 28.2121L5.55412 28.9773ZM9.25378 27.1569C8.4882 25.987 8.77678 23.7972 9.75431 23.8722C9.54973 23.4896 8.99171 23.8679 8.65013 24.3313C8.09809 25.0805 8.41755 26.2151 8.98145 26.8494C9.07272 26.9524 9.16251 27.054 9.25378 27.1569ZM9.70428 19.2484C10.0179 20.9613 11.2692 21.7281 12.8328 22.1872C13.538 22.3947 14.3314 22.5169 15.228 22.5345C15.3149 22.4242 15.4061 22.3167 15.5004 22.2152C11.7153 21.6177 9.58501 20.1608 9.96187 17.4015C9.67628 18.0167 9.59238 18.6318 9.70428 19.2484ZM17.9046 24.4094C18.885 26.6478 20.369 27.9928 22.2711 28.5888C22.1915 28.7949 22.1106 28.9994 22.0311 29.204C19.5608 29.6381 17.0904 28.5859 14.6185 27.2938C17.9663 29.7279 20.5015 30.2223 22.6391 29.7705C22.7216 29.7145 22.8069 29.6572 22.8923 29.5998C22.9969 29.435 23.493 28.2886 23.493 28.2827C22.4168 28.1326 21.3568 27.7014 20.3866 27.0775C20.1143 26.9023 19.8552 26.7095 19.6079 26.4991C19.6049 26.4962 19.6005 26.4932 19.5961 26.4888C19.1073 26.0709 18.6671 25.5823 18.2814 25.0157C18.1489 24.8229 18.0237 24.6198 17.9046 24.4094ZM22.1563 32.2782L21.2965 31.8264C22.0679 31.8631 22.9454 31.8882 23.6506 31.8735C24.2247 31.8617 25.7116 31.9603 25.3672 30.9729L25.4069 30.6579L26.3079 31.0111L25.8722 32.0839L23.6049 32.5342L22.1563 32.2782ZM17.4584 33.195L17.1125 32.6108C18.2328 33.0875 19.3502 33.5408 20.4368 33.8013C20.6252 33.8469 21.8279 34.1677 22.383 34.0323C22.6229 33.9735 22.7613 33.7307 22.6229 33.5158C22.5861 33.4584 22.5287 33.3951 22.4581 33.3245L22.0826 32.7888L23.1485 33.2686L23.2972 34.0647L22.698 34.6652L21.4217 34.7549L17.4584 33.195Z" fill="white"/>
<path fill-rule="evenodd" clip-rule="evenodd" d="M17.593 25.7697L17.4237 25.9552C17.0556 26.3569 17.0836 26.9868 17.4869 27.3531C17.8889 27.7211 18.519 27.6931 18.8856 27.2914L19.6085 26.4996C19.6055 26.4967 19.6011 26.4937 19.5967 26.4893C19.1078 26.0714 18.6677 25.5828 18.282 25.0163L17.593 25.7697Z" fill="#FF0000"/>
<path fill-rule="evenodd" clip-rule="evenodd" d="M21.8519 31.1986C22.1846 30.919 22.6086 30.6645 23.0944 30.429C23.0871 30.588 23.2519 30.7013 23.5361 30.7822C24.094 30.9412 25.5088 30.8823 25.7385 31.0853C25.977 31.2973 25.9564 31.7402 25.6472 31.9374C25.1099 32.2818 23.9527 32.2655 23.3329 32.2303C22.666 32.192 21.9697 32.0845 21.2482 31.9138C21.3837 31.6563 21.5898 31.4194 21.8519 31.1986ZM20.0028 22.0701C19.5803 22.0701 19.2372 22.4131 19.2372 22.8354C19.2372 23.2578 19.5803 23.6007 20.0028 23.6007C20.4076 23.6007 20.7389 23.2872 20.7669 22.8884C20.6771 22.9502 20.5696 22.9855 20.4533 22.9855C20.1471 22.9855 19.8982 22.7368 19.8982 22.4307C19.8982 22.2924 19.9484 22.1673 20.0308 22.0716L20.0028 22.0701ZM19.9778 21.5698C20.44 21.5698 20.8479 21.8141 21.0834 22.1835C21.0083 21.5846 20.4959 21.1195 19.8747 21.1195C19.2019 21.1195 18.6557 21.6654 18.6557 22.338C18.6557 22.4351 18.6675 22.5293 18.6895 22.6206C18.8236 22.0186 19.3491 21.5698 19.9778 21.5698ZM24.1898 21.6154C24.4297 21.6154 24.6255 21.8097 24.6255 22.0496C24.6255 22.2909 24.4297 22.4852 24.1898 22.4852C23.9497 22.4852 23.754 22.2909 23.754 22.0496C23.754 21.8097 23.9497 21.6154 24.1898 21.6154ZM25.4058 23.1901C25.6458 23.1901 25.8415 23.3858 25.8415 23.6257C25.8415 23.8655 25.6458 24.0613 25.4058 24.0613C25.1658 24.0613 24.97 23.8655 24.97 23.6257C24.97 23.3858 25.1658 23.1901 25.4058 23.1901ZM23.3344 23.4315C23.5744 23.4315 23.7687 23.6257 23.7687 23.8655C23.7687 24.1069 23.5744 24.3011 23.3344 24.3011C23.0929 24.3011 22.8986 24.1069 22.8986 23.8655C22.8986 23.6257 23.0929 23.4315 23.3344 23.4315ZM22.6395 29.7712C20.5018 30.223 17.9667 29.7286 14.6189 27.2945C14.7543 26.9839 14.8501 26.6204 14.906 26.2143C14.9855 25.6242 14.8397 24.1966 15.3771 22.9723C15.4286 22.856 15.486 22.7413 15.5508 22.6294C15.7452 22.2909 16.0057 21.9142 16.3458 21.4888C15.9527 21.7523 15.5567 22.1172 15.2284 22.5352C14.3318 22.5176 13.5382 22.3953 12.8331 22.1879C11.2696 21.7288 10.0182 20.962 9.70464 19.2491C9.59274 18.6324 9.67664 18.0174 9.96232 17.4022C11.6273 18.6958 14.1125 20.4911 16.5357 20.7045C18.7794 20.9017 22.4908 20.1939 24.8242 19.9231C25.5251 22.2395 26.7558 23.8405 29.2984 23.6743C28.9435 24.8678 28.39 25.7552 27.6744 26.3982C25.7724 28.1053 22.9207 28.0405 20.7565 26.8883C19.617 26.2835 18.7868 25.3622 18.2185 24.2394C18.4643 24.129 18.7249 24.0392 18.9692 23.9288C17.6944 23.8833 17.6148 24.0804 17.2777 25.2062C17.4868 24.9413 17.6958 24.6749 17.9049 24.4101C18.0241 24.6205 18.1492 24.8236 18.2818 25.0164C18.6675 25.5829 19.1076 26.0715 19.5964 26.4895C19.6009 26.4939 19.6053 26.4968 19.6083 26.4997C19.8556 26.7102 20.1147 26.9029 20.387 27.0781C21.3573 27.7021 22.4172 28.1333 23.4934 28.2834C23.4934 28.2893 22.9972 29.4357 22.8927 29.6005C22.8073 29.6578 22.7219 29.7152 22.6395 29.7712ZM14.2038 27.9508C15.6097 29.6285 18.2346 30.4201 21.0952 31.0398C20.861 31.2944 20.6608 31.5651 20.4959 31.8609C19.9586 31.7078 19.4198 31.5547 18.8824 31.4003C19.8894 32.2141 20.4857 32.6938 22.2405 33.2133C22.5659 33.309 22.9914 33.3208 23.0282 33.7461C23.065 34.1949 22.6749 34.3936 22.2906 34.4362C21.3484 34.5392 19.6994 34.0036 18.8456 33.6327C18.0595 33.2899 17.3969 32.8822 16.8066 32.4377C16.9612 32.7836 17.1143 33.1294 17.2689 33.4752C13.8607 33.9403 11.3667 33.2707 10.1198 31.0544C10.3892 30.9779 10.6587 30.9014 10.9266 30.8249C8.98769 30.8513 7.26222 29.9993 5.85622 28.8293C5.37632 28.4305 5.40432 28.1509 5.59275 27.9052C5.76942 27.6741 6.08739 27.4637 6.2552 27.5063C6.37746 27.5373 6.51437 27.6065 6.66155 27.7123C6.95162 27.9169 7.24309 28.12 7.53455 28.3231C7.79811 28.5085 8.11021 28.7146 8.45179 28.6424C8.58572 28.6145 8.69762 28.5438 8.79478 28.4526C8.87868 28.3731 9.3807 27.7462 9.41467 27.6343C9.45293 27.5122 9.43231 27.3577 9.25414 27.1575C9.16287 27.0546 9.07308 26.953 8.98181 26.85C8.41791 26.2157 8.09845 25.0811 8.65049 24.3321C9.09072 23.7361 9.88869 23.2784 9.8298 24.4086C9.77679 25.4092 9.76792 26.0259 10.4452 26.8898C11.2622 27.9331 13.0996 29.1531 14.2038 27.9508ZM24.3487 28.3437C24.1191 28.7307 23.5449 29.4269 23.4786 29.8227C23.4331 30.0861 23.5464 30.2554 23.9556 30.248C24.6299 30.3157 25.3263 30.2126 25.871 30.4379C26.7779 30.8087 26.6336 31.8447 26.0286 32.3465C25.5162 32.7703 24.5548 32.7703 23.916 32.7718C23.14 32.7718 22.3407 32.6908 21.6002 32.5275C22.4967 32.7689 23.118 32.9484 23.3373 33.231C23.8158 33.8461 23.4757 34.8689 22.5791 35.0337C21.0672 35.3133 19.14 34.4495 17.7296 33.9358C14.7603 34.7115 11.1415 34.3568 9.54412 31.4003C8.77126 31.2443 8.07782 31.0103 7.44477 30.7145C6.63654 30.3378 5.92696 29.8609 5.27767 29.3267C4.40905 28.5512 4.54457 28.067 5.04798 27.4828C5.30417 27.1531 5.57949 26.9457 5.87684 26.8706C6.15804 26.7984 6.45697 26.8456 6.77644 27.0208C7.27696 27.3666 7.77609 27.7123 8.27512 28.0583C8.41353 28.2039 8.8154 27.6873 8.73738 27.5976C8.01305 26.7543 7.54342 25.8847 7.73633 24.9443C7.8864 24.2055 8.45179 23.3858 9.19674 23.1518C10.5144 22.7339 10.3509 23.7728 10.3612 24.6808C10.376 25.9597 10.5511 26.4601 11.6671 27.3092C13.6281 28.8043 14.133 27.1355 14.2714 25.4078C14.3303 24.828 14.4083 24.3071 14.5202 23.8847C14.5998 23.5845 14.7352 23.2857 14.906 23.0017C13.6561 23.04 12.5077 22.8663 11.5051 22.3925C9.69727 21.536 8.62548 19.9319 9.11863 17.904C9.24826 17.3727 9.53096 16.9239 10.0226 16.5913C12.6976 18.7825 15.196 20.0938 17.4691 20.2836C15.561 19.3447 14.6719 18.0203 15.7275 15.9615C17.0745 17.5935 18.7941 18.7914 20.6211 19.8628C23.4242 19.6332 26.2259 19.4036 29.0289 19.1726C29.5722 20.0276 29.8636 20.8605 29.9682 21.6787C30.2509 23.9024 29.2733 26.1245 27.4153 27.3901C26.4467 28.0494 25.3999 28.3407 24.3487 28.3437ZM28.4533 20.1732L26.4864 19.8583L28.7683 19.7391C29.1025 20.3131 29.3042 20.9605 29.2792 21.7347L28.4533 20.1732Z" fill="#2E2E2E"/>
<path d="M46.4812 28.1586V13.1977H49.9449V25.3374H57.4498V28.1586H46.4812ZM59.3954 28.1586V13.1977H65.8739C67.2138 13.1977 68.3684 13.4151 69.3376 13.8497C70.307 14.2842 71.0553 14.9076 71.5827 15.7197C72.1101 16.5319 72.3738 17.5008 72.3738 18.6264C72.3738 19.7378 72.1101 20.6996 71.5827 21.5117C71.0553 22.3239 70.307 22.9472 69.3376 23.3818C68.3684 23.8164 67.2138 24.0337 65.8739 24.0337H61.3198L62.8592 22.4735V28.1586H59.3954ZM62.8592 22.8582L61.3198 21.2125H65.6815C66.7505 21.2125 67.5488 20.9845 68.0762 20.5286C68.6036 20.0727 68.8673 19.4386 68.8673 18.6264C68.8673 17.8001 68.6036 17.1589 68.0762 16.7029C67.5488 16.247 66.7505 16.019 65.6815 16.019H61.3198L62.8592 14.3733V22.8582ZM74.2981 23.478V20.8065H80.3489V23.478H74.2981ZM97.7105 16.4891C98.6227 16.4891 99.4316 16.6709 100.137 17.0342C100.843 17.3975 101.399 17.9532 101.805 18.7012C102.211 19.4493 102.414 20.4074 102.414 21.5759V28.1586H99.0788V22.0888C99.0788 21.1626 98.8864 20.4787 98.5015 20.037C98.1167 19.5953 97.575 19.3744 96.8766 19.3744C96.3919 19.3744 95.9572 19.4849 95.5723 19.7058C95.1875 19.9267 94.8881 20.2578 94.6744 20.6996C94.4605 21.1413 94.3536 21.7041 94.3536 22.388V28.1586H91.0181V22.0888C91.0181 21.1626 90.8293 20.4787 90.4515 20.037C90.0738 19.5953 89.5357 19.3744 88.8373 19.3744C88.3526 19.3744 87.9179 19.4849 87.5331 19.7058C87.1482 19.9267 86.8488 20.2578 86.635 20.6996C86.4212 21.1413 86.3143 21.7041 86.3143 22.388V28.1586H82.9788V16.6602H86.1646V19.802L85.5659 18.8829C85.9651 18.0992 86.5317 17.5043 87.2657 17.0983C87.9998 16.6922 88.8373 16.4891 89.778 16.4891C90.8329 16.4891 91.7558 16.7563 92.5469 17.2907C93.338 17.8249 93.8619 18.6407 94.1184 19.7378L92.9425 19.4173C93.3274 18.5196 93.9438 17.8071 94.7919 17.28C95.6401 16.7528 96.6129 16.4891 97.7105 16.4891ZM110.967 28.3296C109.741 28.3296 108.654 28.0731 107.706 27.5602C106.758 27.0473 106.01 26.3455 105.461 25.4549C104.912 24.5644 104.638 23.5492 104.638 22.4094C104.638 21.2553 104.912 20.2329 105.461 19.3424C106.01 18.4519 106.758 17.7537 107.706 17.2479C108.654 16.7421 109.741 16.4891 110.967 16.4891C112.178 16.4891 113.262 16.7421 114.217 17.2479C115.172 17.7537 115.92 18.4483 116.462 19.3317C117.003 20.2152 117.274 21.241 117.274 22.4094C117.274 23.5492 117.003 24.5644 116.462 25.4549C115.92 26.3455 115.172 27.0473 114.217 27.5602C113.262 28.0731 112.178 28.3296 110.967 28.3296ZM110.967 25.5939C111.523 25.5939 112.022 25.4656 112.463 25.2092C112.905 24.9527 113.255 24.5858 113.511 24.1085C113.768 23.6312 113.896 23.0648 113.896 22.4094C113.896 21.7397 113.768 21.1698 113.511 20.6996C113.255 20.2294 112.905 19.866 112.463 19.6096C112.022 19.3531 111.523 19.2248 110.967 19.2248C110.411 19.2248 109.912 19.3531 109.47 19.6096C109.028 19.866 108.675 20.2294 108.412 20.6996C108.148 21.1698 108.016 21.7397 108.016 22.4094C108.016 23.0648 108.148 23.6312 108.412 24.1085C108.675 24.5858 109.028 24.9527 109.47 25.2092C109.912 25.4656 110.411 25.5939 110.967 25.5939ZM126.297 28.3296C125.285 28.3296 124.416 28.1159 123.689 27.6884C122.962 27.261 122.406 26.6091 122.021 25.7329C121.636 24.8566 121.444 23.7487 121.444 22.4094C121.444 21.0558 121.647 19.9444 122.053 19.0753C122.459 18.2061 123.026 17.5578 123.753 17.1303C124.48 16.7029 125.328 16.4891 126.297 16.4891C127.38 16.4891 128.353 16.7314 129.216 17.2158C130.078 17.7003 130.762 18.3842 131.268 19.2676C131.774 20.151 132.027 21.1983 132.027 22.4094C132.027 23.6063 131.774 24.6464 131.268 25.5298C130.762 26.4132 130.078 27.1007 129.216 27.5922C128.353 28.0838 127.38 28.3296 126.297 28.3296ZM119.498 28.1586V12.3001H122.833V18.9897L122.62 22.388L122.684 25.8076V28.1586H119.498ZM125.72 25.5939C126.276 25.5939 126.771 25.4656 127.206 25.2092C127.64 24.9527 127.99 24.5858 128.253 24.1085C128.517 23.6312 128.649 23.0648 128.649 22.4094C128.649 21.7397 128.517 21.1698 128.253 20.6996C127.99 20.2294 127.64 19.866 127.206 19.6096C126.771 19.3531 126.276 19.2248 125.72 19.2248C125.164 19.2248 124.665 19.3531 124.223 19.6096C123.781 19.866 123.432 20.2294 123.175 20.6996C122.919 21.1698 122.791 21.7397 122.791 22.4094C122.791 23.0648 122.919 23.6312 123.175 24.1085C123.432 24.5858 123.781 24.9527 124.223 25.2092C124.665 25.4656 125.164 25.5939 125.72 25.5939ZM134.251 28.1586V16.6602H137.586V28.1586H134.251ZM135.919 15.0572C135.306 15.0572 134.807 14.8791 134.422 14.5229C134.037 14.1667 133.845 13.725 133.845 13.1977C133.845 12.6706 134.037 12.2289 134.422 11.8727C134.807 11.5165 135.306 11.3384 135.919 11.3384C136.531 11.3384 137.03 11.5058 137.415 11.8407C137.8 12.1754 137.993 12.6065 137.993 13.1337C137.993 13.6893 137.804 14.1489 137.426 14.5122C137.048 14.8756 136.546 15.0572 135.919 15.0572ZM141.948 28.3296C141.378 28.3296 140.89 28.1337 140.483 27.7418C140.077 27.35 139.874 26.8477 139.874 26.2351C139.874 25.6224 140.077 25.1273 140.483 24.7497C140.89 24.3721 141.378 24.1833 141.948 24.1833C142.533 24.1833 143.024 24.3721 143.423 24.7497C143.823 25.1273 144.022 25.6224 144.022 26.2351C144.022 26.8477 143.823 27.35 143.423 27.7418C143.024 28.1337 142.533 28.3296 141.948 28.3296ZM153.088 28.3296C152.076 28.3296 151.206 28.1159 150.479 27.6884C149.752 27.261 149.196 26.6091 148.811 25.7329C148.427 24.8566 148.234 23.7487 148.234 22.4094C148.234 21.0558 148.437 19.9444 148.844 19.0753C149.25 18.2061 149.816 17.5578 150.543 17.1303C151.27 16.7029 152.118 16.4891 153.088 16.4891C154.171 16.4891 155.144 16.7314 156.006 17.2158C156.869 17.7003 157.553 18.3842 158.059 19.2676C158.565 20.151 158.818 21.1983 158.818 22.4094C158.818 23.6063 158.565 24.6464 158.059 25.5298C157.553 26.4132 156.869 27.1007 156.006 27.5922C155.144 28.0838 154.171 28.3296 153.088 28.3296ZM146.288 28.1586V12.3001H149.624V18.9897L149.41 22.388L149.474 25.8076V28.1586H146.288ZM152.51 25.5939C153.066 25.5939 153.562 25.4656 153.996 25.2092C154.431 24.9527 154.78 24.5858 155.044 24.1085C155.308 23.6312 155.44 23.0648 155.44 22.4094C155.44 21.7397 155.308 21.1698 155.044 20.6996C154.78 20.2294 154.431 19.866 153.996 19.6096C153.562 19.3531 153.066 19.2248 152.51 19.2248C151.954 19.2248 151.456 19.3531 151.014 19.6096C150.572 19.866 150.223 20.2294 149.966 20.6996C149.709 21.1698 149.581 21.7397 149.581 22.4094C149.581 23.0648 149.709 23.6312 149.966 24.1085C150.223 24.5858 150.572 24.9527 151.014 25.2092C151.456 25.4656 151.954 25.5939 152.51 25.5939ZM161.041 28.1586V16.6602H164.377V28.1586H161.041ZM162.709 15.0572C162.096 15.0572 161.597 14.8791 161.213 14.5229C160.828 14.1667 160.635 13.725 160.635 13.1977C160.635 12.6706 160.828 12.2289 161.213 11.8727C161.597 11.5165 162.096 11.3384 162.709 11.3384C163.322 11.3384 163.821 11.5058 164.206 11.8407C164.591 12.1754 164.783 12.6065 164.783 13.1337C164.783 13.6893 164.594 14.1489 164.217 14.5122C163.839 14.8756 163.336 15.0572 162.709 15.0572ZM166.686 28.1586V26.1496L173.485 18.1135L174.063 19.2248H166.836V16.6602H176.757V18.6692L169.957 26.7053L169.359 25.5939H176.949V28.1586H166.686Z" fill="#2E2E2E"/>
<path d="M49.995 37.789L48.2405 35.4069L48.8 35.0616L50.7824 37.789H49.995ZM46.7416 37.789V32.9558H47.4185V37.789H46.7416ZM47.2113 35.6623V35.0547H48.7792V35.6623H47.2113ZM48.8621 35.4483L48.2267 35.3516L49.9604 32.9558H50.6995L48.8621 35.4483ZM53.0946 37.8304C52.7262 37.8304 52.3993 37.7498 52.1138 37.5887C51.8282 37.4276 51.6027 37.2055 51.4369 36.9224C51.2711 36.6393 51.1882 36.3182 51.1882 35.9592C51.1882 35.5956 51.2711 35.2734 51.4369 34.9926C51.6027 34.7119 51.8282 34.492 52.1138 34.3332C52.3993 34.1744 52.7262 34.095 53.0946 34.095C53.4584 34.095 53.7842 34.1744 54.072 34.3332C54.3598 34.492 54.5855 34.7107 54.7489 34.9892C54.9124 35.2677 54.9941 35.591 54.9941 35.9592C54.9941 36.3228 54.9124 36.6451 54.7489 36.9259C54.5855 37.2067 54.3598 37.4276 54.072 37.5887C53.7842 37.7498 53.4584 37.8304 53.0946 37.8304ZM53.0946 37.2504C53.3294 37.2504 53.5401 37.1975 53.7267 37.0916C53.9132 36.9857 54.0593 36.835 54.1652 36.6393C54.2712 36.4437 54.3241 36.217 54.3241 35.9592C54.3241 35.6969 54.2712 35.4701 54.1652 35.2791C54.0593 35.0881 53.9132 34.9397 53.7267 34.8338C53.5401 34.7279 53.3294 34.675 53.0946 34.675C52.8597 34.675 52.6502 34.7279 52.466 34.8338C52.2819 34.9397 52.1345 35.0881 52.024 35.2791C51.9135 35.4701 51.8582 35.6969 51.8582 35.9592C51.8582 36.217 51.9135 36.4437 52.024 36.6393C52.1345 36.835 52.2819 36.9857 52.466 37.0916C52.6502 37.1975 52.8597 37.2504 53.0946 37.2504ZM56.1459 37.789V34.1295H56.8091V35.6831H58.8951V34.1295H59.5581V37.789H58.8951V36.2561H56.8091V37.789H56.1459ZM62.6371 37.8304C62.2641 37.8304 61.9314 37.7498 61.639 37.5887C61.3465 37.4276 61.1175 37.2067 60.9517 36.9259C60.7859 36.6451 60.7031 36.3228 60.7031 35.9592C60.7031 35.5956 60.7859 35.2734 60.9517 34.9926C61.1175 34.7119 61.3465 34.492 61.639 34.3332C61.9314 34.1744 62.2641 34.095 62.6371 34.095C62.9686 34.095 63.2645 34.1606 63.5247 34.2918C63.7849 34.423 63.9863 34.6174 64.1291 34.8752L63.6248 35.1998C63.5051 35.0202 63.3589 34.8879 63.1862 34.8028C63.0136 34.7175 62.8282 34.675 62.6302 34.675C62.3907 34.675 62.1766 34.7279 61.9878 34.8338C61.799 34.9397 61.6493 35.0881 61.5388 35.2791C61.4283 35.4701 61.3731 35.6969 61.3731 35.9592C61.3731 36.2217 61.4283 36.4494 61.5388 36.6428C61.6493 36.8361 61.799 36.9857 61.9878 37.0916C62.1766 37.1975 62.3907 37.2504 62.6302 37.2504C62.8282 37.2504 63.0136 37.2078 63.1862 37.1226C63.3589 37.0375 63.5051 36.9052 63.6248 36.7256L64.1291 37.0432C63.9863 37.2964 63.7849 37.4909 63.5247 37.6267C63.2645 37.7625 62.9686 37.8304 62.6371 37.8304ZM65.8542 37.789V34.5369L66.02 34.7095H64.5142V34.1295H67.8573V34.7095H66.3584L66.5173 34.5369V37.789H65.8542ZM70.6669 37.8304C70.3629 37.8304 70.0855 37.7601 69.8345 37.6198C69.5836 37.4794 69.3832 37.2711 69.2336 36.9949C69.084 36.7188 69.0091 36.3735 69.0091 35.9592C69.0091 35.545 69.0816 35.1997 69.2267 34.9235C69.3718 34.6474 69.5698 34.4402 69.8207 34.3021C70.0717 34.1641 70.3537 34.095 70.6669 34.095C71.0261 34.095 71.3437 34.1733 71.6201 34.3297C71.8964 34.4863 72.1151 34.7037 72.2763 34.9822C72.4374 35.2607 72.518 35.5864 72.518 35.9592C72.518 36.332 72.4374 36.6589 72.2763 36.9397C72.1151 37.2204 71.8964 37.4391 71.6201 37.5956C71.3437 37.7521 71.0261 37.8304 70.6669 37.8304ZM68.7259 39.1284V34.1295H69.3614V35.1169L69.32 35.9661L69.389 36.8154V39.1284H68.7259ZM70.6116 37.2504C70.8464 37.2504 71.0571 37.1975 71.2436 37.0916C71.4301 36.9857 71.5775 36.835 71.6857 36.6393C71.7939 36.4437 71.848 36.217 71.848 35.9592C71.848 35.6969 71.7939 35.4701 71.6857 35.2791C71.5775 35.0881 71.4301 34.9397 71.2436 34.8338C71.0571 34.7279 70.8464 34.675 70.6116 34.675C70.3813 34.675 70.173 34.7279 69.9865 34.8338C69.8 34.9397 69.6526 35.0881 69.5444 35.2791C69.4362 35.4701 69.3821 35.6969 69.3821 35.9592C69.3821 36.217 69.4362 36.4437 69.5444 36.6393C69.6526 36.835 69.8 36.9857 69.9865 37.0916C70.173 37.1975 70.3813 37.2504 70.6116 37.2504ZM73.7527 39.1698C73.5778 39.1698 73.4073 39.141 73.2416 39.0835C73.0758 39.026 72.933 38.942 72.8133 38.8315L73.0965 38.3344C73.1886 38.4219 73.2899 38.4886 73.4004 38.5346C73.511 38.5806 73.6284 38.6037 73.7527 38.6037C73.9139 38.6037 74.0475 38.5622 74.1533 38.4794C74.2592 38.3966 74.3583 38.2492 74.4504 38.0375L74.6783 37.5335L74.7473 37.4506L76.1841 34.1295H76.8334L75.0582 38.1549C74.9523 38.4126 74.8337 38.6152 74.7025 38.7625C74.5712 38.9098 74.4273 39.0145 74.2708 39.0767C74.1142 39.1388 73.9415 39.1698 73.7527 39.1698ZM74.6231 37.9063L72.9515 34.1295H73.6422L75.0651 37.3885L74.6231 37.9063ZM80.3544 37.789L78.9383 36.0075L79.4841 35.6761L81.1349 37.789H80.3544ZM77.7019 37.789V34.1295H78.3651V37.789H77.7019ZM78.1648 36.2423V35.6761H79.3736V36.2423H78.1648ZM79.5393 36.0351L78.9245 35.9524L80.3268 34.1295H81.0382L79.5393 36.0351ZM82.6873 37.789V34.5369L82.8531 34.7095H81.3473V34.1295H84.6905V34.7095H83.1915L83.3504 34.5369V37.789H82.6873ZM86.9682 37.8304C86.5998 37.8304 86.2728 37.7498 85.9873 37.5887C85.7018 37.4276 85.4762 37.2055 85.3103 36.9224C85.1446 36.6393 85.0617 36.3182 85.0617 35.9592C85.0617 35.5956 85.1446 35.2734 85.3103 34.9926C85.4762 34.7119 85.7018 34.492 85.9873 34.3332C86.2728 34.1744 86.5998 34.095 86.9682 34.095C87.3319 34.095 87.6577 34.1744 87.9455 34.3332C88.2333 34.492 88.459 34.7107 88.6225 34.9892C88.786 35.2677 88.8677 35.591 88.8677 35.9592C88.8677 36.3228 88.786 36.6451 88.6225 36.9259C88.459 37.2067 88.2333 37.4276 87.9455 37.5887C87.6577 37.7498 87.3319 37.8304 86.9682 37.8304ZM86.9682 37.2504C87.203 37.2504 87.4137 37.1975 87.6002 37.0916C87.7867 36.9857 87.9328 36.835 88.0387 36.6393C88.1447 36.4437 88.1976 36.217 88.1976 35.9592C88.1976 35.6969 88.1447 35.4701 88.0387 35.2791C87.9328 35.0881 87.7867 34.9397 87.6002 34.8338C87.4137 34.7279 87.203 34.675 86.9682 34.675C86.7333 34.675 86.5237 34.7279 86.3396 34.8338C86.1554 34.9397 86.008 35.0881 85.8975 35.2791C85.787 35.4701 85.7318 35.6969 85.7318 35.9592C85.7318 36.217 85.787 36.4437 85.8975 36.6393C86.008 36.835 86.1554 36.9857 86.3396 37.0916C86.5237 37.1975 86.7333 37.2504 86.9682 37.2504ZM91.9604 37.8304C91.6565 37.8304 91.3791 37.7601 91.1281 37.6198C90.8771 37.4794 90.6768 37.2711 90.5271 36.9949C90.3775 36.7188 90.3026 36.3735 90.3026 35.9592C90.3026 35.545 90.3752 35.1997 90.5202 34.9235C90.6652 34.6474 90.8633 34.4402 91.1143 34.3021C91.3653 34.1641 91.6473 34.095 91.9604 34.095C92.3196 34.095 92.6373 34.1733 92.9137 34.3297C93.1899 34.4863 93.4086 34.7037 93.5698 34.9822C93.731 35.2607 93.8115 35.5864 93.8115 35.9592C93.8115 36.332 93.731 36.6589 93.5698 36.9397C93.4086 37.2204 93.1899 37.4391 92.9137 37.5956C92.6373 37.7521 92.3196 37.8304 91.9604 37.8304ZM90.0194 39.1284V34.1295H90.6549V35.1169L90.6134 35.9661L90.6825 36.8154V39.1284H90.0194ZM91.9052 37.2504C92.14 37.2504 92.3507 37.1975 92.5372 37.0916C92.7236 36.9857 92.871 36.835 92.9792 36.6393C93.0874 36.4437 93.1415 36.217 93.1415 35.9592C93.1415 35.6969 93.0874 35.4701 92.9792 35.2791C92.871 35.0881 92.7236 34.9397 92.5372 34.8338C92.3507 34.7279 92.14 34.675 91.9052 34.675C91.6749 34.675 91.4665 34.7279 91.28 34.8338C91.0935 34.9397 90.9462 35.0881 90.8379 35.2791C90.7297 35.4701 90.6756 35.6969 90.6756 35.9592C90.6756 36.217 90.7297 36.4437 90.8379 36.6393C90.9462 36.835 91.0935 36.9857 91.28 37.0916C91.4665 37.1975 91.6749 37.2504 91.9052 37.2504ZM98.6795 37.789V34.1295H99.3633L100.938 36.8361H100.662L102.278 34.1295H102.9V37.789H102.299V34.8752L102.409 34.9373L100.931 37.3747H100.641L99.156 34.8891L99.2873 34.8614V37.789H98.6795ZM105.951 37.8304C105.583 37.8304 105.256 37.7498 104.97 37.5887C104.685 37.4276 104.459 37.2055 104.293 36.9224C104.128 36.6393 104.045 36.3182 104.045 35.9592C104.045 35.5956 104.128 35.2734 104.293 34.9926C104.459 34.7119 104.685 34.492 104.97 34.3332C105.256 34.1744 105.583 34.095 105.951 34.095C106.315 34.095 106.641 34.1744 106.929 34.3332C107.216 34.492 107.442 34.7107 107.605 34.9892C107.769 35.2677 107.851 35.591 107.851 35.9592C107.851 36.3228 107.769 36.6451 107.605 36.9259C107.442 37.2067 107.216 37.4276 106.929 37.5887C106.641 37.7498 106.315 37.8304 105.951 37.8304ZM105.951 37.2504C106.186 37.2504 106.397 37.1975 106.583 37.0916C106.77 36.9857 106.916 36.835 107.022 36.6393C107.128 36.4437 107.181 36.217 107.181 35.9592C107.181 35.6969 107.128 35.4701 107.022 35.2791C106.916 35.0881 106.77 34.9397 106.583 34.8338C106.397 34.7279 106.186 34.675 105.951 34.675C105.716 34.675 105.507 34.7279 105.323 34.8338C105.138 34.9397 104.991 35.0881 104.881 35.2791C104.77 35.4701 104.715 35.6969 104.715 35.9592C104.715 36.217 104.77 36.4437 104.881 36.6393C104.991 36.835 105.138 36.9857 105.323 37.0916C105.507 37.1975 105.716 37.2504 105.951 37.2504ZM110.695 37.8442C110.391 37.8442 110.123 37.7958 109.89 37.6992C109.658 37.6026 109.458 37.4586 109.293 37.2676C109.127 37.0766 109.001 36.835 108.916 36.5427C108.831 36.2503 108.788 35.9063 108.788 35.5104C108.788 35.1974 108.816 34.9167 108.871 34.6681C108.927 34.4195 109.006 34.1986 109.11 34.0052C109.213 33.8119 109.342 33.6439 109.496 33.5012C109.651 33.3585 109.826 33.24 110.021 33.1456C110.217 33.0513 110.432 32.9787 110.667 32.9281L112.339 32.5552L112.435 33.1698L110.895 33.5012C110.803 33.5196 110.693 33.5472 110.564 33.5841C110.435 33.6209 110.303 33.6772 110.17 33.7532C110.036 33.8292 109.912 33.9339 109.797 34.0674C109.682 34.2009 109.59 34.3746 109.521 34.5887C109.451 34.8028 109.417 35.0663 109.417 35.3792C109.417 35.4667 109.419 35.5334 109.424 35.5794C109.428 35.6255 109.434 35.6715 109.441 35.7176C109.448 35.7636 109.454 35.8327 109.458 35.9248L109.182 35.6417C109.256 35.3884 109.373 35.1676 109.534 34.9788C109.695 34.79 109.89 34.6439 110.118 34.5403C110.346 34.4368 110.596 34.385 110.867 34.385C111.208 34.385 111.511 34.4586 111.776 34.606C112.041 34.7532 112.249 34.9558 112.401 35.2136C112.553 35.4713 112.629 35.7659 112.629 36.0973C112.629 36.4333 112.549 36.7337 112.391 36.9984C112.232 37.263 112.007 37.4702 111.717 37.6198C111.427 37.7694 111.086 37.8442 110.695 37.8442ZM110.757 37.2918C110.992 37.2918 111.199 37.24 111.379 37.1365C111.558 37.0329 111.699 36.8925 111.8 36.7153C111.901 36.538 111.952 36.339 111.952 36.118C111.952 35.8971 111.901 35.7015 111.8 35.5311C111.699 35.3608 111.558 35.2262 111.379 35.1272C111.199 35.0282 110.987 34.9788 110.743 34.9788C110.513 34.9788 110.306 35.026 110.122 35.1203C109.937 35.2147 109.795 35.3459 109.693 35.5139C109.592 35.6819 109.541 35.8764 109.541 36.0973C109.541 36.3182 109.593 36.5196 109.697 36.7014C109.8 36.8833 109.943 37.0272 110.125 37.133C110.307 37.2389 110.517 37.2918 110.757 37.2918ZM115.305 37.782L115.347 37.2228C115.379 37.2274 115.409 37.232 115.437 37.2366C115.464 37.2412 115.49 37.2434 115.513 37.2434C115.66 37.2434 115.776 37.1929 115.862 37.0916C115.947 36.9903 116.01 36.8557 116.051 36.6876C116.093 36.5196 116.123 36.3298 116.141 36.118C116.16 35.9063 116.173 35.6945 116.183 35.4828L116.245 34.1295H119.056V37.789H118.393V34.5161L118.552 34.7095H116.673L116.825 34.5093L116.777 35.5242C116.763 35.8465 116.738 36.148 116.701 36.4287C116.664 36.7095 116.607 36.9558 116.531 37.1675C116.456 37.3793 116.352 37.5449 116.221 37.6647C116.089 37.7844 115.92 37.8442 115.713 37.8442C115.653 37.8442 115.59 37.8384 115.523 37.8269C115.456 37.8154 115.384 37.8004 115.305 37.782ZM122.225 35.3724C122.69 35.377 123.045 35.4828 123.289 35.69C123.533 35.8971 123.655 36.1894 123.655 36.5668C123.655 36.9627 123.521 37.2676 123.254 37.4817C122.987 37.6957 122.609 37.8004 122.121 37.7958L120.533 37.789V34.1295H121.196V35.3654L122.225 35.3724ZM122.066 37.2918C122.365 37.2964 122.592 37.2366 122.746 37.1123C122.901 36.988 122.978 36.8039 122.978 36.5599C122.978 36.3206 122.902 36.1456 122.75 36.0351C122.598 35.9247 122.37 35.8671 122.066 35.8625L121.196 35.8487V37.2849L122.066 37.2918ZM124.696 37.789V34.1295H125.359V35.6831H127.445V34.1295H128.108V37.789H127.445V36.2561H125.359V37.789H124.696ZM133.997 37.789L135.572 35.7452L135.565 36.0835L134.066 34.1295H134.805L135.951 35.6347H135.668L136.815 34.1295H137.54L136.02 36.0973L136.027 35.7452L137.616 37.789H136.863L135.654 36.1871L135.924 36.2285L134.736 37.789H133.997ZM141.614 37.782L141.655 37.2228C141.687 37.2274 141.717 37.232 141.745 37.2366C141.773 37.2412 141.798 37.2434 141.821 37.2434C141.968 37.2434 142.085 37.1929 142.17 37.0916C142.255 36.9903 142.318 36.8557 142.36 36.6876C142.401 36.5196 142.431 36.3298 142.449 36.118C142.468 35.9063 142.482 35.6945 142.491 35.4828L142.553 34.1295H145.364V37.789H144.701V34.5161L144.86 34.7095H142.981L143.133 34.5093L143.085 35.5242C143.071 35.8465 143.046 36.148 143.009 36.4287C142.972 36.7095 142.916 36.9558 142.84 37.1675C142.764 37.3793 142.66 37.5449 142.529 37.6647C142.398 37.7844 142.228 37.8442 142.021 37.8442C141.961 37.8442 141.898 37.8384 141.831 37.8269C141.764 37.8154 141.692 37.8004 141.614 37.782ZM148.471 37.8304C148.08 37.8304 147.735 37.7498 147.438 37.5887C147.141 37.4276 146.911 37.2067 146.748 36.9259C146.584 36.6451 146.502 36.3228 146.502 35.9592C146.502 35.5956 146.582 35.2734 146.741 34.9926C146.9 34.7119 147.118 34.492 147.397 34.3332C147.675 34.1744 147.99 34.095 148.34 34.095C148.694 34.095 149.007 34.1733 149.279 34.3297C149.551 34.4863 149.764 34.7061 149.918 34.9892C150.072 35.2723 150.149 35.6025 150.149 35.9799C150.149 36.0075 150.148 36.0398 150.146 36.0766C150.144 36.1134 150.14 36.148 150.136 36.1802H147.02V35.7038H149.79L149.521 35.8695C149.525 35.6347 149.477 35.4253 149.376 35.2411C149.275 35.057 149.135 34.9132 148.958 34.8096C148.781 34.7061 148.575 34.6542 148.34 34.6542C148.109 34.6542 147.904 34.7061 147.725 34.8096C147.545 34.9132 147.405 35.0582 147.304 35.2446C147.202 35.431 147.152 35.6439 147.152 35.8833V35.9937C147.152 36.2377 147.208 36.4552 147.321 36.6462C147.434 36.8372 147.591 36.9857 147.794 37.0916C147.997 37.1975 148.229 37.2504 148.492 37.2504C148.708 37.2504 148.905 37.2136 149.082 37.1399C149.26 37.0662 149.415 36.9558 149.549 36.8085L149.915 37.2366C149.749 37.4299 149.543 37.5772 149.296 37.6784C149.05 37.7797 148.775 37.8304 148.471 37.8304ZM151.37 37.789V34.1295H152.033V35.6831H154.119V34.1295H154.783V37.789H154.119V36.2561H152.033V37.789H151.37ZM158.766 37.4782V34.7095H157.178L157.143 35.4138C157.134 35.6439 157.119 35.866 157.098 36.0801C157.077 36.2941 157.045 36.4909 157.001 36.6704C156.958 36.8499 156.894 36.9972 156.812 37.1123C156.729 37.2274 156.618 37.2987 156.48 37.3263L155.824 37.2089C155.967 37.2136 156.082 37.1664 156.169 37.0674C156.257 36.9685 156.325 36.8315 156.373 36.6566C156.421 36.4817 156.457 36.2826 156.48 36.0593C156.503 35.8361 156.521 35.6048 156.535 35.3654L156.59 34.1295H159.429V37.4782H158.766ZM155.679 38.6382V37.2089H159.989V38.6382H159.367V37.789H156.307V38.6382H155.679ZM163.19 37.789V34.1295H163.854V35.6831H165.94V34.1295H166.603V37.789H165.94V36.2561H163.854V37.789H163.19ZM168.086 37.789V34.1295H170.78V34.7095H168.59L168.749 34.5576V37.789H168.086ZM173.795 37.789V34.1295H175.494C175.922 34.1295 176.26 34.2112 176.506 34.3746C176.752 34.5381 176.876 34.7694 176.876 35.0685C176.876 35.3678 176.759 35.599 176.527 35.7624C176.294 35.9258 175.987 36.0075 175.605 36.0075L175.708 35.8281C176.146 35.8281 176.47 35.9086 176.682 36.0697C176.894 36.2308 177 36.4679 177 36.7809C177 37.0985 176.881 37.3459 176.644 37.5231C176.407 37.7003 176.044 37.789 175.556 37.789H173.795ZM174.444 37.278H175.508C175.784 37.278 175.991 37.2354 176.13 37.1503C176.268 37.0652 176.337 36.9282 176.337 36.7394C176.337 36.5461 176.274 36.4045 176.147 36.3148C176.02 36.2251 175.821 36.1802 175.549 36.1802H174.444V37.278ZM174.444 35.7038H175.439C175.692 35.7038 175.884 35.6566 176.016 35.5622C176.147 35.4679 176.213 35.3356 176.213 35.1652C176.213 34.9903 176.147 34.8591 176.016 34.7716C175.884 34.6842 175.692 34.6404 175.439 34.6404H174.444V35.7038ZM113.767 37.789V34.1295H114.43V37.789H113.767ZM114.098 33.4253C113.969 33.4253 113.862 33.3839 113.777 33.301C113.692 33.2181 113.649 33.1168 113.649 32.9971C113.649 32.8729 113.692 32.7693 113.777 32.6865C113.862 32.6036 113.969 32.5622 114.098 32.5622C114.227 32.5622 114.334 32.6025 114.42 32.683C114.505 32.7636 114.547 32.8637 114.547 32.9834C114.547 33.1076 114.506 33.2123 114.423 33.2975C114.34 33.3827 114.232 33.4253 114.098 33.4253ZM129.591 37.789V34.1295H130.255V36.7947L132.499 34.1295H133.1V37.789H132.437V35.1238L130.199 37.789H129.591ZM161.044 37.789V34.1295H161.707V37.789H161.044ZM161.376 33.4253C161.247 33.4253 161.14 33.3839 161.054 33.301C160.969 33.2181 160.927 33.1168 160.927 32.9971C160.927 32.8729 160.969 32.7693 161.054 32.6865C161.14 32.6036 161.247 32.5622 161.376 32.5622C161.504 32.5622 161.612 32.6025 161.697 32.683C161.782 32.7636 161.824 32.8637 161.824 32.9834C161.824 33.1076 161.783 33.2123 161.7 33.2975C161.617 33.3827 161.509 33.4253 161.376 33.4253ZM171.649 37.789V34.1295H172.312V37.789H171.649ZM171.98 33.4253C171.851 33.4253 171.744 33.3839 171.659 33.301C171.574 33.2181 171.531 33.1168 171.531 32.9971C171.531 32.8729 171.574 32.7693 171.659 32.6865C171.744 32.6036 171.851 32.5622 171.98 32.5622C172.109 32.5622 172.216 32.6025 172.301 32.683C172.386 32.7636 172.429 32.8637 172.429 32.9834C172.429 33.1076 172.388 33.2123 172.305 33.2975C172.222 33.3827 172.114 33.4253 171.98 33.4253Z" fill="#2E2E2E"/>
</svg>
