<svg width="150" height="51" viewBox="0 0 150 51" fill="none" xmlns="http://www.w3.org/2000/svg">
<g clip-path="url(#clip0_89_3150)">
<path d="M14.3897 32.2044V32.3488C14.3897 30.66 13.0587 29.2788 11.3824 29.2034C12.2112 29.1971 12.9646 29.5362 13.5045 30.0761C14.0507 30.6223 14.3897 31.3694 14.3897 32.2044Z" fill="#839BB0"/>
<path d="M14.8292 41.7348V42.821H13.2659C12.2238 42.821 11.3825 41.9734 11.3825 40.9312V32.7757C11.3825 32.4304 11.2443 32.1165 11.0121 31.8905C10.786 31.6582 10.4658 31.5201 10.1205 31.5201C9.42366 31.5201 8.85861 32.0851 8.85861 32.7757V42.821H5.53114V32.7757C5.53114 32.4304 5.39302 32.1165 5.16072 31.8905C4.93471 31.6582 4.61452 31.5201 4.26921 31.5201C3.57233 31.5201 3.00728 32.0851 3.00728 32.7757V42.821H0V29.1971H3.00728V30.0887C3.57233 29.5362 4.35083 29.1971 5.20467 29.1971C5.31768 29.1971 5.42441 29.2034 5.53114 29.216C6.8119 29.3478 7.86037 30.2393 8.22451 31.4259C8.35008 30.999 8.56354 30.6098 8.85861 30.2833C9.42993 29.6178 10.2838 29.1971 11.2381 29.1971C11.2883 29.1971 11.3385 29.1971 11.3825 29.2034C13.0588 29.2788 14.3898 30.66 14.3898 32.3488V41.1572C14.3898 41.7223 14.8292 41.7348 14.8292 41.7348Z" fill="#839BB0"/>
<path d="M20.6994 40.6236C20.6994 40.6236 20.7245 40.6361 20.7371 40.6361H20.7685C20.7685 40.6361 20.7182 40.6298 20.6994 40.6236ZM19.0419 38.9724C19.0419 39.0101 19.0545 39.0414 19.0608 39.0791C19.067 39.1105 19.0796 39.1419 19.0922 39.1733C19.0733 39.1105 19.0545 39.0414 19.0419 38.9724Z" fill="#839BB0"/>
<path d="M25.7471 41.7034H25.6027C25.2762 41.7034 25.0125 41.4397 25.0125 41.1133V31.9596C25.0125 30.5407 23.8636 29.3918 22.4447 29.3918H17.8804C17.5226 29.3918 17.2338 29.6806 17.2338 30.0384V31.3129C17.2338 31.6708 17.5226 31.9596 17.8804 31.9596H22.0869V34.7722C21.5344 34.5023 20.9191 34.3516 20.2724 34.3516C17.9621 34.3516 16.0786 36.235 16.0849 38.5517C16.0911 40.8433 18.0374 42.7644 20.329 42.733C21.0949 42.7205 21.8043 42.507 22.4196 42.1366C22.9093 41.8039 23.1291 41.9106 23.1918 42.3815C23.2169 42.5761 23.3802 42.733 23.5811 42.733H25.6906C25.835 42.733 25.9543 42.6138 25.9543 42.4694V41.9169C25.9543 41.7976 25.8601 41.7034 25.7471 41.7034ZM22.0869 39.4432C22.0869 40.1464 21.4779 40.7366 20.7935 40.6361H20.737C20.737 40.6361 20.7119 40.6298 20.6994 40.6235C20.6303 40.6173 20.5612 40.5984 20.4922 40.5733C20.4231 40.5545 20.3603 40.5357 20.2976 40.498C20.2348 40.4791 20.1657 40.4478 20.1092 40.4101C19.9836 40.3536 19.8706 40.272 19.7702 40.1841C19.7137 40.1464 19.6635 40.0962 19.6195 40.0459C19.5253 39.9518 19.4374 39.845 19.3621 39.732C19.3182 39.6755 19.2805 39.619 19.2554 39.5562C19.18 39.437 19.1298 39.3051 19.0921 39.1733C19.0796 39.1419 19.067 39.1105 19.0607 39.0791C19.0545 39.0414 19.0419 39.01 19.0419 38.9724C19.0294 38.9033 19.0168 38.8342 19.0105 38.7589C18.885 37.4907 19.8769 36.4171 21.1263 36.4171H21.1514C21.2895 36.4171 21.4151 36.4548 21.5344 36.5113C21.5846 36.5364 21.6286 36.5615 21.6725 36.5929C21.7164 36.6243 21.7541 36.662 21.7855 36.6996C21.8169 36.7248 21.8483 36.7624 21.8671 36.7938C21.8797 36.8001 21.886 36.8126 21.886 36.8189C21.9111 36.8503 21.9362 36.8817 21.955 36.9194C21.9676 36.9382 21.9739 36.957 21.9864 36.9822C22.0052 37.0198 22.0178 37.0575 22.0304 37.0952C22.0492 37.1391 22.0618 37.1893 22.068 37.2333C22.0806 37.2961 22.0869 37.3589 22.0869 37.4279V39.4432Z" fill="#839BB0"/>
<path d="M19.0419 38.9724C19.0545 39.0414 19.0733 39.1105 19.0922 39.1733C19.0796 39.1419 19.067 39.1105 19.0608 39.0791C19.0545 39.0414 19.0419 39.0101 19.0419 38.9724Z" fill="#839BB0"/>
<path d="M20.6994 40.6236C20.6994 40.6236 20.7434 40.6361 20.7685 40.6361H20.7371C20.7371 40.6361 20.712 40.6298 20.6994 40.6236Z" fill="#839BB0"/>
<path d="M30.0602 32.9201C30.0602 33.5919 30.4181 34.2072 30.9957 34.5399L34.273 36.4234C34.9384 36.8064 35.3528 37.5158 35.3528 38.2881V39.9706C35.3528 41.4962 34.116 42.7331 32.5904 42.7331H27.8315C27.4485 42.7331 27.1346 42.4191 27.1346 42.0362V40.6675C27.1346 40.2845 27.4485 39.9706 27.8315 39.9706H31.4666C31.9939 39.9706 32.4271 39.5437 32.4271 39.0101C32.4271 38.6961 32.2702 38.4011 32.0128 38.219L28.6916 35.9463C27.7185 35.2808 27.1346 34.1758 27.1346 33.0018V31.9596C27.1346 30.434 28.3714 29.1971 29.897 29.1971H34.6496C35.0389 29.1971 35.3528 29.5111 35.3528 29.894V31.2564C35.3528 31.6457 35.0389 31.9596 34.6496 31.9596H31.0208C30.4934 31.9596 30.0602 32.3865 30.0602 32.9201Z" fill="#839BB0"/>
<path d="M67.0266 32.9201C67.0266 33.5919 67.3845 34.2072 67.9621 34.5399L71.2393 36.4234C71.9048 36.8064 72.3192 37.5158 72.3192 38.2881V39.9706C72.3192 41.4962 71.0824 42.7331 69.5568 42.7331H64.7978C64.4149 42.7331 64.101 42.4191 64.101 42.0362V40.6675C64.101 40.2845 64.4149 39.9706 64.7978 39.9706H68.4329C68.9603 39.9706 69.3935 39.5437 69.3935 39.0101C69.3935 38.6961 69.2366 38.4011 68.9792 38.219L65.658 35.9463C64.6848 35.2808 64.101 34.1758 64.101 33.0018V31.9596C64.101 30.434 65.3378 29.1971 66.8634 29.1971H71.616C72.0053 29.1971 72.3192 29.5111 72.3192 29.894V31.2564C72.3192 31.6457 72.0053 31.9596 71.616 31.9596H67.9872C67.4598 31.9596 67.0266 32.3865 67.0266 32.9201Z" fill="#003560"/>
<path d="M41.0786 31.9596V38.9536C41.0786 39.5186 41.5369 39.9769 42.102 39.9769H43.6276C43.9478 39.9769 44.2052 40.2343 44.2052 40.5545V42.1555C44.2052 42.4757 43.9478 42.7331 43.6276 42.7331H40.84C39.3772 42.7331 38.1969 41.5528 38.1969 40.0899V31.9596H36.9726C36.5834 31.9596 36.2695 31.6457 36.2695 31.2564V29.894C36.2695 29.5111 36.5834 29.1972 36.9664 29.1972H38.1969V27.5522C38.1969 27.1756 38.5045 26.8679 38.8812 26.8679H40.4068C40.7773 26.8679 41.0849 27.1693 41.0849 27.546V29.1972H43.5146C43.8975 29.1972 44.2115 29.5111 44.2115 29.894V31.2564C44.2115 31.6457 43.8975 31.9596 43.5083 31.9596H41.0849H41.0786Z" fill="#839BB0"/>
<path d="M106.404 31.9596V38.9536C106.404 39.5186 106.862 39.9769 107.427 39.9769H108.953C109.273 39.9769 109.53 40.2343 109.53 40.5545V42.1555C109.53 42.4757 109.273 42.7331 108.953 42.7331H106.165C104.702 42.7331 103.522 41.5528 103.522 40.0899V31.9596H102.298C101.909 31.9596 101.595 31.6457 101.595 31.2564V29.894C101.595 29.5111 101.909 29.1972 102.292 29.1972H103.522V27.5522C103.522 27.1756 103.83 26.8679 104.206 26.8679H105.732C106.102 26.8679 106.41 27.1693 106.41 27.546V29.1972H108.84C109.223 29.1972 109.537 29.5111 109.537 29.894V31.2564C109.537 31.6457 109.223 31.9596 108.833 31.9596H106.41H106.404Z" fill="#003560"/>
<path d="M50.8413 40.0774C47.5389 40.2218 47.8654 38.8594 47.8654 37.1517H54.062V33.2655C54.062 33.0959 54.0494 32.9264 54.0306 32.7632C53.7858 30.7542 52.0718 29.1971 50 29.1971H49.052C46.8106 29.1971 44.9899 31.0178 44.9899 33.2655V37.1517C45.0904 41.2137 46.2079 43.003 50.5713 42.7331C51.896 42.6514 53.1077 42.2747 54.062 41.5088L54.1185 38.5266C54.1185 40.2343 51.2305 40.0585 50.8413 40.0774ZM47.6707 33.322C47.6707 32.8574 47.8528 32.4304 48.1479 32.1165C48.4681 31.7649 48.9327 31.5452 49.4475 31.5452H49.6044C49.7426 31.5452 49.8744 31.5578 50 31.5954C50.791 31.7712 51.3749 32.4807 51.3749 33.322V35.2619H47.6645V33.322H47.6707Z" fill="#839BB0"/>
<path d="M62.4184 29.1971V31.8528H60.2085C59.9259 31.8528 59.656 31.9596 59.4488 32.1605C59.2353 32.3677 59.116 32.6502 59.116 32.9515V42.4631H55.8262V29.8626C55.8262 29.4985 56.1213 29.2034 56.4855 29.2034H58.3124V29.9443C59.3797 29.9882 59.4048 29.6743 59.6371 29.4169C59.769 29.2725 59.9573 29.2034 60.1519 29.2034H62.4184V29.1971Z" fill="#839BB0"/>
<path d="M82.0128 30.1828C81.1903 29.3604 80.054 28.8518 78.7983 28.8518C76.2933 28.8518 74.2592 30.886 74.2592 33.391V38.1939C74.2592 40.6989 76.2933 42.7331 78.7983 42.7331C81.3034 42.7331 83.3375 40.6989 83.3375 38.1939V33.391C83.3375 32.1354 82.829 31.0053 82.0128 30.1828ZM80.4558 38.7464C80.4558 39.4621 79.8719 40.0397 79.1625 40.0397H78.4405C77.7248 40.0397 77.1472 39.4621 77.1472 38.7464V32.8385C77.1472 32.1228 77.7248 31.5452 78.4405 31.5452H79.1625C79.8719 31.5452 80.4558 32.1228 80.4558 32.8385V38.7464Z" fill="#003560"/>
<path d="M124.265 30.1828C123.443 29.3604 122.307 28.8518 121.057 28.8518C118.552 28.8518 116.518 30.886 116.518 33.391V38.1939C116.518 40.6989 118.552 42.7331 121.057 42.7331C123.562 42.7331 125.596 40.6989 125.596 38.1939V33.391C125.596 32.1354 125.088 31.0053 124.265 30.1828ZM122.708 38.7464C122.708 39.4621 122.131 40.0397 121.415 40.0397H120.699C119.984 40.0397 119.406 39.4621 119.406 38.7464V32.8385C119.406 32.1228 119.984 31.5452 120.699 31.5452H121.415C122.131 31.5452 122.708 32.1228 122.708 32.8385V38.7464Z" fill="#003560"/>
<path d="M89.4902 41.5339V42.7582H88.5673C86.9412 42.7582 85.6228 41.4397 85.6228 39.8137V27.502C85.6228 27.1504 85.9053 26.8679 86.2569 26.8679H87.9395C88.2911 26.8679 88.5736 27.1504 88.5736 27.502V40.4855C88.5736 41.2263 89.0382 41.5339 89.4965 41.5339H89.4902Z" fill="#003560"/>
<path d="M97.225 29.8375C97.225 29.486 97.5075 29.2034 97.8591 29.2034H99.5354C99.887 29.2034 100.17 29.486 100.17 29.8375V40.4917C100.17 41.2702 100.634 41.5402 101.092 41.5402V42.7645H100.17C99.3471 42.7645 97.3568 42.7645 97.3568 41.7976C97.3568 42.7645 96.0196 42.7645 94.0105 42.7645C92.3845 42.7645 91.0598 41.446 91.0598 39.82V29.8375C91.0598 29.486 91.3423 29.2034 91.6876 29.2034H93.3702C93.7217 29.2034 94.0043 29.486 94.0043 29.8375V39.3491C94.0043 39.7132 94.2993 40.0083 94.6635 40.0083H96.5658C96.9299 40.0083 97.225 39.7132 97.225 39.3491V29.8375Z" fill="#003560"/>
<path d="M113.467 29.1971H111.759C111.412 29.1971 111.131 29.4782 111.131 29.825V42.1052C111.131 42.452 111.412 42.7331 111.759 42.7331H113.467C113.814 42.7331 114.095 42.452 114.095 42.1052V29.825C114.095 29.4782 113.814 29.1971 113.467 29.1971Z" fill="#003560"/>
<path d="M137.318 41.6846V42.7331H134.976C134.782 42.7331 134.599 42.6954 134.43 42.6326C134.235 42.5573 134.066 42.4443 133.921 42.2999C133.658 42.0299 133.488 41.6595 133.488 41.2514V33.2027C133.488 32.3865 132.829 31.721 132.007 31.721C131.184 31.721 130.525 32.3865 130.525 33.2027V42.1052C130.525 42.4505 130.242 42.7331 129.897 42.7331H128.189C127.844 42.7331 127.562 42.4505 127.562 42.1052V29.825C127.562 29.4797 127.844 29.1971 128.189 29.1971H129.897C130.242 29.1971 130.525 29.4797 130.525 29.825V30.7855C130.525 29.9066 131.234 29.1971 132.113 29.1971H132.785C134.989 29.1971 136.778 30.9864 136.778 33.1901V39.6065C136.778 41.2891 136.803 41.6846 137.318 41.6846Z" fill="#003560"/>
<path d="M144.054 32.7883L143.728 31.4071L142.648 26.8679H140.702L138.818 34.7974H140.476L140.758 32.7883H142.592L142.88 34.7974H144.532L144.054 32.7883ZM140.953 31.4071L141.267 29.1972H142.083L142.397 31.4071H140.953Z" fill="#F1082A"/>
<path d="M144.054 32.7883L143.728 31.4071L142.648 26.8679H140.702L138.818 34.7974H140.476L140.758 32.7883H142.592L142.88 34.7974H144.532L144.054 32.7883ZM140.953 31.4071L141.267 29.1972H142.083L142.397 31.4071H140.953Z" fill="#F1082A"/>
<path d="M146.516 29.8061V31.8591C146.516 32.6627 147.169 33.3157 147.972 33.3157H148.857V32.0977H147.715V30.3021H150V34.7974H147.2C145.982 34.7974 144.99 33.8117 144.99 32.5937V29.0716C144.99 27.8536 145.982 26.8679 147.2 26.8679H150V28.3496H147.972C147.169 28.3496 146.516 29.0025 146.516 29.8061Z" fill="#F1082A"/>
<path d="M117.058 9H111.125C110.241 9 109.524 9.71677 109.524 10.601V16.5339C109.524 17.4181 110.241 18.1349 111.125 18.1349H117.058C117.942 18.1349 118.659 17.4181 118.659 16.5339V10.601C118.659 9.71677 117.942 9 117.058 9Z" fill="#F1082A"/>
<path d="M109.606 19.177H106.479C106.015 19.177 105.638 19.5537 105.638 20.0183V23.1449C105.638 23.6095 106.015 23.9862 106.479 23.9862H109.606C110.07 23.9862 110.447 23.6095 110.447 23.1449V20.0183C110.447 19.5537 110.07 19.177 109.606 19.177Z" fill="#F1082A"/>
<path d="M113.925 23.7288H111.822C111.506 23.7288 111.251 23.9846 111.251 24.3001V26.4033C111.251 26.7189 111.506 26.9746 111.822 26.9746H113.925C114.241 26.9746 114.496 26.7189 114.496 26.4033V24.3001C114.496 23.9846 114.241 23.7288 113.925 23.7288Z" fill="#F1082A"/>
</g>
<defs>
<clipPath id="clip0_89_3150">
<rect width="150" height="33.8209" fill="white" transform="translate(0 9)"/>
</clipPath>
</defs>
</svg>
