<svg width="146" height="51" viewBox="0 0 146 51" fill="none" xmlns="http://www.w3.org/2000/svg">
<g clip-path="url(#clip0_89_3147)">
<path d="M38.4571 14.7638V16.2514C38.4571 21.364 35.9174 23.9207 31.056 23.9207C26.1945 23.9207 23.6549 21.364 23.6549 16.2514V14.7638C23.6549 9.67452 26.3031 7.09464 31.056 7.09464C35.8089 7.09464 38.4571 9.67452 38.4571 14.7638ZM35.4187 16.1817V14.8569C35.4187 11.301 34.1167 9.65126 31.056 9.65126C27.9953 9.65126 26.6715 11.301 26.6715 14.8569V16.1817C26.6715 19.7376 27.9953 21.3873 31.056 21.3873C34.1167 21.3873 35.4187 19.7376 35.4187 16.1817Z" fill="#7BA224"/>
<path d="M44.0133 6.67676V20.7369C44.0133 21.3873 44.3824 21.6199 45.185 21.6199C45.6844 21.6199 46.1397 21.5966 46.4437 21.5268V23.7579C45.9226 23.8742 45.1633 23.9207 44.36 23.9207C42.4066 23.9207 41.3217 23.0842 41.3217 20.9694V6.67742H44.0133V6.67676Z" fill="#7BA224"/>
<path d="M48.3543 8.30321V7.88464C48.3543 7.04815 48.9188 6.67609 49.8952 6.67609C50.8716 6.67609 51.4578 7.04815 51.4578 7.88464V8.30321C51.4578 9.16295 50.8716 9.51176 49.8952 9.51176C48.9188 9.51176 48.3543 9.16295 48.3543 8.30321ZM48.5714 11.6033H51.2413V23.641H48.5714V11.6033Z" fill="#7BA224"/>
<path d="M62.1794 23.6416H57.5785L53.4763 11.604H56.2975L59.4444 21.295H60.2912L63.4598 11.604H66.281L62.1788 23.6416H62.1794Z" fill="#7BA224"/>
<path d="M69.7325 18.8539C69.9497 20.8757 71.4254 21.6657 73.7913 21.6657C75.3105 21.6657 76.6125 21.4332 77.8284 20.8292V23.1765C76.5481 23.6875 75.1585 23.92 73.7696 23.92C69.1904 23.92 66.9982 21.8285 66.9982 18.2035V17.0414C66.9982 13.4158 69.1904 11.3249 73.2492 11.3249C77.308 11.3249 78.762 13.3467 78.762 15.5545C78.762 17.9019 77.4382 18.8546 75.1157 18.8546H69.7332L69.7325 18.8539ZM69.6891 16.7159H74.1163C75.4184 16.7159 76.0263 16.4833 76.0263 15.5538C76.0263 14.4848 75.1361 13.6018 73.2268 13.6018C71.078 13.6018 69.7977 14.6243 69.6891 16.7159Z" fill="#7BA224"/>
<path d="M90.2211 16.2282C90.2211 19.7609 91.7837 21.3873 95.4951 21.3873C97.1229 21.3873 98.8591 21.0618 99.7927 20.4346V23.061C98.6861 23.6184 96.9715 23.9207 95.1918 23.9207C89.6139 23.9207 87.2045 21.2019 87.2045 16.3678V14.6715C87.2045 9.83799 89.6139 7.09534 95.1918 7.09534C96.9715 7.09534 98.7078 7.4209 99.7927 8.00158V10.5815C98.8598 9.97752 97.1229 9.65196 95.4951 9.65196C91.7837 9.65196 90.2211 11.2552 90.2211 14.8111V16.2289V16.2282Z" fill="#7BA224"/>
<path d="M115.854 18.8539C116.071 20.8757 117.546 21.6657 119.912 21.6657C121.431 21.6657 122.734 21.4332 123.949 20.8292V23.1765C122.669 23.6875 121.279 23.92 119.891 23.92C115.311 23.92 113.119 21.8285 113.119 18.2035V17.0414C113.119 13.4158 115.311 11.3249 119.37 11.3249C123.429 11.3249 124.883 13.3467 124.883 15.5545C124.883 17.9019 123.559 18.8546 121.237 18.8546H115.854L115.854 18.8539ZM115.81 16.7159H120.237C121.539 16.7159 122.147 16.4833 122.147 15.5538C122.147 14.4848 121.257 13.6018 119.348 13.6018C117.199 13.6018 115.919 14.6243 115.81 16.7159Z" fill="#7BA224"/>
<path d="M138.273 23.6416L136.342 13.9739H135.755L133.824 23.6416H129.179L126.141 11.604H128.919L131.198 21.295H131.784L133.542 11.604H138.599L140.314 21.295H140.9L143.179 11.604H146L142.94 23.6416H138.274H138.273Z" fill="#7BA224"/>
<path d="M33.6732 42.0496L33.3278 34.2974L30.9685 40.3999H28.4742L26.1149 34.3273L25.7695 42.0642H23.7108L24.1766 31.568H27.3025L29.7217 38.4951L32.1409 31.568H35.2667L35.7326 42.0642L33.6739 42.049L33.6732 42.0496Z" fill="#7BA224"/>
<path d="M41.1717 34.3127C41.5927 34.3127 41.9829 34.3499 42.3441 34.425C42.7046 34.5 43.0205 34.6303 43.2909 34.815C43.5613 35.0003 43.7764 35.2548 43.937 35.5797C44.0968 35.9046 44.1771 36.3172 44.1771 36.8168V42.0649H42.3888L42.2388 40.8205C41.9085 41.1308 41.6204 41.3826 41.375 41.5779C41.1296 41.7726 40.8993 41.9254 40.6835 42.035C40.4677 42.1447 40.2525 42.2197 40.0374 42.2596C39.8216 42.2995 39.5788 42.3194 39.3084 42.3194C38.8775 42.3194 38.5169 42.2669 38.2268 42.1619C37.936 42.057 37.7057 41.9121 37.5353 41.7274C37.3649 41.5427 37.2425 41.3255 37.1668 41.075C37.0918 40.8252 37.0543 40.5501 37.0543 40.2505C37.0543 39.501 37.2543 38.9137 37.6557 38.4885C38.0564 38.0639 38.7123 37.7762 39.6242 37.6261C39.9446 37.5762 40.3131 37.5337 40.7289 37.4985C41.1447 37.4633 41.5579 37.4307 41.9684 37.4008V36.951C41.9684 36.5511 41.871 36.2893 41.6756 36.1637C41.4802 36.0388 41.2019 35.9763 40.8414 35.9763C40.4506 35.9763 40.0045 35.9989 39.5038 36.0441C39.0025 36.0893 38.4919 36.1418 37.9708 36.2016L37.7603 34.6721C38.3011 34.5924 38.8722 34.5127 39.4735 34.4323C40.0749 34.3525 40.646 34.312 41.1868 34.312H41.1717V34.3127ZM41.9533 38.4958C41.6927 38.5157 41.4223 38.5356 41.1421 38.5556C40.8618 38.5755 40.621 38.6007 40.421 38.6306C39.9703 38.711 39.6492 38.8459 39.4591 39.0353C39.2689 39.2253 39.1735 39.495 39.1735 39.8452C39.1735 40.1149 39.2459 40.3322 39.3913 40.4976C39.5367 40.6624 39.8143 40.7448 40.2256 40.7448C40.3756 40.7448 40.5085 40.7348 40.6236 40.7149C40.7387 40.6949 40.8565 40.6498 40.9769 40.58C41.0973 40.5102 41.2348 40.4099 41.3901 40.2803C41.5454 40.1508 41.7381 39.9807 41.9684 39.7707L41.9533 38.4964V38.4958Z" fill="#7BA224"/>
<path d="M50.9848 34.2974C51.6157 34.2974 52.1289 34.4701 52.525 34.815C52.9204 35.1598 53.1185 35.6973 53.1185 36.4268V42.0497H50.9091V36.9969C50.9091 36.357 50.6032 36.0375 49.9926 36.0375C49.3821 36.0375 48.705 36.3026 47.9938 36.8321V42.0503H45.7845V34.5532H47.5727L47.6931 35.5877C48.234 35.1678 48.7847 34.8508 49.3459 34.6356C49.9071 34.421 50.4525 34.3133 50.9841 34.3133V34.2981L50.9848 34.2974Z" fill="#7BA224"/>
<path d="M58.5279 34.3127C58.949 34.3127 59.3391 34.3499 59.7004 34.425C60.0609 34.5 60.3767 34.6303 60.6471 34.815C60.9175 35.0003 61.1327 35.2548 61.2932 35.5797C61.4531 35.9046 61.5334 36.3172 61.5334 36.8168V42.0649H59.7451L59.5951 40.8205C59.2648 41.1308 58.9766 41.3826 58.7312 41.5779C58.4858 41.7726 58.2555 41.9254 58.0397 42.035C57.8239 42.1447 57.6088 42.2197 57.3936 42.2596C57.1778 42.2995 56.9351 42.3194 56.6647 42.3194C56.2337 42.3194 55.8732 42.2669 55.583 42.1619C55.2922 42.057 55.0619 41.9121 54.8915 41.7274C54.7211 41.5427 54.5987 41.3255 54.5231 41.075C54.4481 40.8252 54.4106 40.5501 54.4106 40.2505C54.4106 39.501 54.6106 38.9137 55.0119 38.4885C55.4126 38.0639 56.0686 37.7762 56.9805 37.6261C57.3009 37.5762 57.6693 37.5337 58.0851 37.4985C58.5009 37.4633 58.9141 37.4307 59.3247 37.4008V36.951C59.3247 36.5511 59.2273 36.2893 59.0319 36.1637C58.8365 36.0388 58.5582 35.9763 58.1976 35.9763C57.8068 35.9763 57.3608 35.9989 56.8601 36.0441C56.3587 36.0893 55.8482 36.1418 55.3271 36.2016L55.1165 34.6721C55.6574 34.5924 56.2284 34.5127 56.8298 34.4323C57.4311 34.3525 58.0022 34.312 58.5431 34.312H58.5279V34.3127ZM59.3095 38.4958C59.049 38.5157 58.7786 38.5356 58.4983 38.5556C58.218 38.5755 57.9772 38.6007 57.7772 38.6306C57.3265 38.711 57.0055 38.8459 56.8153 39.0353C56.6252 39.2253 56.5298 39.495 56.5298 39.8452C56.5298 40.1149 56.6021 40.3322 56.7476 40.4976C56.893 40.6624 57.1706 40.7448 57.5818 40.7448C57.7318 40.7448 57.8647 40.7348 57.9799 40.7149C58.095 40.6949 58.2128 40.6498 58.3332 40.58C58.4536 40.5102 58.5911 40.4099 58.7464 40.2803C58.9016 40.1508 59.0944 39.9807 59.3247 39.7707L59.3095 38.4964V38.4958Z" fill="#7BA224"/>
<path d="M66.3422 34.3127C67.1633 34.3127 67.8245 34.3977 68.3258 34.5678H70.6398V35.4973L69.5127 35.5571C69.7127 35.8674 69.8134 36.2567 69.8134 36.7264C69.8134 37.5762 69.5502 38.1961 69.0245 38.5854C68.4989 38.9754 67.7199 39.1901 66.6876 39.2299C66.5474 39.2299 66.402 39.2273 66.252 39.2226C66.102 39.218 65.9013 39.2053 65.6507 39.1854C65.4901 39.3356 65.375 39.4605 65.3053 39.5601C65.2349 39.6604 65.2052 39.7701 65.2151 39.8897C65.2349 40.1494 65.3855 40.2797 65.6658 40.2797H67.9199C68.2304 40.2797 68.5456 40.3169 68.8666 40.392C69.1871 40.467 69.4779 40.5893 69.7384 40.7594C69.9989 40.9295 70.2095 41.1547 70.3694 41.4344C70.5292 41.7141 70.6095 42.0589 70.6095 42.4689C70.6095 42.9785 70.4838 43.3957 70.2338 43.7206C69.9832 44.0455 69.6601 44.3 69.2647 44.4853C68.8686 44.67 68.4232 44.7976 67.9271 44.8674C67.431 44.9371 66.9428 44.9724 66.4619 44.9724C65.9809 44.9724 65.4875 44.9398 65.0421 44.8747C64.596 44.8096 64.2078 44.6946 63.8775 44.5299C63.5466 44.3651 63.2841 44.1425 63.0887 43.8628C62.8933 43.5831 62.7959 43.2276 62.7959 42.7984C62.7959 42.3692 62.8959 42.029 63.0966 41.7786C63.2966 41.5288 63.5677 41.2889 63.9078 41.059L64.0433 40.9693C63.7025 40.8491 63.5223 40.5793 63.5025 40.1594C63.4926 39.9295 63.5499 39.7222 63.6756 39.5369C63.8006 39.3522 63.9835 39.1449 64.2243 38.9143C63.8335 38.7442 63.5328 38.4871 63.3229 38.1423C63.1124 37.7975 63.0071 37.3404 63.0071 36.7703C63.0071 36.3105 63.0795 35.9232 63.2249 35.6083C63.3703 35.2933 63.5854 35.0382 63.871 34.8435C64.1565 34.6489 64.5072 34.5113 64.923 34.4309C65.3388 34.3512 65.8171 34.3107 66.3579 34.3107H66.3428L66.3422 34.3127ZM65.4105 41.8696C65.1802 42.0098 65.0072 42.1294 64.8921 42.2297C64.7769 42.3294 64.719 42.4795 64.719 42.6795C64.719 43.029 64.8894 43.2642 65.2302 43.3844C65.5704 43.5047 66.0066 43.5645 66.5376 43.5645C66.7981 43.5645 67.0507 43.5492 67.2962 43.5193C67.5416 43.4894 67.762 43.4369 67.9574 43.3618C68.1528 43.2868 68.3107 43.1791 68.4304 43.0396C68.5508 42.8994 68.6107 42.7247 68.6107 42.5147C68.6107 42.3446 68.5752 42.2025 68.5054 42.0875C68.435 41.9726 68.3403 41.8802 68.2199 41.8098C68.0995 41.74 67.9646 41.6902 67.8139 41.6596C67.6639 41.6297 67.508 41.6145 67.3481 41.6145H65.8152L65.4092 41.8696H65.4105ZM66.3724 35.5717C65.9217 35.5717 65.5855 35.6541 65.3658 35.8189C65.1454 35.9836 65.0401 36.3012 65.05 36.771C65.05 37.2307 65.1572 37.541 65.373 37.7005C65.5882 37.8606 65.9066 37.9403 66.327 37.9403C66.808 37.9403 67.1633 37.8506 67.3942 37.6706C67.6245 37.4905 67.7396 37.1855 67.7396 36.7557C67.7396 36.276 67.612 35.9637 67.3567 35.8182C67.1014 35.6734 66.7784 35.6009 66.3875 35.6009L66.3724 35.571V35.5717Z" fill="#7BA224"/>
<path d="M75.3131 34.3127C75.894 34.3127 76.4046 34.3824 76.846 34.5226C77.2869 34.6628 77.6474 34.8927 77.9283 35.2123C78.1987 35.5226 78.3764 35.9172 78.4619 36.3969C78.5468 36.8766 78.5547 37.4613 78.4843 38.1509L78.4244 38.826H73.7807C73.7906 39.206 73.8261 39.5209 73.886 39.7708C73.9459 40.0206 74.036 40.2186 74.1564 40.3634C74.2768 40.5082 74.4321 40.6086 74.6222 40.6631C74.8124 40.7182 75.0479 40.7454 75.3282 40.7454C75.6289 40.7454 75.8966 40.7355 76.1322 40.7155C76.3677 40.6956 76.5855 40.6704 76.7862 40.6405C76.9862 40.6106 77.177 40.5753 77.3573 40.5355C77.5375 40.4956 77.7178 40.4504 77.8981 40.4006L78.1382 41.8849C77.8277 41.9952 77.4467 42.0968 76.996 42.1925C76.5454 42.2875 75.9894 42.3347 75.3282 42.3347C74.5768 42.3347 73.9531 42.2623 73.457 42.1174C72.961 41.9726 72.5655 41.7374 72.2701 41.4125C71.9747 41.0876 71.7688 40.6604 71.6543 40.1309C71.5392 39.6013 71.4813 38.9462 71.4813 38.1669C71.4813 37.4473 71.5563 36.8427 71.7069 36.3524C71.8569 35.8627 72.0899 35.4654 72.4057 35.1605C72.7215 34.8555 73.1215 34.6382 73.6077 34.508C74.0932 34.3785 74.667 34.3133 75.3282 34.3133H75.3131V34.3127ZM75.2828 35.9172C75.0321 35.9172 74.8143 35.9451 74.6288 35.9996C74.4433 36.0547 74.288 36.1498 74.163 36.2846C74.0373 36.4195 73.94 36.6069 73.8702 36.8467C73.7998 37.0866 73.7597 37.3915 73.7498 37.7616H76.6954C76.7151 37.4321 76.7026 37.1523 76.6579 36.9218C76.6125 36.6919 76.5454 36.5072 76.4552 36.367C76.3447 36.1969 76.1947 36.0773 76.0045 36.0069C75.8144 35.9371 75.5789 35.9019 75.2979 35.9019L75.2828 35.9172Z" fill="#7BA224"/>
<path d="M89.6646 34.2974C90.2856 34.2974 90.789 34.4701 91.1745 34.815C91.5601 35.1598 91.7528 35.6973 91.7528 36.4268V42.0497H89.5435V36.9969C89.5435 36.367 89.2481 36.0521 88.6566 36.0521C88.3763 36.0521 88.1053 36.1099 87.8454 36.2248C87.5848 36.3398 87.2796 36.5324 86.9289 36.8022V42.0503H84.7195V36.9975C84.7195 36.3677 84.4241 36.0527 83.8326 36.0527C83.5524 36.0527 83.2813 36.1105 83.0214 36.2255C82.7609 36.3404 82.4556 36.5331 82.1049 36.8029V42.051H79.8962V34.5539H81.6845L81.82 35.6036C82.3411 35.1538 82.8543 34.8236 83.3603 34.6143C83.8662 34.4044 84.3597 34.2994 84.8406 34.2994C85.3216 34.2994 85.7143 34.3971 86.0505 34.5917C86.3861 34.7864 86.6289 35.0894 86.7795 35.4986C87.2907 35.0887 87.7835 34.7891 88.2599 34.599C88.7356 34.409 89.2086 34.314 89.6797 34.314L89.6646 34.2987V34.2974Z" fill="#7BA224"/>
<path d="M96.9676 34.3127C97.5486 34.3127 98.0591 34.3824 98.5006 34.5226C98.9414 34.6628 99.3019 34.8927 99.5829 35.2123C99.8533 35.5226 100.031 35.9172 100.116 36.3969C100.201 36.8766 100.209 37.4613 100.139 38.1509L100.079 38.826H95.4353C95.4451 39.206 95.4807 39.5209 95.5405 39.7708C95.6004 40.0206 95.6906 40.2186 95.811 40.3634C95.9314 40.5082 96.0866 40.6086 96.2768 40.6631C96.4669 40.7182 96.7025 40.7454 96.9827 40.7454C97.2834 40.7454 97.5512 40.7355 97.7867 40.7155C98.0223 40.6956 98.24 40.6704 98.4407 40.6405C98.6407 40.6106 98.8315 40.5753 99.0118 40.5355C99.1921 40.4956 99.3723 40.4504 99.5526 40.4006L99.7928 41.8849C99.4822 41.9952 99.1013 42.0968 98.6506 42.1925C98.1999 42.2875 97.644 42.3347 96.9827 42.3347C96.2314 42.3347 95.6077 42.2623 95.1116 42.1174C94.6155 41.9726 94.2201 41.7374 93.9247 41.4125C93.6293 41.0876 93.4233 40.6604 93.3088 40.1309C93.1937 39.6013 93.1358 38.9462 93.1358 38.1669C93.1358 37.4473 93.2108 36.8427 93.3615 36.3524C93.5115 35.8627 93.7444 35.4654 94.0602 35.1605C94.376 34.8555 94.776 34.6382 95.2622 34.508C95.7478 34.3785 96.3215 34.3133 96.9827 34.3133H96.9676V34.3127ZM96.9373 35.9172C96.6867 35.9172 96.4689 35.9451 96.2833 35.9996C96.0978 36.0547 95.9425 36.1498 95.8175 36.2846C95.6919 36.4195 95.5945 36.6069 95.5248 36.8467C95.4544 37.0866 95.4142 37.3915 95.4044 37.7616H98.3499C98.3697 37.4321 98.3571 37.1523 98.3124 36.9218C98.267 36.6919 98.1999 36.5072 98.1098 36.367C97.9992 36.1969 97.8492 36.0773 97.6591 36.0069C97.4689 35.9371 97.2334 35.9019 96.9525 35.9019L96.9373 35.9172Z" fill="#7BA224"/>
<path d="M106.78 34.2974C107.411 34.2974 107.924 34.4701 108.32 34.815C108.716 35.1598 108.914 35.6973 108.914 36.4268V42.0497H106.704V36.9969C106.704 36.357 106.398 36.0375 105.788 36.0375C105.177 36.0375 104.5 36.3026 103.789 36.8321V42.0503H101.58V34.5532H103.368L103.488 35.5877C104.029 35.1678 104.58 34.8508 105.141 34.6356C105.702 34.421 106.248 34.3133 106.779 34.3133V34.2981L106.78 34.2974Z" fill="#7BA224"/>
<path d="M115.556 34.5824V36.2168H113.572V39.6505C113.572 40.1102 113.67 40.4152 113.865 40.5654C114.061 40.7155 114.313 40.7906 114.624 40.7906C114.804 40.7906 115 40.7879 115.21 40.7833C115.421 40.7786 115.63 40.766 115.841 40.7461L115.991 42.1254C115.711 42.1752 115.402 42.2204 115.067 42.2603C114.731 42.3001 114.393 42.3201 114.052 42.3201C113.711 42.3201 113.363 42.2848 113.038 42.2151C112.712 42.1453 112.424 42.0178 112.174 41.833C111.923 41.6483 111.723 41.3985 111.572 41.0836C111.422 40.7687 111.347 40.3614 111.347 39.8618V36.2182H110.039V34.704L111.091 34.6442L111.347 34.6289V32.9493H113.57V34.5685L115.554 34.5837L115.556 34.5824Z" fill="#7BA224"/>
<path d="M128.088 40.2498V42.0642H122.835C122.01 42.0642 121.341 41.3892 121.341 40.556V31.5687H123.611V40.2504H128.088V40.2498Z" fill="#7BA224"/>
<path d="M134.43 34.5824V36.2168H132.447V39.6505C132.447 40.1102 132.545 40.4152 132.739 40.5654C132.935 40.7155 133.187 40.7906 133.498 40.7906C133.678 40.7906 133.874 40.7879 134.084 40.7833C134.295 40.7786 134.505 40.766 134.715 40.7461L134.865 42.1254C134.585 42.1752 134.276 42.2204 133.941 42.2603C133.605 42.3001 133.267 42.3201 132.926 42.3201C132.585 42.3201 132.237 42.2848 131.912 42.2151C131.586 42.1453 131.298 42.0178 131.048 41.833C130.797 41.6483 130.597 41.3985 130.447 41.0836C130.296 40.7687 130.221 40.3614 130.221 39.8618V36.2182H128.914V34.704L129.966 34.6442L130.221 34.6289V32.9493H132.445V34.5685L134.428 34.5837L134.43 34.5824Z" fill="#7BA224"/>
<path d="M141.493 42.0795L141.343 40.8949C141.062 41.1646 140.809 41.3899 140.584 41.5699C140.359 41.75 140.143 41.8975 139.938 42.0124C139.733 42.1274 139.532 42.2097 139.336 42.2596C139.141 42.3094 138.938 42.3347 138.728 42.3347C138.147 42.3347 137.666 42.2622 137.285 42.1174C136.904 41.9726 136.601 41.7374 136.376 41.4125C136.15 41.0876 135.993 40.6604 135.903 40.1308C135.813 39.6013 135.767 38.9462 135.767 38.1669C135.767 37.4473 135.824 36.8427 135.94 36.3524C136.055 35.8627 136.236 35.468 136.481 35.1677C136.726 34.8681 137.034 34.6528 137.405 34.5226C137.776 34.393 138.217 34.3279 138.728 34.3279C139.098 34.3279 139.467 34.3831 139.833 34.4927C140.198 34.603 140.606 34.7625 141.057 34.9724V31.5687H143.266V42.0649L141.493 42.0802L141.493 42.0795ZM139.554 35.8567C139.284 35.8567 139.051 35.8919 138.856 35.9617C138.66 36.0315 138.502 36.1544 138.382 36.3291C138.261 36.5039 138.171 36.7337 138.111 37.0188C138.052 37.3038 138.021 37.6559 138.021 38.0758C138.021 38.5456 138.044 38.9356 138.089 39.2452C138.134 39.5555 138.214 39.8053 138.329 39.9946C138.444 40.1846 138.602 40.3169 138.802 40.3919C139.002 40.467 139.253 40.5042 139.554 40.5042C139.794 40.5042 140.022 40.4391 140.237 40.3096C140.452 40.18 140.735 39.9401 141.086 39.59V36.3364C140.735 36.1663 140.447 36.0494 140.222 35.9843C139.996 35.9192 139.769 35.8866 139.538 35.8866L139.554 35.8567H139.554Z" fill="#7BA224"/>
<path d="M16.1092 33.7954C13.6334 33.855 3.11452 47.4924 0 45.8652L0.288541 43.0692C0.41817 43.5098 0.446163 43.5603 0.577083 43.5373C0.716186 43.5129 0.841077 43.4363 0.931946 43.3272C3.39876 40.3551 13.2428 30.9242 15.648 29.3253L16.1092 33.7954ZM16.1282 33.795C16.1221 33.795 16.1157 33.795 16.1092 33.7954L16.1282 33.795ZM17.306 18.68C17.353 18.7444 17.3771 18.8096 17.3771 18.8757V18.4843C17.3771 18.5504 17.353 18.6156 17.306 18.68ZM17.306 18.68C17.353 18.7444 17.3771 18.8096 17.3771 18.8757V20.6834L17.3556 23.3907C17.3556 23.3907 15.2044 23.7404 15.0851 23.8743L15.2548 25.5176C15.2548 25.5176 15.1932 25.4902 15.0412 25.5176C14.4452 25.6259 0.671828 39.0189 0.925917 39.0145C0.925917 39.0145 0.698959 39.2159 0.726091 38.8336V38.8327L0.999129 36.1886C2.23512 33.7976 12.4021 22.9453 12.4021 22.9453L12.123 22.7034L13.4064 21.2167C13.4947 21.1145 13.5795 21.0088 13.6627 20.9018C13.8285 20.6887 14.2574 20.2328 14.8362 20.305V17.7983C14.1506 17.6779 13.3509 17.5778 12.4676 17.503V20.1806H12.0369V17.4691C11.0154 17.3947 9.89568 17.3534 8.72084 17.3534C8.67778 17.3534 8.63471 17.3534 8.59164 17.3538V20.0828L10.071 20.0758V20.1806C10.0675 20.2019 10.0137 20.275 9.92583 20.3833C9.53134 20.8705 8.4478 22.0653 8.14419 22.3989C8.09251 22.4555 8.06409 22.5299 8.06409 22.6069V22.9566C8.06409 23.0357 8.03523 23.1127 7.98312 23.1719C2.36475 29.5728 1.36131 32.6832 1.36131 32.6832L1.86475 27.806C1.96725 27.1796 3.92459 24.137 4.40995 23.3898C4.47455 23.2906 4.46895 23.161 4.39617 23.0679L4.26654 22.9022C4.17653 22.7874 4.17395 22.626 4.26008 22.5081C4.62915 22.0053 5.58737 20.7052 5.82122 20.442C5.86342 20.3946 5.90519 20.3533 5.94568 20.3181C6.18383 20.1089 6.37634 20.0936 6.37634 20.0936L8.16099 20.0849V17.3564C7.09166 17.3686 6.0753 17.4147 5.14637 17.4886V20.1806H4.71571V17.5261C3.91641 17.5991 3.19032 17.6939 2.56242 17.8057V20.4059C2.56242 20.4673 2.54347 20.5269 2.50859 20.5769C2.27905 20.9022 1.38715 22.1749 1.18345 22.566C1.07363 22.7774 1.03875 22.9313 1.03229 23.0357C1.02626 23.131 1.08871 23.2171 1.17957 23.2432L2.30273 23.5651H2.3023C2.28938 23.5781 2.06587 23.7895 1.68947 23.7569C1.30188 23.7238 0.0981902 23.5651 0.0981902 23.5651L0.0645988 21.0506V18.0493H0.423768C0.771741 17.8436 1.36002 17.6561 2.13176 17.4969V14.0898C2.13176 14.0898 1.3204 14.0324 1.13952 13.8015C1.00128 13.6962 0.911705 13.5287 0.911705 13.34C0.911705 13.34 0.812653 12.2687 1.78034 12.2186L2.74803 12.1686C2.74803 12.1686 3.25664 7.33227 7.94867 7.41535C7.94867 7.41535 5.89486 10.2717 5.55507 11.2643C5.51889 11.37 5.46248 11.4679 5.38582 11.5484C5.37635 11.5588 5.36687 11.5684 5.35826 11.5775C5.28548 11.6519 5.18556 11.6923 5.08177 11.691C4.91683 11.6889 4.63518 11.7002 4.41511 11.7867C4.25146 11.8511 4.13906 12.0042 4.127 12.1808C4.10203 12.5444 4.08954 12.6962 4.08954 12.6962C4.08954 12.6962 2.99308 12.7628 2.56242 13.2373V17.4143C4.13174 17.135 6.31131 16.9619 8.72084 16.9619C11.1304 16.9619 13.2703 17.132 14.8362 17.4069V13.1847C14.8362 12.9742 13.372 12.6558 13.372 12.6558V12.0903C15.6975 11.9598 16.0227 12.6271 16.0227 12.6271H16.0222C16.1411 12.7454 16.2143 12.9094 16.2143 13.0907C16.2143 13.2452 16.1609 13.3869 16.0722 13.4987C16.0705 13.5013 16.0687 13.5035 16.0666 13.5057C15.7931 13.8632 15.185 13.9067 15.185 13.9067V13.9137L15.2294 17.4804C15.9891 17.6326 16.5786 17.8118 16.9464 18.0089C17.2259 18.1585 17.3771 18.3181 17.3771 18.4843C17.3771 18.5504 17.353 18.6156 17.306 18.68ZM2.12573 19.2637C2.12573 19.2637 1.31351 19.0871 0.495258 18.6074V20.6752L2.12573 20.3124V19.2637ZM2.13176 17.8884C1.60334 17.9971 1.16106 18.1193 0.822989 18.252C1.48922 18.6409 2.13176 18.7853 2.13176 18.7853V17.8884ZM15.2462 18.8757C15.4279 18.8253 16.089 18.6274 16.6842 18.2624C16.3017 18.1237 15.8185 17.9906 15.2341 17.8732L15.235 17.9641L15.2462 18.8757ZM16.9464 18.6691C16.2117 19.1019 15.4172 19.3133 15.2522 19.3546L15.2535 19.476V19.4829L15.2552 19.6078L15.2587 19.8735L15.2604 20.0062L15.2651 20.3981H15.2669V20.3655L16.9464 20.6012V18.6691ZM0.822989 18.252C1.48922 18.6409 2.13176 18.7853 2.13176 18.7853V17.8884C1.60334 17.9971 1.16106 18.1193 0.822989 18.252ZM16.9464 20.6156V20.6012V20.6156ZM0.822989 18.252C1.48922 18.6409 2.13176 18.7853 2.13176 18.7853V17.8884C1.60334 17.9971 1.16106 18.1193 0.822989 18.252ZM16.6842 18.2624C16.6945 18.2564 16.7048 18.2498 16.7152 18.2433L16.6842 18.2624ZM15.1975 18.8888C15.1975 18.8888 15.2147 18.8844 15.2462 18.8757L15.1975 18.8888ZM15.2212 19.362C15.2212 19.362 15.232 19.3594 15.2522 19.3546L15.2212 19.362ZM8.50982 5.32492C8.50982 5.32492 8.55073 5.28316 8.50982 5C6.60458 5.43322 7.66831 6.9321 7.94867 7.41535L8.52791 7.09043C7.98571 6.49932 8.50982 5.32492 8.50982 5.32492ZM11.3905 7.92077C10.8405 7.59847 10.3457 7.76506 10.3457 7.76506C8.67476 8.65369 6.3983 11.4966 6.3983 11.4966C5.22217 11.7854 5.29883 12.4383 5.29883 12.4383L9.16227 12.2887C9.23074 11.9555 9.52316 11.7054 9.87329 11.7054C9.9943 11.7054 10.108 11.7354 10.2083 11.7885C10.2101 11.7876 10.2122 11.7863 10.2139 11.7854C11.4013 9.88637 13.2156 9.2535 13.2156 9.2535C13.2156 9.2535 11.9404 8.24265 11.3905 7.92077Z" fill="#7BA224"/>
<path d="M110.762 11.4684L110.392 14.7765C110.392 14.7765 107.889 14.6071 105.722 15.6927V23.8183H102.245V11.7063H105.067L105.292 13.1799C105.311 13.3095 105.461 13.3686 105.564 13.2895C105.617 13.2483 105.67 13.2085 105.723 13.1693C108.62 11.0013 110.762 11.4684 110.762 11.4684H110.762Z" fill="#7BA224"/>
</g>
<defs>
<clipPath id="clip0_89_3147">
<rect width="146" height="41" fill="white" transform="translate(0 5)"/>
</clipPath>
</defs>
</svg>
