<svg width="225" height="59" viewBox="0 0 225 59" fill="none" xmlns="http://www.w3.org/2000/svg">
<path d="M222.538 43.403C220.735 45.2932 218.691 46.4203 216.127 46.935C214.397 47.284 212.881 47.3573 211.122 47.1753C208.791 46.9363 206.867 46.1895 204.991 44.7895C203.456 43.6488 202.357 42.4144 201.397 40.7605C200.657 39.48 200.225 38.2823 199.985 36.8238C199.649 34.8005 199.737 33.0203 200.271 31.0418C201.491 26.5416 204.886 23.3518 209.461 22.4026C212.074 21.8608 214.397 21.9165 216.98 22.5819C218.819 23.0558 220.28 23.8543 221.672 25.1457C222.55 25.9577 223.174 26.7738 223.726 27.8303C224.381 29.0796 224.646 30.2936 224.571 31.7004H216.41C216.233 30.61 215.709 29.7409 214.828 29.0728C213.687 28.2051 212.215 28.1358 210.995 28.8881C210.162 29.4055 209.615 30.1089 209.319 31.0418C208.617 33.2647 208.585 35.3328 209.212 37.5775C209.478 38.5213 209.926 39.2613 210.643 39.9349C211.458 40.7116 212.475 41.0307 213.592 40.8664C214.284 40.7659 214.846 40.4645 215.312 39.9416C215.8 39.4025 216.08 38.8241 216.208 38.1084C216.297 37.6047 216.348 37.1783 216.375 36.6677H224.978C225.149 39.2545 224.327 41.5264 222.538 43.403Z" fill="#0056A8"/>
<path d="M189.649 19.4598H198.573V13.1725H189.649V19.4598Z" fill="#0056A8"/>
<path d="M189.649 46.4922H198.573V22.6916H189.649V46.4922Z" fill="#0056A8"/>
<path d="M171.162 25.2036C172.336 24.1797 173.455 23.4573 174.871 22.8041C177.177 21.7422 179.482 21.5698 181.92 22.28C184.536 23.0445 186.421 24.879 187.246 27.4713C187.642 28.7165 187.814 29.8219 187.814 31.1282V46.4891H178.335V32.6749C178.335 32.2132 178.279 31.8221 178.141 31.3794C177.898 30.5864 177.373 30.0025 176.605 29.6793C174.924 28.9678 173.014 29.5978 172.092 31.1676C171.707 31.8221 171.531 32.4671 171.531 33.2276V46.4891H162.351V22.6873H170.963L171.162 25.2036Z" fill="#0056A8"/>
<path d="M65.6127 25.2035C66.7865 24.1797 67.9057 23.4572 69.3191 22.8041C71.6256 21.7422 73.9322 21.5697 76.3695 22.2799C78.9865 23.0444 80.871 24.879 81.6962 27.4713C82.0924 28.7165 82.264 29.8219 82.264 31.1282V46.4891H72.7857V32.6749C72.7857 32.2132 72.7272 31.8221 72.5924 31.3794C72.3473 30.5864 71.8217 30.0025 71.0524 29.6793C69.3735 28.9677 67.4632 29.5978 66.5427 31.1676C66.156 31.8221 65.9804 32.4671 65.9804 33.2275V46.4891H56.8017V22.6873H65.4126L65.6127 25.2035Z" fill="#0056A8"/>
<path d="M121.862 37.7374C122.546 37.8528 123.118 37.9954 123.774 38.214C124.323 38.3932 124.7 38.8169 124.82 39.3777C124.95 39.9902 124.778 40.5713 124.336 41.0127C123.888 41.4649 123.378 41.7256 122.749 41.8234C121.907 41.9578 121.161 41.8885 120.359 41.5979C119.971 41.4594 119.663 41.2843 119.345 41.0222C118.935 40.6773 118.671 40.2821 118.511 39.7715C118.378 39.3383 118.325 38.9554 118.333 38.5019H109.593V39.0097C109.593 39.8299 109.721 40.5252 110.009 41.2924C110.448 42.4466 111.048 43.3388 111.955 44.1807C113.138 45.2847 114.373 45.9732 115.93 46.4172C119.161 47.3352 122.071 47.5172 125.392 47.0093C126.949 46.7716 128.235 46.3534 129.636 45.6296C130.253 45.3105 130.747 44.9805 131.279 44.5351C133.64 42.558 134.516 39.5407 133.572 36.6143C133.215 35.5117 132.652 34.6616 131.774 33.9012C130.57 32.861 129.351 32.1984 127.821 31.753C127.486 31.6565 127.2 31.5751 126.862 31.4827C124.99 30.964 123.382 30.6218 121.459 30.3366C120.945 30.2606 120.512 30.1778 120.004 30.0596C119.77 30.0039 119.575 29.9388 119.357 29.8396C118.819 29.5979 118.581 28.9665 118.823 28.4315C118.837 28.4029 118.849 28.3771 118.864 28.35C119.153 27.8353 119.58 27.4999 120.144 27.3356C121.142 27.0477 122.061 27.0722 123.04 27.4049C123.98 27.724 124.569 28.5836 124.528 29.5735H132.95C132.942 28.5415 132.784 27.6697 132.435 26.7001C132.079 25.717 131.537 24.9687 130.713 24.321C129.997 23.7534 129.317 23.3678 128.463 23.0378C127.633 22.7159 126.9 22.515 126.022 22.3615C123.935 22.003 122.139 21.8985 120.025 22.0234C118.818 22.0927 117.799 22.242 116.617 22.5177C115.027 22.8911 113.746 23.5035 112.46 24.5084C111.368 25.3625 110.653 26.3606 110.196 27.667C109.988 28.259 109.888 28.7845 109.861 29.4078C109.813 30.4521 109.964 31.3415 110.353 32.3124C111.047 34.0506 112.281 35.2822 114.026 35.9761C114.91 36.3278 115.685 36.5587 116.617 36.7488C118.456 37.1276 120.012 37.4223 121.862 37.7374Z" fill="#0056A8"/>
<path d="M17.3882 36.2274H11.2636V28.418H15.2436C15.9993 28.418 16.6393 28.4003 17.395 28.3582C18.4421 28.3012 19.3121 27.8341 19.9358 26.9935C20.2666 26.5468 20.4532 26.0959 20.5321 25.5446C20.5975 25.0802 20.607 24.6837 20.5607 24.2193C20.3905 22.4811 18.9472 21.1775 17.1975 21.1775H11.2636V46.4906H1.125V13.1698H17.6973C18.3563 13.1698 18.9132 13.182 19.5708 13.2187C23.9675 13.4536 27.5894 15.8884 29.4521 19.8671C30.4216 21.9379 30.7511 23.9287 30.5019 26.2018C29.9763 30.9872 26.6199 34.7093 21.9047 35.7399C20.3415 36.0821 18.9881 36.2274 17.3882 36.2274Z" fill="#0056A8"/>
<path d="M150.488 22.235C149.545 22.0856 148.739 22.0245 147.784 22.0245C146.828 22.0245 146.023 22.0856 145.079 22.235C142.339 22.6627 140.119 23.7613 138.119 25.676C135.979 27.7278 134.806 30.1558 134.538 33.1038C134.375 34.914 134.515 36.4742 135.004 38.2246C135.753 40.9106 137.159 42.9855 139.379 44.6802C140.84 45.8005 142.293 46.4713 144.093 46.8624C145.371 47.1421 146.476 47.2575 147.784 47.2575C149.091 47.2575 150.197 47.1421 151.477 46.8624C153.275 46.4713 154.728 45.8005 156.189 44.6802L151.061 39.1072C150.246 40.9133 148.122 41.7185 146.309 40.9051C145.475 40.5304 144.882 39.941 144.505 39.1072C144.158 38.3373 143.955 37.6475 143.83 36.811C143.577 35.1394 143.605 33.6878 143.933 32.027C144.101 31.1647 144.39 30.4613 144.872 29.7267C145.925 28.123 148.082 27.6748 149.693 28.7245C150.114 29.0002 150.422 29.3071 150.695 29.7267C151.179 30.4613 151.467 31.1647 151.635 32.027C151.959 33.6878 151.991 35.1394 151.738 36.811C151.612 37.6475 151.409 38.3373 151.061 39.1072L156.189 44.6802C158.41 42.9855 159.817 40.9106 160.564 38.2246C161.053 36.4742 161.192 34.914 161.03 33.1038C160.762 30.1558 159.592 27.7278 157.45 25.676C155.449 23.7586 153.231 22.6627 150.488 22.235Z" fill="#0056A8"/>
<path d="M108.613 44.6254C108.479 42.6646 108.404 41.0039 108.365 39.0362C108.313 36.4507 108.282 34.2699 108.264 31.6857C108.253 30.2912 108.099 29.1138 107.749 27.764C107.29 25.9947 106.252 24.6503 104.652 23.7568C103.685 23.2177 102.799 22.8864 101.717 22.6528C98.2752 21.9182 95.2374 21.8571 91.7694 22.4573C90.7945 22.6256 89.9884 22.8592 89.0734 23.2367C86.9602 24.1085 85.5046 25.6973 84.8265 27.874C84.5664 28.7064 84.497 29.4615 84.5964 30.3292C84.6154 30.4881 84.6549 30.6225 84.7271 30.7678L92.7579 30.9633C92.7375 30.4527 92.8042 30.0209 92.9771 29.5416C93.2399 28.811 93.7574 28.2923 94.4899 28.0261C95.567 27.631 96.6045 27.616 97.6965 27.9718C98.4141 28.2067 98.9233 28.7227 99.1466 29.4411C99.2869 29.8906 99.2175 30.3333 98.9451 30.7175C98.7082 31.057 98.4155 31.2852 98.0274 31.4332C97.7878 31.5242 97.5835 31.5907 97.3384 31.6559C96.2219 31.956 95.2688 32.1624 94.1291 32.3511C93.2263 32.4991 92.4665 32.639 91.572 32.821C90.356 33.0613 89.3403 33.3275 88.1625 33.7077C87.0841 34.0553 86.2344 34.5496 85.4011 35.3141C84.3173 36.3027 83.6977 37.4746 83.4908 38.9289C83.3546 39.8985 83.3859 40.7431 83.6011 41.6978C84.1634 44.18 85.8913 46.016 88.3436 46.7275C91.0614 47.5138 93.6117 47.3848 96.2355 46.3283C97.5127 45.8163 98.4849 45.1062 99.3631 44.0497L98.7967 39.9582C98.3923 40.5829 97.8899 41.0093 97.2104 41.308C96.5732 41.5891 95.9972 41.7371 95.3042 41.8077C94.7268 41.8648 94.2258 41.8227 93.6661 41.6665C93.2113 41.5416 92.856 41.3298 92.5333 40.9876C92.2609 40.6942 92.0989 40.3792 92.0158 39.9881C91.8892 39.3879 92.0866 38.8108 92.5564 38.4129C92.8709 38.1454 93.1787 37.9662 93.564 37.8249C94.4967 37.4827 95.2933 37.2261 96.2478 36.9559C97.4024 36.6313 98.3583 36.2796 99.4476 35.7799C99.5551 36.6503 99.5497 37.3958 99.4285 38.2622C99.34 38.8977 99.1466 39.4205 98.7967 39.9582L99.3631 44.0497C99.5388 44.6309 99.7008 45.117 99.8996 45.686C100.013 46.0051 100.16 46.2522 100.383 46.5007H109.229C108.852 45.91 108.66 45.3261 108.613 44.6254Z" fill="#0056A8"/>
<path d="M55.0334 44.6254C54.8999 42.6646 54.825 41.0039 54.7855 39.0362C54.7324 36.4507 54.7025 34.2699 54.6848 31.6857C54.6753 30.2912 54.5214 29.1138 54.1701 27.764C53.7112 25.9947 52.6737 24.6503 51.0724 23.7568C50.1057 23.2177 49.2193 22.8864 48.1381 22.6528C44.696 21.9182 41.6582 21.8571 38.1888 22.4573C37.2166 22.6256 36.4078 22.8592 35.4941 23.2367C33.3809 24.1085 31.9253 25.6973 31.2473 27.874C30.9886 28.7064 30.9177 29.4615 31.0185 30.3292C31.0362 30.4881 31.0757 30.6225 31.1479 30.7678L39.1787 30.9633C39.1596 30.4527 39.225 30.0209 39.3979 29.5416C39.6607 28.811 40.1781 28.2923 40.9107 28.0261C41.9891 27.631 43.0253 27.616 44.1159 27.9718C44.8348 28.2067 45.3455 28.7227 45.5701 29.4411C45.7076 29.8906 45.6382 30.3333 45.3659 30.7175C45.1276 31.057 44.8348 31.2852 44.4481 31.4332C44.2085 31.5242 44.0043 31.5907 43.7578 31.6559C42.6426 31.956 41.6881 32.1624 40.5498 32.3511C39.6484 32.4991 38.8873 32.639 37.9914 32.821C36.7768 33.0613 35.7624 33.3275 34.5819 33.7077C33.5062 34.0553 32.6565 34.5496 31.8219 35.3141C30.738 36.3027 30.1198 37.4746 29.9115 38.9289C29.774 39.8985 29.8067 40.7431 30.0232 41.6978C30.5828 44.18 32.3134 46.016 34.763 46.7275C37.4835 47.5138 40.0311 47.3848 42.6563 46.3283C43.9321 45.8163 44.907 45.1062 45.7853 44.0497L45.2188 39.9582C44.8144 40.5829 44.3106 41.0093 43.6298 41.308C42.9939 41.5891 42.4166 41.7371 41.7263 41.8077C41.1462 41.8648 40.6479 41.8227 40.0869 41.6665C39.6321 41.5416 39.2767 41.3298 38.9554 40.9876C38.6817 40.6942 38.5197 40.3792 38.4366 39.9881C38.3113 39.3879 38.5074 38.8108 38.9772 38.4129C39.2903 38.1454 39.5981 37.9662 39.9848 37.8249C40.9175 37.4827 41.7154 37.2261 42.6699 36.9559C43.8245 36.6313 44.779 36.2796 45.8697 35.7799C45.9759 36.6503 45.9704 37.3958 45.8493 38.2622C45.7607 38.8977 45.566 39.4205 45.2188 39.9582L45.7853 44.0497C45.9595 44.6309 46.1216 45.117 46.3217 45.686C46.4334 46.0051 46.5804 46.2522 46.8037 46.5007H55.6502C55.273 45.91 55.0824 45.3261 55.0334 44.6254Z" fill="#0056A8"/>
</svg>
