<svg width="100" height="51" viewBox="0 0 100 51" fill="none" xmlns="http://www.w3.org/2000/svg">
<path d="M0 13.1448C0 7.29347 4.75907 2.54999 10.6297 2.54999H35.4212C41.2918 2.54999 46.0509 7.29346 46.0509 13.1448V37.8551C46.0509 43.7065 41.2918 48.45 35.4212 48.45H10.6297C4.75907 48.45 0 43.7065 0 37.8551V13.1448Z" fill="black"/>
<path d="M36.666 24.0956C36.1848 20.978 33.5263 18.7135 30.3471 18.7135C30.0513 18.7135 29.7476 18.7331 29.4518 18.7724C29.0692 18.8235 28.6984 18.9061 28.3434 19.0162C27.7636 19.197 27.3652 19.7317 27.3652 20.3371V22.5034C28.0791 21.7407 29.0928 21.2689 30.2406 21.2689C31.3096 21.2689 32.3075 21.6738 33.0451 22.409C33.7866 23.1481 34.1929 24.1507 34.1929 25.2239C34.1929 27.4373 32.4534 29.175 30.2406 29.179C29.1796 29.179 28.1896 28.7701 27.4559 28.031C26.7222 27.2919 26.316 26.2972 26.316 25.2279V16.0853C26.316 15.4209 25.7774 14.8823 25.1129 14.8823C24.3477 14.8823 23.7285 14.8823 23.7285 14.8823V24.0956C23.7285 24.0956 23.7618 25.1264 23.8671 25.7767C24.0325 26.7981 24.1445 27.4076 24.6086 28.3209C25.0786 29.2455 26.3199 30.3545 26.3199 30.3545C27.452 31.2509 28.868 31.7462 30.359 31.7462C31.633 31.7462 32.8518 31.3767 33.8852 30.6729C36.1414 29.1397 37.1078 26.8634 36.6778 24.0956H36.666Z" fill="#FF5100"/>
<path d="M9.48888 24.0759C9.97009 20.9583 12.6286 18.6938 15.8078 18.6938C16.1036 18.6938 16.4073 18.7134 16.7032 18.7528C17.0858 18.8039 17.4565 18.8864 17.8115 18.9965C18.3913 19.1774 18.7897 19.712 18.7897 20.3175V22.4837C18.0758 21.721 17.0621 21.2492 15.9143 21.2492C14.8454 21.2492 13.8474 21.6542 13.1098 22.3894C12.3683 23.1285 11.962 24.131 11.962 25.2043C11.962 27.4177 13.7015 29.1554 15.9143 29.1593C16.9753 29.1593 17.9654 28.7504 18.699 28.0113C19.4327 27.2722 19.8389 26.2776 19.8389 25.2082V18.9375H21.042C21.8072 18.9375 22.4264 19.5548 22.4264 20.3175V35.8585H21.2194C20.4542 35.8585 19.835 35.2413 19.835 34.4786V30.3348C18.7029 31.2312 17.2869 31.7265 15.7959 31.7265C14.5219 31.7265 13.3031 31.357 12.2697 30.6533C10.0135 29.12 9.04712 26.8437 9.47706 24.0759H9.48888Z" fill="#FF5100"/>
<path d="M59.3709 29.8855C59.0831 30.1202 58.7298 30.2963 58.3112 30.4136C57.9056 30.531 57.4739 30.5897 57.016 30.5897C55.8647 30.5897 54.9751 30.2897 54.3472 29.6899C53.7192 29.0901 53.4052 28.2164 53.4052 27.0689V22.0421H51.6783V20.0861H53.4052V17.6998H55.8582V20.0861H58.6644V22.0421H55.8582V27.0102C55.8582 27.5188 55.9825 27.91 56.2311 28.1838C56.4796 28.4446 56.8394 28.575 57.3104 28.575C57.8598 28.575 58.3177 28.4316 58.6841 28.1447L59.3709 29.8855Z" fill="black"/>
<path d="M65.7536 30.5897C64.6939 30.5897 63.7389 30.3615 62.8885 29.9051C62.0381 29.4487 61.3709 28.8162 60.8869 28.0078C60.4159 27.1863 60.1804 26.2604 60.1804 25.2303C60.1804 24.2001 60.4159 23.2808 60.8869 22.4724C61.3709 21.6639 62.0381 21.0315 62.8885 20.5751C63.7389 20.1187 64.6939 19.8905 65.7536 19.8905C66.8264 19.8905 67.788 20.1187 68.6383 20.5751C69.4887 21.0315 70.1494 21.6639 70.6204 22.4724C71.1044 23.2808 71.3465 24.2001 71.3465 25.2303C71.3465 26.2604 71.1044 27.1863 70.6204 28.0078C70.1494 28.8162 69.4887 29.4487 68.6383 29.9051C67.788 30.3615 66.8264 30.5897 65.7536 30.5897ZM65.7536 28.4968C66.6563 28.4968 67.402 28.1969 67.9907 27.597C68.5795 26.9972 68.8738 26.2083 68.8738 25.2303C68.8738 24.2523 68.5795 23.4634 67.9907 22.8636C67.402 22.2637 66.6563 21.9638 65.7536 21.9638C64.8509 21.9638 64.1052 22.2637 63.5165 22.8636C62.9408 23.4634 62.653 24.2523 62.653 25.2303C62.653 26.2083 62.9408 26.9972 63.5165 27.597C64.1052 28.1969 64.8509 28.4968 65.7536 28.4968Z" fill="black"/>
<path d="M78.4019 30.5897C77.3422 30.5897 76.3872 30.3615 75.5368 29.9051C74.6864 29.4487 74.0192 28.8162 73.5351 28.0078C73.0642 27.1863 72.8287 26.2604 72.8287 25.2303C72.8287 24.2001 73.0642 23.2808 73.5351 22.4724C74.0192 21.6639 74.6864 21.0315 75.5368 20.5751C76.3872 20.1187 77.3422 19.8905 78.4019 19.8905C79.4747 19.8905 80.4363 20.1187 81.2866 20.5751C82.137 21.0315 82.7977 21.6639 83.2687 22.4724C83.7527 23.2808 83.9947 24.2001 83.9947 25.2303C83.9947 26.2604 83.7527 27.1863 83.2687 28.0078C82.7977 28.8162 82.137 29.4487 81.2866 29.9051C80.4363 30.3615 79.4747 30.5897 78.4019 30.5897ZM78.4019 28.4968C79.3046 28.4968 80.0503 28.1969 80.639 27.597C81.2278 26.9972 81.5221 26.2083 81.5221 25.2303C81.5221 24.2523 81.2278 23.4634 80.639 22.8636C80.0503 22.2637 79.3046 21.9638 78.4019 21.9638C77.4992 21.9638 76.7535 22.2637 76.1648 22.8636C75.5891 23.4634 75.3013 24.2523 75.3013 25.2303C75.3013 26.2083 75.5891 26.9972 76.1648 27.597C76.7535 28.1969 77.4992 28.4968 78.4019 28.4968Z" fill="black"/>
<path d="M86.3404 15.9394H88.7934V30.4527H86.3404V15.9394Z" fill="black"/>
<path d="M95.251 30.5897C94.4006 30.5897 93.5698 30.4788 92.7587 30.2571C91.9476 30.0355 91.3 29.7551 90.8159 29.4161L91.7579 27.5579C92.2289 27.8709 92.7914 28.1251 93.4456 28.3207C94.1128 28.5033 94.7669 28.5946 95.408 28.5946C96.8732 28.5946 97.6058 28.2099 97.6058 27.4405C97.6058 27.0754 97.4161 26.8212 97.0367 26.6777C96.6704 26.5343 96.0752 26.3974 95.251 26.267C94.3875 26.1366 93.681 25.9866 93.1316 25.8171C92.5952 25.6476 92.1242 25.3542 91.7186 24.9369C91.3262 24.5066 91.1299 23.9133 91.1299 23.157C91.1299 22.1659 91.542 21.377 92.3662 20.7902C93.2035 20.1904 94.3286 19.8905 95.7416 19.8905C96.4611 19.8905 97.1807 19.9752 97.9002 20.1448C98.6198 20.3012 99.2085 20.5164 99.6664 20.7902L98.7244 22.6484C97.8348 22.1268 96.834 21.866 95.7219 21.866C95.0024 21.866 94.4529 21.9769 94.0735 22.1985C93.7072 22.4072 93.524 22.6875 93.524 23.0396C93.524 23.4308 93.7203 23.7112 94.1128 23.8807C94.5183 24.0372 95.1398 24.1871 95.9771 24.3305C96.8143 24.4609 97.5012 24.6109 98.0376 24.7804C98.574 24.9499 99.0319 25.2368 99.4113 25.641C99.8037 26.0453 100 26.619 100 27.3623C100 28.3403 99.5748 29.1227 98.7244 29.7095C97.874 30.2963 96.7162 30.5897 95.251 30.5897Z" fill="black"/>
</svg>
