<svg width="135" height="51" viewBox="0 0 135 51" fill="none" xmlns="http://www.w3.org/2000/svg">
<g clip-path="url(#clip0_89_3148)">
<path d="M3 17.4396V20.0372L3.57061 20.5263L6.85294 23.3576H6.22256V26.6834H9.27122V27.6181C9.27122 28.08 8.99951 28.5039 8.58106 28.6995C4.50531 30.5961 4.2662 33.134 4.1086 34.5904C3.94557 36.1229 3.59778 40.9105 10.0592 41.0138C14.9066 41.0953 15.8576 37.4651 15.8305 35.0958C15.8196 34.1774 16.1511 33.3133 16.7054 32.5797C16.7108 32.5688 16.7163 32.5634 16.7217 32.5579C17.0369 32.1232 16.7543 31.5037 16.2217 31.4385C15.9718 31.4058 15.6457 31.3026 15.3577 31.4439C14.5588 31.8352 13.4122 33.8024 12.6622 35.2371C12.1569 36.1989 11.1189 36.813 10.0429 36.6554C9.29839 36.5467 8.84191 36.112 8.63541 35.3947C8.36912 34.4762 8.67888 33.4763 9.33643 32.7753L11.1026 30.8787C11.7275 30.2049 12.0808 29.3191 12.0808 28.4007V26.6888H15.8305V23.363L16.0098 23.0641L17.2217 21.0643L15.124 22.3033L11.6297 19.2873H15.5044L17.3412 20.8687L18.2977 19.2873L18.3683 19.1677V18.771H130.995V17.445H3V17.4396ZM8.12458 25.8954H6.87468V25.1672H8.12458V25.8954ZM11.3091 25.8954H10.0592V25.1672H11.3091V25.8954ZM13.3089 25.1672H14.5588V25.8954H13.3089V25.1672ZM13.2709 23.3576H9.93965L5.21721 19.2873L8.54302 19.2818L13.2709 23.3576Z" fill="black"/>
<path d="M32.503 32.0091C32.503 33.4329 33.079 34.7208 34.0083 35.6501C34.943 36.5848 36.2255 37.1608 37.6493 37.1608H54.3545V41.9485H30.6771C27.9327 41.9485 25.4547 40.8344 23.6559 39.0357C21.8571 37.2369 20.7431 34.7534 20.7431 32.0091C20.7431 26.5204 25.1938 22.0697 30.6771 22.0697H54.3545V26.8573H37.6493C34.8072 26.8573 32.503 29.1669 32.503 32.0091Z" fill="black"/>
<path d="M90.308 30.1886H66.9947V26.8573H90.4656V22.0697H57.6857V41.9485H90.308C91.9275 41.9485 93.4002 41.2909 94.4653 40.2258C95.5304 39.1607 96.188 37.6934 96.188 36.0685C96.188 32.8188 93.5523 30.1886 90.308 30.1886ZM84.4444 37.2804C84.1346 37.5956 83.7053 37.7858 83.2325 37.7858H66.9947V34.3513H83.2325C84.1781 34.3513 84.9498 35.1175 84.9498 36.0685C84.9498 36.5413 84.7542 36.9706 84.4444 37.2804Z" fill="black"/>
<path d="M126.99 22.0697L123.24 26.8573H115.023V41.9485H102.742V26.8573H93.7914V22.0697H126.99Z" fill="black"/>
<path d="M46.9638 12.4183V13.7714C46.9638 14.1899 47.3007 14.5268 47.7191 14.5268H51.8058V16.1897H47.1757C46.0236 16.1897 45.0944 15.2604 45.0944 14.1084V12.0814C45.0944 10.9347 46.0236 10 47.1757 10H51.8058V11.6629H47.7191C47.3007 11.6629 46.9638 12.0053 46.9638 12.4183Z" fill="black"/>
<path d="M60.0768 10.2608V16.1897H57.6857V11.6629H55.2403V16.1897H52.8437V10.2608H60.0768Z" fill="black"/>
<path d="M77.6623 14.3203V17.4396H75.5321V16.3201H69.4402V10.2608H71.8367V14.3203H73.967V10.2608H76.3635V14.3203H77.6623Z" fill="black"/>
<path d="M63.3537 11.6629V12.3965H65.9568V13.7986H63.3537V14.3203H68.0925V16.3201H60.9626V10.2608H68.0925V11.6629H63.3537Z" fill="black"/>
<path d="M96.7314 11.4564V10.2608C96.7477 10.6793 96.7477 11.0814 96.7314 11.4564Z" fill="black"/>
<path d="M85.3628 12.8367C85.0041 12.4835 84.515 12.2661 83.9716 12.2661H80.9175V11.6629H85.6508V10.2608H78.9122V16.1897H83.9716C85.0585 16.1897 85.9388 15.3148 85.9388 14.2279C85.9388 13.6845 85.7215 13.1954 85.3628 12.8367ZM83.4934 14.3909C83.4934 14.7659 83.1836 15.0757 82.8086 15.0757H80.9175V13.3802H82.8086C83.1836 13.3802 83.4934 13.6899 83.4934 14.0649V14.3909Z" fill="black"/>
<path d="M125.99 10.3261H120.925V16.2604H122.93V14.2551H125.99C126.533 14.2551 127.022 14.0323 127.376 13.6791C127.729 13.3258 127.952 12.8367 127.952 12.2933C127.952 11.2064 127.071 10.3261 125.99 10.3261ZM125.506 12.4509C125.506 12.8313 125.202 13.1356 124.821 13.1356H122.93V11.4455H124.821C125.202 11.4455 125.506 11.7499 125.506 12.1303V12.4509Z" fill="black"/>
<path d="M87.3083 10.2608H89.2592L90.9058 12.8965C90.9819 13.0161 91.1558 13.0215 91.2373 12.9074L93.0904 10.2608H95.0196L91.9764 14.6083L91.797 14.8583L91.1449 15.7876C90.971 16.0375 90.683 16.1897 90.3787 16.1897H87.7593V14.8583H89.6342C89.8733 14.8583 90.02 14.5974 89.8896 14.3909L87.3083 10.2608Z" fill="black"/>
<path d="M96.7314 11.4564V10.2608C96.7477 10.6793 96.7477 11.0814 96.7314 11.4564Z" fill="black"/>
<path d="M102.899 15.0757V10.2608H96.7314C96.7477 10.6793 96.7477 11.0814 96.7314 11.4564C96.6662 13.3258 96.1934 14.7116 94.8566 15.0757V17.4396H96.9868V16.3201H101.476V17.4396H103.611V15.0757H102.899ZM100.503 15.0757H97.514C98.0574 14.9289 98.3889 14.5268 98.5791 13.9562C98.7802 13.3747 98.8236 12.6139 98.791 11.7716H100.503V15.0757Z" fill="black"/>
<path d="M110.997 10.2608V11.6629H109.056V16.1897H106.383V11.6629H104.372V10.2608H110.997Z" fill="black"/>
<path d="M135 10.2608L134.223 11.6629H131.31V16.1897H128.636V10.2608H135Z" fill="black"/>
<path d="M117.703 10.2608H113.589C112.697 10.2608 111.969 10.989 111.969 11.8803V14.5703C111.969 15.4669 112.697 16.1897 113.589 16.1897H117.703C118.599 16.1897 119.322 15.4669 119.322 14.5703V11.8803C119.322 10.989 118.599 10.2608 117.703 10.2608ZM117.485 13.8964C117.485 14.3475 117.121 14.7116 116.675 14.7116H114.621C114.17 14.7116 113.806 14.3475 113.806 13.8964V12.5541C113.806 12.1085 114.17 11.7444 114.621 11.7444H116.675C117.121 11.7444 117.485 12.1085 117.485 12.5541V13.8964Z" fill="black"/>
</g>
<path d="M13 25H9.52174L5 21H8.47826L13 25Z" fill="white"/>
<path d="M15 21H11L15 24L17 22.6364L15 21Z" fill="white"/>
<defs>
<clipPath id="clip0_89_3148">
<rect width="132" height="31.9485" fill="white" transform="translate(3 10)"/>
</clipPath>
</defs>
</svg>
