<svg width="127" height="51" viewBox="0 0 127 51" fill="none" xmlns="http://www.w3.org/2000/svg">
<g clip-path="url(#clip0_89_3155)">
<path d="M42.1586 23.2651C42.1586 34.7167 32.7224 44 21.0821 44C9.44186 44 0 34.7167 0 23.2651C0 22.5719 0.0338216 21.8843 0.101465 21.2077C1.15557 31.6888 10.1465 39.8796 21.0821 39.8796C32.0178 39.8796 41.003 31.6888 42.0571 21.2077C42.1248 21.8843 42.1586 22.5719 42.1586 23.2651Z" fill="#FF131B"/>
<path d="M3.41595 24.3798C3.41595 14.7804 11.3189 7 21.0765 7C30.834 7 38.7426 14.7804 38.7426 24.3798C38.7426 24.9621 38.7144 25.5388 38.658 26.1045C37.773 17.3203 30.2421 10.4549 21.0765 10.4549C11.9108 10.4549 4.37987 17.3147 3.50051 26.0989C3.44414 25.5333 3.41595 24.9565 3.41595 24.3743V24.3798Z" fill="#FF131B"/>
<path d="M7.99316 29.4263C7.99316 22.3169 13.8499 16.5495 21.0821 16.5495C28.3143 16.5495 34.1711 22.3113 34.1711 29.4263C34.1711 29.8588 34.1485 30.2858 34.1091 30.7017C33.4552 24.1913 27.8746 19.106 21.0821 19.106C14.2896 19.106 8.71469 24.1913 8.06081 30.7017C8.02135 30.2803 7.9988 29.8533 7.9988 29.4263H7.99316Z" fill="#FF131B"/>
<path d="M12.1363 33.3692C12.1363 28.5113 16.1385 24.5684 21.0821 24.5684C26.0257 24.5684 30.0279 28.5057 30.0279 33.3692C30.0279 33.6631 30.011 33.957 29.9828 34.2398C29.5375 29.7923 25.7213 26.3152 21.0821 26.3152C16.4429 26.3152 12.6267 29.7923 12.1814 34.2398C12.1532 33.9515 12.1363 33.6631 12.1363 33.3692Z" fill="#FF131B"/>
<path d="M64.2215 13.993V25.0619C64.2215 29.2266 60.7886 32.6039 56.5553 32.6039C52.322 32.6039 48.8947 29.2266 48.8947 25.0619V13.993H53.7481V24.7181C53.7481 26.2431 55.0051 27.4798 56.5553 27.4798C58.1055 27.4798 59.3625 26.2431 59.3625 24.7181V13.993H64.2215Z" fill="black"/>
<path d="M86.2055 23.2984C86.2055 24.0193 86.1266 24.7181 85.9744 25.3891C85.0049 29.7202 81.0759 32.9643 76.3804 32.9643C70.9577 32.9643 66.5609 28.6333 66.5609 23.2984C66.5609 17.9636 70.9577 13.6325 76.3804 13.6325C79.9429 13.6325 83.0601 15.4958 84.785 18.2852L80.0049 20.3371C79.1368 19.3167 77.8347 18.6679 76.3804 18.6679C73.7818 18.6679 71.6735 20.7419 71.6735 23.2984C71.6735 25.8549 73.7818 27.929 76.3804 27.929C78.218 27.929 79.8076 26.8975 80.5855 25.3891H76.8482V22.0618H86.121C86.1774 22.4666 86.2055 22.877 86.2055 23.2984Z" fill="black"/>
<path d="M97.6485 13.9542C92.8289 13.9542 88.8492 17.4811 88.2348 22.0618C88.1784 22.4666 88.1503 22.877 88.1503 23.2984C88.1503 24.0194 88.2348 24.7181 88.3927 25.3891C89.3509 29.5427 93.1333 32.6427 97.6485 32.6427C102.891 32.6427 107.147 28.4614 107.147 23.2984C107.147 18.1355 102.891 13.9542 97.6485 13.9542ZM97.6485 27.929C95.0442 27.929 92.936 25.8549 92.936 23.2984C92.936 20.7419 95.0442 18.6679 97.6485 18.6679C100.253 18.6679 102.355 20.7419 102.355 23.2984C102.355 25.8549 100.247 27.929 97.6485 27.929Z" fill="black"/>
<path d="M119.486 23.1321L127 31.9052H121.341L116.656 26.5703L114.988 24.5351V31.9052H109.807V13.993H114.988V21.7235L116.656 19.6883L121.341 13.993H127L119.486 23.1321Z" fill="black"/>
</g>
<defs>
<clipPath id="clip0_89_3155">
<rect width="127" height="37" fill="white" transform="translate(0 7)"/>
</clipPath>
</defs>
</svg>
