<svg width="32" height="32" viewBox="0 0 32 32" fill="none" xmlns="http://www.w3.org/2000/svg">
<path d="M10.3974 2.66797H21.5974C25.8641 2.66797 29.3307 6.13464 29.3307 10.4013V21.6013C29.3307 23.6523 28.516 25.6193 27.0657 27.0696C25.6154 28.5199 23.6484 29.3346 21.5974 29.3346H10.3974C6.13073 29.3346 2.66406 25.868 2.66406 21.6013V10.4013C2.66406 8.35029 3.47882 6.38329 4.9291 4.93301C6.37938 3.48273 8.34639 2.66797 10.3974 2.66797ZM10.1307 5.33464C8.85769 5.33464 7.63679 5.84035 6.73662 6.74052C5.83644 7.6407 5.33073 8.8616 5.33073 10.1346V21.868C5.33073 24.5213 7.4774 26.668 10.1307 26.668H21.8641C23.1371 26.668 24.358 26.1623 25.2582 25.2621C26.1583 24.3619 26.6641 23.141 26.6641 21.868V10.1346C26.6641 7.4813 24.5174 5.33464 21.8641 5.33464H10.1307ZM22.9974 7.33464C23.4394 7.33464 23.8633 7.51023 24.1759 7.82279C24.4885 8.13535 24.6641 8.55927 24.6641 9.0013C24.6641 9.44333 24.4885 9.86725 24.1759 10.1798C23.8633 10.4924 23.4394 10.668 22.9974 10.668C22.5554 10.668 22.1314 10.4924 21.8189 10.1798C21.5063 9.86725 21.3307 9.44333 21.3307 9.0013C21.3307 8.55927 21.5063 8.13535 21.8189 7.82279C22.1314 7.51023 22.5554 7.33464 22.9974 7.33464ZM15.9974 9.33463C17.7655 9.33464 19.4612 10.037 20.7114 11.2873C21.9617 12.5375 22.6641 14.2332 22.6641 16.0013C22.6641 17.7694 21.9617 19.4651 20.7114 20.7153C19.4612 21.9656 17.7655 22.668 15.9974 22.668C14.2293 22.668 12.5336 21.9656 11.2833 20.7153C10.0331 19.4651 9.33073 17.7694 9.33073 16.0013C9.33073 14.2332 10.0331 12.5375 11.2833 11.2873C12.5336 10.037 14.2293 9.33464 15.9974 9.33463ZM15.9974 12.0013C14.9365 12.0013 13.9191 12.4227 13.169 13.1729C12.4188 13.923 11.9974 14.9404 11.9974 16.0013C11.9974 17.0622 12.4188 18.0796 13.169 18.8297C13.9191 19.5799 14.9365 20.0013 15.9974 20.0013C17.0583 20.0013 18.0757 19.5799 18.8258 18.8297C19.576 18.0796 19.9974 17.0622 19.9974 16.0013C19.9974 14.9404 19.576 13.923 18.8258 13.1729C18.0757 12.4227 17.0583 12.0013 15.9974 12.0013Z" fill="white"/>
</svg>
