<svg width="32" height="32" viewBox="0 0 32 32" fill="none" xmlns="http://www.w3.org/2000/svg">
<path d="M9.25521 6.668C9.25486 7.37524 8.97356 8.05338 8.47322 8.55323C7.97287 9.05307 7.29445 9.33369 6.58721 9.33333C5.87996 9.33298 5.20183 9.05169 4.70198 8.55134C4.20213 8.05099 3.92152 7.37258 3.92188 6.66533C3.92223 5.95809 4.20352 5.27995 4.70387 4.78011C5.20421 4.28026 5.88263 3.99965 6.58988 4C7.29712 4.00035 7.97526 4.28164 8.4751 4.78199C8.97495 5.28234 9.25556 5.96076 9.25521 6.668ZM9.33521 11.308H4.00188V28.0013H9.33521V11.308ZM17.7619 11.308H12.4552V28.0013H17.7085V19.2413C17.7085 14.3613 24.0685 13.908 24.0685 19.2413V28.0013H29.3352V17.428C29.3352 9.20133 19.9219 9.508 17.7085 13.548L17.7619 11.308Z" fill="white"/>
</svg>
