<svg width="196" height="33" viewBox="0 0 196 33" fill="none" xmlns="http://www.w3.org/2000/svg">
<g clip-path="url(#clip0_4245_79216)">
<path d="M60.7879 12.4008C59.7547 15.6051 58.7094 18.5707 57.6492 21.2947C56.592 24.0217 55.5318 26.6759 54.4746 29.2573H50.8957C49.5899 25.5991 48.4368 21.7371 47.4245 17.6714C46.4422 13.6057 45.5168 9.18201 44.6572 4.40037H48.4218C48.7663 6.26588 49.1227 8.13139 49.491 9.9969C49.8594 11.8624 50.2428 13.6784 50.6351 15.4479C51.0274 17.1941 51.4228 18.8675 51.8151 20.4682C52.2074 22.0689 52.6147 23.5531 53.034 24.9151C54.0164 22.4035 55.0646 19.6562 56.1727 16.6644C57.2808 13.6522 58.3141 10.544 59.2725 7.33979H62.3722C63.3306 10.544 64.3788 13.6522 65.5109 16.6644C66.643 19.6533 67.7002 22.4035 68.6855 24.9151C69.0779 23.5764 69.4732 22.1038 69.8655 20.5031C70.2579 18.9024 70.6412 17.2261 71.0096 15.4828C71.4019 13.7134 71.7853 11.8973 72.1537 10.0318C72.522 8.14303 72.8784 6.26588 73.2228 4.40037H76.8767C75.9902 9.18201 75.0438 13.6057 74.0345 17.6714C73.0521 21.7371 71.9171 25.5991 70.6382 29.2573H67.0593C65.9751 26.6759 64.9179 24.0217 63.8847 21.2947C62.8514 18.5678 61.8182 15.6051 60.7849 12.4008H60.7879ZM78.9581 19.9676C78.9581 18.3175 79.2037 16.8827 79.6949 15.6633C80.189 14.4206 80.8389 13.3903 81.6506 12.5783C82.4622 11.7664 83.3996 11.1552 84.4568 10.7478C85.514 10.3403 86.5982 10.1366 87.7063 10.1366C90.2909 10.1366 92.2706 10.9253 93.6482 12.5027C95.0259 14.0568 95.7147 16.4345 95.7147 19.6417V20.215C95.7147 20.4304 95.7028 20.6341 95.6788 20.8262H82.5371C82.6838 22.7644 83.2618 24.2341 84.2711 25.2382C85.2804 26.2422 86.8558 26.7457 88.9971 26.7457C90.2011 26.7457 91.2134 26.6497 92.025 26.4576C92.8606 26.2422 93.4895 26.0385 93.9088 25.8464L94.388 28.6433C93.9687 28.8586 93.2319 29.0856 92.1747 29.3243C91.1415 29.5629 89.9585 29.6822 88.6317 29.6822C86.9576 29.6822 85.508 29.4436 84.2771 28.9663C83.0732 28.4628 82.0759 27.7818 81.2882 26.9203C80.5005 26.0589 79.9105 25.0432 79.5152 23.8703C79.1468 22.6742 78.9611 21.3733 78.9611 19.9618L78.9581 19.9676ZM92.1358 18.137C92.1598 16.6295 91.7674 15.3984 90.9558 14.4439C90.1681 13.4631 89.072 12.9741 87.6704 12.9741C86.8827 12.9741 86.1819 13.1313 85.5679 13.4398C84.9779 13.7279 84.4748 14.1092 84.0555 14.5865C83.6362 15.0667 83.3038 15.6138 83.0582 16.2366C82.8366 16.8594 82.6898 17.4909 82.6149 18.137H92.1388H92.1358ZM104.08 11.4288C104.499 11.1639 105.125 10.8904 105.963 10.6052C106.826 10.317 107.808 10.1744 108.916 10.1744C110.294 10.1744 111.513 10.4131 112.57 10.8904C113.654 11.3706 114.565 12.037 115.302 12.8985C116.038 13.7599 116.592 14.7873 116.964 15.9834C117.356 17.1795 117.554 18.495 117.554 19.9298C117.554 21.4373 117.32 22.7994 116.853 24.0188C116.41 25.2149 115.769 26.2306 114.933 27.0688C114.098 27.9069 113.088 28.553 111.905 29.007C110.725 29.4611 109.396 29.6881 107.919 29.6881C106.32 29.6881 104.906 29.5804 103.675 29.365C102.444 29.1496 101.435 28.9343 100.647 28.7189V1.99646L104.08 1.42313V11.4317V11.4288ZM104.08 26.3499C104.424 26.446 104.903 26.542 105.52 26.6381C106.161 26.7108 106.946 26.7457 107.883 26.7457C109.728 26.7457 111.205 26.1578 112.313 24.9879C113.421 23.7918 113.975 22.1067 113.975 19.9298C113.975 18.9752 113.876 18.0759 113.678 17.2407C113.481 16.4025 113.16 15.6866 112.72 15.0899C112.277 14.4671 111.699 13.9898 110.986 13.6552C110.297 13.2972 109.458 13.1168 108.476 13.1168C107.494 13.1168 106.679 13.2739 105.892 13.5824C105.104 13.8938 104.502 14.2168 104.083 14.5515V26.3528L104.08 26.3499ZM126.847 26.8534C128.249 26.8534 129.282 26.673 129.947 26.315C130.636 25.957 130.98 25.3837 130.98 24.5921C130.98 23.8005 130.648 23.134 129.983 22.6538C129.318 22.1736 128.225 21.6381 126.697 21.0386C125.961 20.7505 125.245 20.4653 124.556 20.1772C123.891 19.8658 123.313 19.5078 122.822 19.1003C122.328 18.6929 121.935 18.204 121.642 17.6306C121.345 17.0573 121.199 16.353 121.199 15.5148C121.199 13.8647 121.825 12.5609 123.079 11.6063C124.334 10.6255 126.044 10.1366 128.21 10.1366C128.749 10.1366 129.294 10.1715 129.833 10.2443C130.375 10.2938 130.878 10.3636 131.345 10.4596C131.813 10.5324 132.217 10.6168 132.564 10.7099C132.933 10.806 133.214 10.8904 133.412 10.9602L132.786 13.8298C132.418 13.6377 131.84 13.4485 131.052 13.2564C130.264 13.0411 129.318 12.9334 128.21 12.9334C127.251 12.9334 126.413 13.1255 125.7 13.5067C124.984 13.8647 124.631 14.438 124.631 15.2296C124.631 15.6371 124.706 15.995 124.852 16.3064C125.023 16.6179 125.272 16.9031 125.589 17.1679C125.934 17.4065 126.353 17.6336 126.844 17.8489C127.335 18.0643 127.928 18.2913 128.617 18.5299C129.527 18.8646 130.339 19.1993 131.052 19.534C131.768 19.8454 132.367 20.215 132.861 20.6457C133.379 21.0764 133.771 21.6003 134.041 22.2231C134.313 22.8197 134.448 23.5619 134.448 24.4466C134.448 26.1695 133.783 27.4733 132.457 28.3551C131.151 29.2399 129.282 29.6822 126.847 29.6822C125.149 29.6822 123.819 29.5396 122.861 29.2515C121.902 28.9867 121.249 28.7859 120.905 28.6403L121.534 25.7708C121.926 25.9134 122.555 26.1287 123.415 26.4169C124.277 26.705 125.421 26.8476 126.847 26.8476V26.8534ZM142.064 10.6052H149.336V13.402H142.064V22.0107C142.064 22.942 142.139 23.719 142.286 24.3418C142.433 24.9384 142.654 25.4186 142.951 25.7766C143.247 26.1113 143.616 26.3499 144.059 26.4925C144.502 26.6351 145.017 26.7079 145.61 26.7079C146.643 26.7079 147.47 26.6002 148.084 26.3849C148.725 26.1462 149.168 25.9774 149.414 25.8814L150.079 28.6433C149.734 28.8091 149.132 29.0158 148.27 29.2544C147.407 29.5193 146.425 29.6502 145.317 29.6502C144.011 29.6502 142.93 29.4931 142.067 29.1846C141.232 28.8499 140.555 28.361 140.037 27.7149C139.519 27.0688 139.15 26.2801 138.929 25.3488C138.731 24.3942 138.632 23.2912 138.632 22.0485V5.40443L142.064 4.8311V10.6052ZM157.138 29.2573H153.706V10.6052H157.138V29.2573ZM155.404 7.23501C154.79 7.23501 154.26 7.04293 153.816 6.66168C153.397 6.25424 153.19 5.71583 153.19 5.04646C153.19 4.37709 153.4 3.85032 153.816 3.46907C154.26 3.06163 154.79 2.85791 155.404 2.85791C156.018 2.85791 156.536 3.06163 156.955 3.46907C157.398 3.85032 157.62 4.37709 157.62 5.04646C157.62 5.71583 157.398 6.25424 156.955 6.66168C156.536 7.04293 156.021 7.23501 155.404 7.23501ZM171.385 29.6881C169.833 29.6881 168.468 29.4494 167.288 28.9721C166.131 28.4919 165.146 27.8255 164.335 26.964C163.547 26.1026 162.957 25.0869 162.562 23.914C162.169 22.7179 161.972 21.4024 161.972 19.9676C161.972 18.5328 162.181 17.2174 162.6 16.0212C163.044 14.8251 163.658 13.7978 164.445 12.9363C165.233 12.0516 166.194 11.3706 167.323 10.8933C168.479 10.3898 169.758 10.1395 171.163 10.1395C172.025 10.1395 172.885 10.2123 173.748 10.3549C174.61 10.4975 175.434 10.7274 176.221 11.0359L175.446 13.8705C174.928 13.6319 174.326 13.4398 173.637 13.2972C172.972 13.1546 172.259 13.0818 171.495 13.0818C169.576 13.0818 168.099 13.6697 167.066 14.8397C166.057 16.0096 165.553 17.7209 165.553 19.9676C165.553 20.9717 165.664 21.8913 165.886 22.7295C166.131 23.5677 166.5 24.2836 166.994 24.8802C167.512 25.4768 168.162 25.9425 168.95 26.2801C169.737 26.5915 170.699 26.7457 171.828 26.7457C172.738 26.7457 173.562 26.6613 174.302 26.4954C175.038 26.3296 175.616 26.1491 176.036 25.957L176.515 28.7538C176.317 28.8732 176.036 28.9925 175.667 29.1118C175.299 29.2079 174.88 29.2923 174.412 29.3621C173.945 29.4581 173.439 29.528 172.9 29.5775C172.382 29.6502 171.879 29.6851 171.388 29.6851L171.385 29.6881ZM187.141 18.9985C187.878 19.5485 188.653 20.2295 189.465 21.0415C190.301 21.8535 191.112 22.7411 191.9 23.6957C192.711 24.627 193.475 25.5845 194.188 26.5653C194.901 27.5199 195.503 28.4192 195.997 29.2544H191.975C191.457 28.4162 190.855 27.5693 190.166 26.7079C189.501 25.8232 188.8 24.985 188.06 24.1963C187.324 23.3843 186.572 22.6422 185.808 21.9728C185.044 21.3035 184.32 20.7418 183.631 20.2878V29.2544H180.199V1.99646L183.631 1.42313V18.4252C184.221 17.8518 184.874 17.2174 185.587 16.5247C186.302 15.8321 187.003 15.1249 187.689 14.4089C188.378 13.693 189.031 13.0091 189.645 12.3659C190.259 11.6965 190.789 11.1115 191.232 10.6081H195.254C194.688 11.2047 194.074 11.8624 193.409 12.5813C192.744 13.2972 192.056 14.0277 191.343 14.7698C190.63 15.4857 189.902 16.2162 189.165 16.9584C188.453 17.6743 187.776 18.3582 187.135 19.0043L187.141 18.9985Z" fill="white"/>
<path d="M7.086 0H0V6.99929C0 9.41194 1.25787 11.5627 3.15965 12.8461C1.64122 13.8647 0.386346 15.4421 0 17.2698H2.68046C3.29442 15.4305 5.21417 14.1092 7.31361 14.1092H11.9168V17.2698H14.5044V7.20884C14.5044 3.23917 11.1801 0 7.086 0ZM11.9078 11.583H7.30463C4.70503 11.583 2.58762 9.52253 2.58762 6.99929V2.51451H7.086C9.74549 2.51451 11.9078 4.61575 11.9078 7.20011V11.583ZM33.9595 6.8887V0H26.7477C24.2649 0 22.0516 1.22233 20.7309 3.07038C19.6827 1.59485 18.0624 0.37252 16.1786 0V2.60473C18.0714 3.20134 19.4311 5.06976 19.4311 7.10698V11.5801H16.1786V14.0946H26.5171C30.6022 14.0946 33.9595 10.8642 33.9595 6.88579V6.8887ZM22.0307 11.583V7.10989C22.0307 4.58374 24.1511 2.52615 26.7477 2.52615H31.3509V6.89743C31.3509 9.48179 29.1886 11.583 26.5291 11.583H22.0307ZM26.8525 33H33.9595V26.0007C33.9595 23.5881 32.6806 21.4373 30.7789 20.1539C32.2973 19.1324 33.5731 17.5579 33.9595 15.7302H31.279C30.6651 17.5695 28.7243 18.8908 26.6249 18.8908H22.0217V15.7302H19.4341V25.7766C19.4341 29.7463 22.7584 32.9854 26.8525 32.9854V32.9971V33ZM22.0307 21.417H26.6339C29.2335 21.417 31.3509 23.4775 31.3509 26.0007V30.4739H26.8525C24.193 30.4739 22.0307 28.3726 22.0307 25.7883V21.417ZM0 26.1113V32.9971H7.2028C9.68559 32.9971 11.8988 31.7748 13.2196 29.9267C14.2708 31.4022 15.8911 32.6217 17.7719 32.9942V30.3895C15.8791 29.7928 14.5194 27.9244 14.5194 25.8872V21.4141H17.7719V18.8995H7.41843C3.33335 18.8995 0 22.1329 0 26.1113ZM11.9198 21.4257V25.8988C11.9198 28.425 9.7994 30.4826 7.2028 30.4826H2.58762V26.1113C2.58762 23.5269 4.74995 21.4257 7.40945 21.4257H11.9198Z" fill="white"/>
</g>
<defs>
<clipPath id="clip0_4245_79216">
<rect width="196" height="33" fill="white"/>
</clipPath>
</defs>
</svg>
